<?xml version="1.0" standalone="no"?>
<!DOCTYPE svg PUBLIC "-//W3C//DTD SVG 1.1//EN" "http://www.w3.org/Graphics/SVG/1.1/DTD/svg11.dtd" >
<svg>
<metadata>
Created by FontForge 20090914 at Thu Jul  1 06:39:02 2021
 By www-data
Copyright 2018 The Roboto Slab Project Authors (https://github.com/googlefonts/robotoslab)
</metadata>
<defs>
<font id="RobotoSlab-SemiBold" horiz-adv-x="0" >
  <font-face 
    font-family="Roboto Slab SemiBold"
    font-weight="600"
    font-stretch="normal"
    units-per-em="2048"
    panose-1="0 0 0 0 0 0 0 0 0 0"
    ascent="1638"
    descent="-410"
    x-height="1082"
    cap-height="1456"
    bbox="-370.003 -555 2673 2146"
    underline-thickness="100"
    underline-position="-100"
    unicode-range="U+000D-U+FFFD"
  />
<missing-glyph horiz-adv-x="1038" 
d="M100 0v1456h838v-1456h-838zM154 54h730v1348h-730v-1348zM858 20l-738 1416h60l738 -1416h-60zM120 20l738 1416h60l-738 -1416h-60z" />
    <glyph glyph-name="fi" unicode="fi" horiz-adv-x="1316" 
d="M42 0v163.999l157 30v695h-163v193h163v83c0 132.667 40.333 235.167 121 307.5s193.667 108.5 339 108.5c50.667 0 100.5 -5.16699 149.5 -15.5s105.833 -25.166 170.5 -44.499l-40 -216c-44 14 -86.667 25.5 -128 34.5s-83 13.5 -125 13.5
c-74 0 -128.333 -15.833 -163 -47.5s-52 -78.5 -52 -140.5v-83h648v-888l156 -30v-164h-574v164l146 30v695h-376v-695l146 -30v-164h-575z" />
    <glyph glyph-name="fl" unicode="fl" horiz-adv-x="1406" 
d="M42 0v164l157 30v695h-138v193h138v54c0 142 42.667 251.667 128 329s205.333 116 360 116c57.333 0 114 -5.16699 170 -15.5s121 -25.5 195 -45.5h154v-1326l146 -30v-164h-563v164l145 30v1142c-38.667 8 -76.167 14.5 -112.5 19.5s-72.833 7.5 -109.5 7.5
c-82 0 -142.667 -19 -182 -57s-59 -94.667 -59 -170v-54h242v-193h-242v-695l146 -30v-164h-575z" />
    <glyph glyph-name=".notdef" horiz-adv-x="1038" 
d="M100 0v1456h838v-1456h-838zM154 54h730v1348h-730v-1348zM858 20l-738 1416h60l738 -1416h-60zM120 20l738 1416h60l-738 -1416h-60z" />
    <glyph glyph-name="CR" unicode="&#xd;" horiz-adv-x="504" 
 />
    <glyph glyph-name="space" unicode=" " horiz-adv-x="504" 
 />
    <glyph glyph-name="exclam" unicode="!" horiz-adv-x="502" 
d="M124 497v959h272v-959h-272zM124 0v245h272v-245h-272z" />
    <glyph glyph-name="quotedbl" unicode="&#x22;" horiz-adv-x="783" 
d="M145 1036v299v225h204v-248l-82 -276h-122zM476 1036v299v225h204v-248l-82 -276h-122z" />
    <glyph glyph-name="numbersign" unicode="#" horiz-adv-x="1208" 
d="M199 0l74 410h-229v163h258l54 302h-236v165h265l76 416h176l-74 -416h205l75 416h177l-76 -416h216v-165h-245l-55 -302h225v-163h-253l-74 -410h-176l73 410h-205l-74 -410h-177zM478 573h206l55 302h-206z" />
    <glyph glyph-name="dollar" unicode="$" horiz-adv-x="1108" 
d="M481 -213l-0.00195312 196c-81.333 8 -154 30 -218 66s-113.833 86.667 -149.5 152s-52.834 146.333 -51.501 243l2 5h265c0 -61.333 9.83301 -111 29.5 -149s46.834 -65.667 81.501 -83s73.667 -26 117 -26c44 0 81.333 7.83301 112 23.5s54 37.667 70 66
s24 61.833 24 100.5c0 37.333 -7.16699 69.833 -21.5 97.5s-37.666 52.667 -69.999 75s-75.5 43.5 -129.5 63.5c-96 34 -176 71 -240 111s-111.5 87.667 -142.5 143s-46.5 122.666 -46.5 201.999c0 111.333 34.833 202.5 104.5 273.5s164.167 113.167 283.5 126.5v216h159
v-219c115.333 -16.667 206 -65.167 272 -145.5s98.333 -185.5 97 -315.5l-6 -3h-262c0 80.667 -17.167 143.834 -51.5 189.501s-81.5 68.5 -141.5 68.5c-62 0 -108.167 -17.333 -138.5 -52s-45.5 -81.334 -45.5 -140.001c0 -36 6.66699 -67.333 20 -94s36.333 -51 69 -73
s77.334 -43.667 134.001 -65c96.667 -36.667 176.667 -75.167 240 -115.5s110.5 -87.666 141.5 -141.999s46.5 -120.833 46.5 -199.5c0 -114.667 -35.5 -206.667 -106.5 -276s-167.167 -110.333 -288.5 -123v-197h-159z" />
    <glyph glyph-name="percent" unicode="%" horiz-adv-x="1436" 
d="M426 109l-135 73l711 1138l135 -73zM1068 -20c-65.333 0 -121.499 13 -168.499 39s-83.167 61.667 -108.5 107s-38 96.666 -38 153.999v77c0 56.667 12.5 107.667 37.5 153s61 81.166 108 107.499s102.833 39.5 167.5 39.5c65.333 0 121.5 -13 168.5 -39
s83 -61.667 108 -107s37.5 -96.666 37.5 -153.999v-77c0 -57.333 -12.333 -108.666 -37 -153.999s-60.334 -81 -107.001 -107s-102.667 -39 -168 -39zM1068 133c44.667 0 77.167 13.6689 97.5 41.002s30.5 62.666 30.5 105.999v77c0 40.667 -11.167 75.167 -33.5 103.5
s-54.5 42.5 -96.5 42.5s-74 -14.167 -96 -42.5s-33 -62.833 -33 -103.5v-77c0 -40.667 12 -75.334 36 -104.001s55.667 -43 95 -43zM370.001 800.002c-65.333 0 -121.502 13 -168.502 39s-83.167 61.5 -108.5 106.5s-38 96.167 -38 153.5v77
c0 57.333 12.5 108.666 37.5 153.999s60.833 81.166 107.5 107.499s102.667 39.5 168 39.5c66 0 122.333 -13.167 169 -39.5s82.334 -62.166 107.001 -107.499s37 -96.666 37 -153.999v-77c0 -57.333 -12.333 -108.5 -37 -153.5s-60.167 -80.5 -106.5 -106.5
s-102.166 -39 -167.499 -39zM369.999 954.002c40.667 0 72.167 14 94.5 42s33.5 62.333 33.5 103v77c0 40.667 -11.333 75.334 -34 104.001s-54.667 43 -96 43c-42 0 -74 -14.333 -96 -43s-33 -63.334 -33 -104.001v-77c0 -40.667 11.167 -75 33.5 -103s54.833 -42 97.5 -42
z" />
    <glyph glyph-name="ampersand" unicode="&#x26;" horiz-adv-x="1280" 
d="M527 -21c-96.667 0 -180.669 17.5 -252.002 52.5s-126.5 83.5 -165.5 145.5s-58.5 133.667 -58.5 215c0 76.667 20.5 143.167 61.5 199.5s103.167 113.833 186.5 172.5c3.33301 2 6.66602 4.16699 9.99902 6.5l9 6.5c-46.667 62.667 -81.5 119.5 -104.5 170.5
s-34.5 102.833 -34.5 155.5c0 76.667 16 143 48 199s77.333 99.167 136 129.5s127.334 45.5 206.001 45.5c70.667 0 132.834 -14.833 186.501 -44.5s95.667 -69.5 126 -119.5s45.5 -105.667 45.5 -167c0 -65.333 -16.5 -124.5 -49.5 -177.5s-79.167 -100.5 -138.5 -142.5
l-96 -69l289 -340c24 40.667 43 84.834 57 132.501s21 98.167 21 151.5h209c0 -90.667 -11.667 -174.334 -35 -251.001s-58.666 -145 -105.999 -205l203 -240l-2 -5h-304l-78 92c-56 -37.333 -114.5 -65.5 -175.5 -84.5s-125.833 -28.5 -194.5 -28.5zM538.998 188
c38 0 75.832 5.33105 113.499 15.998s73.834 26.334 108.501 47.001l-314 366l-23 -16c-39.333 -35.333 -66 -69.166 -80 -101.499s-21 -64.166 -21 -95.499c0 -62.667 19.5 -114.334 58.5 -155.001s91.5 -61 157.5 -61zM516.997 906.998l97.001 64.001
c37.333 24 62.666 49.167 75.999 75.5s20 55.166 20 86.499c0 35.333 -13.167 66.5 -39.5 93.5s-60.5 40.5 -102.5 40.5c-45.333 0 -80.333 -15.5 -105 -46.5s-37 -69.167 -37 -114.5c0 -30.667 7.5 -62 22.5 -94s37.833 -67 68.5 -105z" />
    <glyph glyph-name="quotesingle" unicode="'" horiz-adv-x="451" 
d="M145 1036v299v225h204v-248l-82 -276h-122z" />
    <glyph glyph-name="parenleft" unicode="(" horiz-adv-x="680" 
d="M589 -453c-62 28 -122.665 72.501 -181.998 133.501s-112.5 135.833 -159.5 224.5s-84.333 189.334 -112 302.001s-41.5 234.667 -41.5 366v19c0 130.667 13.833 252.334 41.5 365.001s65 213.5 112 302.5s100.167 163.833 159.5 224.5s120 105 182 133h6l50 -140
c-44 -33.333 -85 -76.833 -123 -130.5s-71.333 -117.334 -100 -191.001s-51.167 -157.334 -67.5 -251.001s-24.5 -197.167 -24.5 -310.5v-23c0 -114 8.16699 -217.833 24.5 -311.5s38.666 -177.334 66.999 -251.001s61.666 -137.667 99.999 -192s79.5 -98.833 123.5 -133.5
l-50 -136h-6z" />
    <glyph glyph-name="parenright" unicode=")" horiz-adv-x="700" 
d="M101 -453l-51.001 135.998c44 33.333 85 77 123 131s71.333 118 100 192s51.334 158.333 68.001 253s25 198.667 25 312v23c0 112.667 -8.5 215.834 -25.5 309.501s-40 177.834 -69 252.501s-62.5 139.334 -100.5 194.001s-78.333 98.667 -121 132l51 135h6
c63.333 -27.333 125 -72 185 -134s114.333 -138 163 -228s87.167 -191 115.5 -303s42.5 -232 42.5 -360v-19c0 -128.667 -14.167 -249.167 -42.5 -361.5s-66.833 -213.333 -115.5 -303s-103 -165.334 -163 -227.001s-121.667 -106.5 -185 -134.5h-6z" />
    <glyph glyph-name="asterisk" unicode="*" horiz-adv-x="923" 
d="M633 585l-176 289l-174 -280l-147 103l206 272l-301 89l55 172l297 -120l-16 346h182l-18 -352l291 118l55 -175l-305 -89l198 -266z" />
    <glyph glyph-name="plus" unicode="+" horiz-adv-x="1108" 
d="M424 146v423h-370v237h370v400h261v-400h367v-237h-367v-423h-261z" />
    <glyph glyph-name="comma" unicode="," horiz-adv-x="482" 
d="M188 -353l-137.001 77.999c26.667 46.667 47.334 94.834 62.001 144.501s22 104.5 22 164.5v205h248l-1 -193c0 -75.333 -18.5 -148.5 -55.5 -219.5s-83.167 -130.833 -138.5 -179.5z" />
    <glyph glyph-name="hyphen" unicode="-" horiz-adv-x="811" 
d="M136 516v210h548v-210h-548z" />
    <glyph glyph-name="period" unicode="." horiz-adv-x="516" 
d="M132 0v245h271v-245h-271z" />
    <glyph glyph-name="slash" unicode="/" horiz-adv-x="802" 
d="M-18 -125l602 1581h247l-602 -1581h-247z" />
    <glyph glyph-name="zero" unicode="0" horiz-adv-x="1169" 
d="M590 -21c-150 0 -268.832 49.8311 -356.499 149.498s-131.5 244.834 -131.5 435.501v327c0 190.667 43.667 336 131 436s205.666 150 354.999 150s267.833 -50 355.5 -150s131.5 -245.333 131.5 -436v-327c0 -191.333 -43.5 -336.666 -130.5 -435.999
s-205.167 -149 -354.5 -149zM590.001 187.998c70 0 123.167 27.833 159.5 83.5s54.5 143.167 54.5 262.5v389c0 118 -18.5 204.833 -55.5 260.5s-90.5 83.5 -160.5 83.5s-123.333 -27.833 -160 -83.5s-55 -142.5 -55 -260.5v-389c0 -119.333 18.5 -206.833 55.5 -262.5
s90.833 -83.5 161.5 -83.5z" />
    <glyph glyph-name="one" unicode="1" horiz-adv-x="892" 
d="M77 0v164l241 30v1008h-244v157l516 97v-1262l241 -30v-164h-754z" />
    <glyph glyph-name="two" unicode="2" horiz-adv-x="1135" 
d="M81 0l0.00195312 179l474 512c49.333 56 88.166 104.5 116.499 145.5s48.5 78.333 60.5 112s18 67.5 18 101.5c0 60.667 -17.5 111.834 -52.5 153.501s-85.833 62.5 -152.5 62.5c-70.667 0 -124.834 -22.667 -162.501 -68s-56.5 -108.333 -56.5 -189h-264l-2 6
c-2 86.667 16.667 165 56 235s96 125.333 170 166s161.667 61 263 61c98 0 182.333 -17.833 253 -53.5s125 -85 163 -148s57 -136.167 57 -219.5c0 -56.667 -10.333 -110.834 -31 -162.501s-52.667 -105.5 -96 -161.5s-98.333 -119.667 -165 -191l-303 -327l2 -5h406l15 144
h214v-353h-983z" />
    <glyph glyph-name="three" unicode="3" horiz-adv-x="1111" 
d="M549 -21c-92 0 -175.335 16.335 -250.002 49.002s-133.5 79.834 -176.5 141.501s-63.5 136.167 -61.5 223.5l2 6h263c0 -41.333 9 -77.833 27 -109.5s43.667 -56.5 77 -74.5s73 -27 119 -27c70.667 0 126.334 19.667 167.001 59s61 95 61 167
c0 72.667 -19.667 128.5 -59 167.5s-99.333 58.5 -180 58.5h-161v205h166c48.667 0 88.667 8.5 120 25.5s54.5 41.167 69.5 72.5s22.5 68.666 22.5 111.999c0 66.667 -17.5 118.667 -52.5 156s-86.167 56 -153.5 56c-40.667 0 -76.5 -8.16699 -107.5 -24.5
s-55.333 -39 -73 -68s-26.5 -63.167 -26.5 -102.5h-263l-2 6c-2 76 16.833 144.167 56.5 204.5s95.334 107.833 167.001 142.5s153.834 52 246.501 52c145.333 0 261.666 -35.833 348.999 -107.5s131 -173.5 131 -305.5c0 -66 -18.667 -126.833 -56 -182.5
s-93.333 -100.5 -168 -134.5c82 -28.667 143.5 -72.834 184.5 -132.501s61.5 -128.834 61.5 -207.501c0 -88.667 -21.5 -165 -64.5 -229s-102.167 -113.167 -177.5 -147.5s-161.333 -51.5 -258 -51.5z" />
    <glyph glyph-name="four" unicode="4" horiz-adv-x="1164" 
d="M505 0v164l157 30v151h-606l-12 137l613 974h276v-925h173v-186h-173v-151l157 -30v-164h-585zM304 531h358v559l-6 2l-23 -44z" />
    <glyph glyph-name="five" unicode="5" horiz-adv-x="1090" 
d="M542 -21c-86.667 0 -166.001 16.1699 -238.001 48.5029s-129 79 -171 140s-62 134.167 -60 219.5l2 5l259 11c0 -67.333 19.333 -120 58 -158s88.667 -57 150 -57c71.333 0 124.833 25.5 160.5 76.5s53.5 117.5 53.5 199.5c0 86 -18.5 155.333 -55.5 208
s-91.5 79 -163.5 79c-60 0 -105.333 -10.5 -136 -31.5s-52.667 -50.5 -66 -88.5l-239 17l84 808h824v-323h-173l-25 101h-401l-42 -351c18.667 14 39.5 26.167 62.5 36.5s48.167 18.833 75.5 25.5s56.333 10 87 10c92.667 1.33301 171.834 -17.334 237.501 -56.001
s115.667 -94.834 150 -168.501s51.5 -161.834 51.5 -264.501c0 -94 -18.667 -177.667 -56 -251s-92 -131 -164 -173s-160.333 -63 -265 -63z" />
    <glyph glyph-name="six" unicode="6" horiz-adv-x="1144" 
d="M612 -21c-100.667 0 -189.668 23.333 -267.001 70s-138 114.167 -182 202.5s-66 194.5 -66 318.5v243c0 141.333 24.5 261.333 73.5 360s116.833 174 203.5 226s186.334 78 299.001 78c53.333 0 103.5 -5.33301 150.5 -16s92.167 -25.667 135.5 -45l-48 -199
c-35.333 13.333 -72.166 24.5 -110.499 33.5s-78.833 13.5 -121.5 13.5c-97.333 0 -171.833 -33.167 -223.5 -99.5s-78.5 -164.5 -80.5 -294.5l4 -5c33.333 34 75.5 60.833 126.5 80.5s107.167 29.5 168.5 29.5c87.333 0 162.5 -21 225.5 -63s111.333 -99.833 145 -173.5
s50.5 -157.5 50.5 -251.5c0 -98.667 -20.333 -186.167 -61 -262.5s-97.334 -136.333 -170.001 -180s-156.667 -65.5 -252 -65.5zM606.999 188c44.667 0 83.001 13.332 115.001 39.999s56.833 63 74.5 109s26.5 97 26.5 153c0 82 -20.167 149 -60.5 201s-97.5 78 -171.5 78
c-32.667 0 -63.334 -4.33301 -92.001 -13s-54 -21 -76 -37s-40.333 -35 -55 -57v-102c0 -119.333 22.333 -211.166 67 -275.499s102 -96.5 172 -96.5z" />
    <glyph glyph-name="seven" unicode="7" horiz-adv-x="1111" 
d="M336 0l14.001 150.001c16 145.333 43.5 281.666 82.5 408.999s90 248 153 362s138.5 222.333 226.5 325h-533l-12 -149h-212v359h1019v-210c-80 -94 -146.333 -183.167 -199 -267.5s-95.334 -168.833 -128.001 -253.5s-58.5 -173.5 -77.5 -266.5
s-34.833 -195.833 -47.5 -308.5l-14 -150h-272z" />
    <glyph glyph-name="eight" unicode="8" horiz-adv-x="1118" 
d="M565 -21c-98 0 -184 16 -258 48s-131.667 79.167 -173 141.5s-62 138.5 -62 228.5c0 80 22.833 150.333 68.5 211s107.834 107 186.501 139c-69.333 30 -123.333 73.167 -162 129.5s-58 121.166 -58 194.499c0 86.667 19 160.167 57 220.5s91.167 106.333 159.5 138
s148.166 47.5 239.499 47.5c90.667 0 170.334 -15.833 239.001 -47.5s122.167 -77.667 160.5 -138s57.5 -133.833 57.5 -220.5c0 -73.333 -19.667 -138.166 -59 -194.499s-93.333 -99.5 -162 -129.5c78.667 -32 141 -78.5 187 -139.5s69 -131.167 69 -210.5
c0 -90 -20.667 -166.167 -62 -228.5s-98.833 -109.5 -172.5 -141.5s-158.834 -48 -255.501 -48zM565 188c43.333 0 81.5 9.16602 114.5 27.499s58.667 44.333 77 78s27.5 73.834 27.5 120.501c0 45.333 -9.5 85.166 -28.5 119.499s-45.167 61 -78.5 80
s-71.333 28.5 -114 28.5c-43.333 0 -81.5 -9.5 -114.5 -28.5s-58.667 -45.667 -77 -80s-27.5 -74.166 -27.5 -119.499c0 -70 20 -125.167 60 -165.5s93.667 -60.5 161 -60.5zM565 851.999c36.667 0 68.834 8.66602 96.501 25.999s49 41.5 64 72.5s22.5 67.5 22.5 109.5
c0 41.333 -7.66699 77.5 -23 108.5s-36.833 55.167 -64.5 72.5s-60.167 26 -97.5 26c-56.667 0 -101.334 -18.667 -134.001 -56s-49 -87.666 -49 -150.999s16.333 -113.833 49 -151.5s78 -56.5 136 -56.5z" />
    <glyph glyph-name="nine" unicode="9" horiz-adv-x="1144" 
d="M503 -21c-50.667 0 -102.833 4.99902 -156.5 14.999s-102.834 25 -147.501 45l33 199c41.333 -16.667 84 -29.167 128 -37.5s88.333 -12.5 133 -12.5c87.333 0 156 30.5 206 91.5s75.667 156.833 77 287.5l-2 19c-32 -42.667 -71 -75 -117 -97s-97 -33 -153 -33
c-88 0 -164.667 19.833 -230 59.5s-116.166 97 -152.499 172s-54.5 164.833 -54.5 269.5c0 99.333 21 188.166 63 266.499s99.333 140.166 172 185.499s155 68 247 68c99.333 0 186.5 -22.667 261.5 -68s133.167 -111.166 174.5 -197.499s62 -191.5 62 -315.5v-304
c0 -131.333 -23 -242.666 -69 -333.999s-109.833 -160.666 -191.5 -207.999s-176.167 -71 -283.5 -71zM554.001 656.999c50.667 0 95.001 10.501 133.001 31.501s67.667 48.833 89 83.5v156c0 111.333 -19.833 195.666 -59.5 252.999s-94.834 86 -165.501 86
c-41.333 0 -77.833 -13.667 -109.5 -41s-56.667 -64.5 -75 -111.5s-27.5 -99.5 -27.5 -157.5c0 -60.667 8.16699 -113.5 24.5 -158.5s40.5 -79.833 72.5 -104.5s71.333 -37 118 -37z" />
    <glyph glyph-name="colon" unicode=":" horiz-adv-x="447" 
d="M102 0v245h271v-245h-271zM102 837v245h271v-245h-271z" />
    <glyph glyph-name="semicolon" unicode=";" horiz-adv-x="447" 
d="M101 837v245h271v-245h-271zM171 -353l-137.001 77.999c26.667 46.667 47.334 94.834 62.001 144.501s22 104.5 22 164.5v205h248l-1 -193c0 -75.333 -18.5 -148.5 -55.5 -219.5s-83.167 -130.833 -138.5 -179.5z" />
    <glyph glyph-name="less" unicode="&#x3c;" horiz-adv-x="1013" 
d="M913 77l-851 370v210l851 369v-257l-529 -203l-61 -14v-6l61 -14l529 -198v-257z" />
    <glyph glyph-name="equal" unicode="=" horiz-adv-x="1124" 
d="M128 776v215h883v-215h-883zM128 348v215h883v-215h-883z" />
    <glyph glyph-name="greater" unicode="&#x3e;" horiz-adv-x="1037" 
d="M108 66v254l540 205l66 14v6l-66 17l-540 199v253l868 -368v-211z" />
    <glyph glyph-name="question" unicode="?" horiz-adv-x="979" 
d="M339 413c0 48.667 2.66797 89.334 8.00098 122.001s14.5 61.334 27.5 86.001s31.5 49.167 55.5 73.5s55.333 52.166 94 83.499c37.333 31.333 67.833 62.666 91.5 93.999s41.334 63.333 53.001 96s17.5 66 17.5 100c0 60.667 -16.5 107.667 -49.5 141s-79.5 50 -139.5 50
c-50.667 0 -94 -14 -130 -42s-54 -70 -54 -126h-264l-2 6c-1.33301 79.333 17 147.5 55 204.5s91 100.5 159 130.5s146.333 45 235 45c145.333 0 258.666 -35.833 339.999 -107.5s122 -169.5 122 -293.5c0 -58 -10.833 -111.5 -32.5 -160.5s-51.834 -95.667 -90.501 -140
s-84.334 -89.833 -137.001 -136.5c-25.333 -22 -44.166 -43 -56.499 -63s-20.5 -42.5 -24.5 -67.5s-6 -56.833 -6 -95.5h-272zM338.001 0v246h274v-246h-274z" />
    <glyph glyph-name="at" unicode="@" horiz-adv-x="1809" 
d="M872 -453c-174 0 -322.166 37.6699 -444.499 113.003s-214.333 182.5 -276 321.5s-88.5 304.5 -80.5 496.5c8 189.333 48.833 354.833 122.5 496.5s174.667 251.5 303 329.5s278.166 117 449.499 117c170 0 314.5 -36.667 433.5 -110s208.167 -177.5 267.5 -312.5
s85.333 -295.167 78 -480.5c-4 -98.667 -23.667 -188.834 -59 -270.501s-86.666 -146.834 -153.999 -195.501s-150.333 -73 -249 -73c-58.667 0 -107.334 14.5 -146.001 43.5s-66 69.5 -82 121.5c-60.667 -108.667 -150.334 -163 -269.001 -163
c-91.333 0 -161.833 40.167 -211.5 120.5s-67.834 187.166 -54.501 320.499c10.667 111.333 34.5 208.833 71.5 292.5s86.667 148.667 149 195s136.833 69.5 223.5 69.5c63.333 0 118 -8.5 164 -25.5s97.333 -43.833 154 -80.5l2 -4l-51 -576
c-3.33301 -43.333 -1.83301 -77.5 4.5 -102.5s16.833 -42.667 31.5 -53s32.334 -15.5 53.001 -15.5c72 0 131 37 177 111s71.667 169 77 285c10.667 236.667 -35.666 421.667 -138.999 555s-261.666 200 -474.999 200c-135.333 0 -253 -32.833 -353 -98.5
s-178.5 -158 -235.5 -277s-88.833 -258.833 -95.5 -419.5c-8 -160 11.333 -297.833 58 -413.5s117.667 -204.834 213 -267.501s211 -94 347 -94c57.333 0 116.166 6.83301 176.499 20.5s111.833 30.834 154.5 51.501l38 -139c-44.667 -28 -101.5 -49.833 -170.5 -65.5
s-136.5 -23.5 -202.5 -23.5zM836.001 151.003c34.667 0 67.499 8.83301 98.499 26.5s59.167 49.167 84.5 94.5c0 5.33301 0.333008 11.166 1 17.499s1.33398 14.833 2.00098 25.5l43 479c-15.333 6.66699 -31.166 11.834 -47.499 15.501s-33.5 5.5 -51.5 5.5
c-75.333 0 -133 -33 -173 -99s-66 -166 -78 -300c-7.33301 -86.667 -0.833008 -152.5 19.5 -197.5s54.166 -67.5 101.499 -67.5z" />
    <glyph glyph-name="A" unicode="A" horiz-adv-x="1516" 
d="M47 0v164l105 15l473 1277h271l469 -1277l104 -15v-164h-479v164l103 19l-71 214h-527l-71 -214l102 -19v-164h-479zM562 602h393l-179 518l-14 42h-6l-15 -44z" />
    <glyph glyph-name="B" unicode="B" horiz-adv-x="1340" 
d="M61 0l0.000976562 164.003l157 30v1067l-157 30v165h157h486c167.333 0 298 -33.167 392 -99.5s141 -165.833 141 -298.5c0 -66.667 -18.5 -126.334 -55.5 -179.001s-89.167 -92 -156.5 -118c58 -12.667 106.667 -35.334 146 -68.001s69.166 -72.334 89.499 -119.001
s30.5 -97.667 30.5 -153c0 -138 -45.5 -242.667 -136.5 -314s-218.5 -107 -382.5 -107h-711zM490.001 209.003l282 0.000976562c80 0 141.167 18 183.5 54s63.5 88.667 63.5 158c0 49.333 -7.83301 91.166 -23.5 125.499s-40 60.5 -73 78.5s-75.167 27 -126.5 27h-306v-443z
M490.001 844.004h233c76.667 0 136.167 17 178.5 51s63.5 82.667 63.5 146c0 70 -22 121.667 -66 155s-109 50 -195 50h-214v-402z" />
    <glyph glyph-name="C" unicode="C" horiz-adv-x="1314" 
d="M747 -21c-142.667 0 -265.5 30.002 -368.5 90.002s-182.167 144.5 -237.5 253.5s-83 236.833 -83 383.5v43c0 141.333 27 266.666 81 375.999s131.333 195.333 232 258s220.667 94 360 94c98 0 189.333 -14.167 274 -42.5s159.334 -69.833 224.001 -124.5v-344h-205
l-28 223c-22 16 -46.167 29.667 -72.5 41s-55 20 -86 26s-64.5 9 -100.5 9c-85.333 0 -158.333 -21.167 -219 -63.5s-107.167 -101.833 -139.5 -178.5s-48.5 -167.334 -48.5 -272.001v-45c0 -106 17 -197.667 51 -275s82.5 -136.833 145.5 -178.5s138.167 -62.5 225.5 -62.5
c43.333 0 86.333 4.83301 129 14.5s80.667 22.5 114 38.5l29 205h203v-341c-56 -36.667 -125.333 -67.167 -208 -91.5s-173.334 -36.5 -272.001 -36.5z" />
    <glyph glyph-name="D" unicode="D" horiz-adv-x="1412" 
d="M61 0l0.000976562 163.999l158 33v1061l-158 33v165h158h467c130 0 244.167 -30.667 342.5 -92s175.166 -145.666 230.499 -252.999s83 -230.666 83 -369.999v-27c0 -137.333 -27.167 -259.833 -81.5 -367.5s-130.333 -192.334 -228 -254.001s-211.5 -92.5 -341.5 -92.5
h-630zM491.001 208.999h186c83.333 0 154 22 212 66s102.5 104 133.5 180s46.5 162.333 46.5 259v29c0 98 -15.5 184.833 -46.5 260.5s-75.5 135 -133.5 178s-128.667 64.5 -212 64.5h-186v-1037z" />
    <glyph glyph-name="E" unicode="E" horiz-adv-x="1307" 
d="M61 0v164l157 30v1067l-157 30v165h1119v-384h-210l-15 175h-465v-389h502v-211h-502v-439h491l15 179h208v-387h-1143z" />
    <glyph glyph-name="F" unicode="F" horiz-adv-x="1263" 
d="M61 0v164l157 30v1067l-157 30v165h1146v-388h-210l-15 178h-492v-423h515v-210h-515v-419l157 -30v-164h-586z" />
    <glyph glyph-name="G" unicode="G" horiz-adv-x="1367" 
d="M734 -21c-142.667 0 -264.668 30.3369 -366.001 91.0039s-179 144.667 -233 252s-81 232 -81 374v44c0 146 27 274.167 81 384.5s129.833 196.666 227.5 258.999s212.5 93.5 344.5 93.5c106.667 0 204.5 -14 293.5 -42s166.5 -69.333 232.5 -124v-317h-205l-37 199
c-27.333 22 -63.333 39.5 -108 52.5s-96.334 19.5 -155.001 19.5c-81.333 0 -152.333 -21.833 -213 -65.5s-107.5 -104.834 -140.5 -183.501s-49.5 -170 -49.5 -274v-46c0 -102.667 16.167 -191.834 48.5 -267.501s79.333 -134.334 141 -176.001s137.167 -62.5 226.5 -62.5
c54.667 0 103.834 5 147.501 15s80.167 22.333 109.5 37v267l-223 15v193h496v-584c-60 -44.667 -134.167 -81.5 -222.5 -110.5s-193.166 -43.5 -314.499 -43.5z" />
    <glyph glyph-name="H" unicode="H" horiz-adv-x="1595" 
d="M61 0v164l157 30v1067l-157 30v165h586v-165l-157 -30v-438h615v438l-157 30v165h157h272h157v-165l-157 -30v-1067l157 -30v-164h-586v164l157 30v419h-615v-419l157 -30v-164h-586z" />
    <glyph glyph-name="I" unicode="I" horiz-adv-x="708" 
d="M61 0v164l157 30v1067l-157 30v165h586v-165l-157 -30v-1067l157 -30v-164h-586z" />
    <glyph glyph-name="J" unicode="J" horiz-adv-x="1195" 
d="M542 -21c-96.667 0 -182.002 16.999 -256.002 50.999s-132.5 85.667 -175.5 155s-66.5 157 -70.5 263l2 6h256c4.66699 -96 26.167 -163.667 64.5 -203s90.5 -59 156.5 -59c42.667 0 79.834 9.33301 111.501 28s56.334 45.834 74.001 81.501s26.5 79.167 26.5 130.5v829
l-196 29v166h624v-165l-157 -30v-829c0 -92 -17.833 -172 -53.5 -240s-87.5 -120.5 -155.5 -157.5s-151.667 -55.5 -251 -55.5z" />
    <glyph glyph-name="K" unicode="K" horiz-adv-x="1536" 
d="M439 370l-141 163l708 741l2 4l-136 13v165h571v-165l-137 -27zM61 0v164l157 30v1067l-157 30v165h580v-165l-151 -30v-1067l151 -30v-164h-580zM904 0v164l133 13v1l-377 520l176 185l518 -694l141 -25v-164h-591z" />
    <glyph glyph-name="L" unicode="L" horiz-adv-x="1202" 
d="M61 0v164l157 30v1067l-157 30v165h157h272h173v-165l-173 -30v-1053h433l16 217h208v-425h-1086z" />
    <glyph glyph-name="M" unicode="M" horiz-adv-x="2048" 
d="M64 0v164l156 30v1067l-156 30v165h156h397l412 -1034h6l399 1034h556v-165l-157 -30v-1067l157 -30v-164h-586v164l165 30v309l4 647l-5 1l-444 -1124h-201l-455 1117l-6 -1l16 -616v-333l172 -30v-164h-586z" />
    <glyph glyph-name="N" unicode="N" horiz-adv-x="1601" 
d="M62 0v164l156 30v1067l-156 30v165h156h276l651 -1036l6 1v840l-185 30v165h429h157v-165l-157 -30v-1261h-261l-665 1029l-6 -1v-834l185 -30v-164h-586z" />
    <glyph glyph-name="O" unicode="O" horiz-adv-x="1426" 
d="M713 -21c-97.333 0 -185.666 18.167 -264.999 54.5s-147.5 87.666 -204.5 153.999s-100.833 144.333 -131.5 234s-46 188.167 -46 295.5v22c0 106.667 15.333 204.834 46 294.501s74.5 167.667 131.5 234s125 117.833 204 154.5s167.167 55 264.5 55
c99.333 0 188.833 -18.333 268.5 -55s148.167 -88.167 205.5 -154.5s101.166 -144.333 131.499 -234s45.5 -187.834 45.5 -294.501v-22c0 -107.333 -15.167 -205.833 -45.5 -295.5s-74 -167.667 -131 -234s-125.5 -117.666 -205.5 -153.999s-169.333 -54.5 -268 -54.5z
M713 193c85.333 0 155.998 21.8311 211.998 65.498s97.833 104.834 125.5 183.501s41.5 170.334 41.5 275.001v24c0 103.333 -14 194 -42 272s-70.167 139 -126.5 183s-126.833 66 -211.5 66c-82.667 0 -151.667 -21.833 -207 -65.5s-96.833 -104.5 -124.5 -182.5
s-41.5 -169 -41.5 -273v-24c0 -104 13.833 -195.5 41.5 -274.5s69.334 -140.333 125.001 -184s124.834 -65.5 207.501 -65.5z" />
    <glyph glyph-name="P" unicode="P" horiz-adv-x="1319" 
d="M61 0v164l157 30v1067l-157 30v165h157h531c110 0 204.5 -19.167 283.5 -57.5s139.833 -92 182.5 -161s64 -149.167 64 -240.5c0 -92 -21.333 -172.167 -64 -240.5s-103.5 -121.5 -182.5 -159.5s-173.5 -57 -283.5 -57h-259v-346l157 -30v-164h-586zM490 750h259
c85.333 0 149.666 23 192.999 69s65 104.667 65 176c0 72 -21.667 131.833 -65 179.5s-107.666 71.5 -192.999 71.5h-259v-496z" />
    <glyph glyph-name="Q" unicode="Q" horiz-adv-x="1433" 
d="M1281 -273l-397.999 273.001c-28 -6 -56 -11 -84 -15s-56.333 -6 -85 -6c-96.667 0 -184.834 18.167 -264.501 54.5s-148 87.666 -205 153.999s-100.667 144.333 -131 234s-45.5 188.167 -45.5 295.5v22c0 106.667 15.167 204.834 45.5 294.501
s73.833 167.834 130.5 234.501s124.834 118.167 204.501 154.5s167.834 54.5 264.501 54.5c98.667 0 188 -18.167 268 -54.5s148.667 -87.833 206 -154.5s101.166 -144.834 131.499 -234.501s45.5 -187.834 45.5 -294.501v-22c0 -127.333 -21.333 -243.5 -64 -348.5
s-105.334 -190.5 -188.001 -256.5l306 -195zM714.001 193.001c85.333 0 156 21.8311 212 65.498s97.833 104.834 125.5 183.501s41.5 170.334 41.5 275.001v24c0 103.333 -14 194 -42 272s-70 139 -126 183s-126.667 66 -212 66c-82.667 0 -151.667 -21.833 -207 -65.5
s-96.833 -104.5 -124.5 -182.5s-41.5 -169 -41.5 -273v-24c0 -104 13.833 -195.5 41.5 -274.5s69.5 -140.333 125.5 -184s125 -65.5 207 -65.5z" />
    <glyph glyph-name="R" unicode="R" horiz-adv-x="1403" 
d="M61 0l-0.000976562 163.999l157 30v1067l-157 30v165h682c110 0 204.5 -17 283.5 -51s139.333 -83 181 -147s62.5 -140.667 62.5 -230c0 -85.333 -20.667 -160.666 -62 -225.999s-99.166 -116.5 -173.499 -153.5s-160.5 -55.833 -258.5 -56.5l-286 -1v-397l157 -30v-164
h-586zM1003 -0.000976562l-262 650l250 51l224 -509l119 -26v-166h-331zM489.999 800.999l244 0.000976562c90 0 156.667 18.5 200 55.5s65 90.833 65 161.5c0 69.333 -21.333 124.666 -64 165.999s-106.667 62 -192 62h-253v-445z" />
    <glyph glyph-name="S" unicode="S" horiz-adv-x="1238" 
d="M641 -21c-103.333 0 -198.498 12.167 -285.498 36.5s-171.833 65.5 -254.5 123.5v344h210l32 -212c32.667 -25.333 75.167 -45.666 127.5 -60.999s109.166 -23 170.499 -23c56 0 103.167 7.83301 141.5 23.5s67.5 38 87.5 67s30 62.833 30 101.5
c0 37.333 -9 70.166 -27 98.499s-47.5 54 -88.5 77s-96.5 44.833 -166.5 65.5c-112 31.333 -205.333 67 -280 107s-130.5 88.167 -167.5 144.5s-55.5 123.5 -55.5 201.5s21.5 147.167 64.5 207.5s102.667 107.833 179 142.5s164.166 52.334 263.499 53.001
c110.667 1.33301 208.334 -12.334 293.001 -41.001s157 -67.334 217 -116.001v-320h-205l-37 201c-26.667 18 -61.667 33.333 -105 46s-93.333 19 -150 19c-48.667 0 -91.667 -7.5 -129 -22.5s-66.666 -36.833 -87.999 -65.5s-32 -63 -32 -103c0 -34.667 9.33301 -65 28 -91
s50 -50 94 -72s103.667 -44.667 179 -68c159.333 -43.333 280.166 -101.833 362.499 -175.5s123.5 -169.167 123.5 -286.5c0 -81.333 -22.167 -152.166 -66.5 -212.499s-106.333 -107 -186 -140s-172.834 -49.5 -279.501 -49.5z" />
    <glyph glyph-name="T" unicode="T" horiz-adv-x="1393" 
d="M402 0v164l157 30v1053h-279l-19 -180h-205v389h1280v-389h-206l-19 180h-280v-1053l158 -30v-164h-587z" />
    <glyph glyph-name="U" unicode="U" horiz-adv-x="1548" 
d="M772 -21c-112.667 0 -211.833 19.832 -297.5 59.499s-152.5 97.334 -200.5 173.001s-72 167.167 -72 274.5v775l-156 30v165h585v-165l-157 -30v-775c0 -66 12.167 -121 36.5 -165s58.833 -77 103.5 -99s97.334 -33 158.001 -33c62 0 115.667 10.833 161 32.5
s80.166 54.5 104.499 98.5s36.5 99.333 36.5 166v775l-157 30v165h586v-165l-157 -30v-775c0 -108 -24 -199.833 -72 -275.5s-115 -133.167 -201 -172.5s-186.333 -59 -301 -59z" />
    <glyph glyph-name="V" unicode="V" horiz-adv-x="1529" 
d="M640 0l-473 1275l-126 16v165h554v-165l-132 -21l294 -873l25 -87h6l25 85l296 876l-152 20v165h533v-165l-129 -16l-449 -1275h-272z" />
    <glyph glyph-name="W" unicode="W" horiz-adv-x="2186" 
d="M524 0l-338 1276l-144 15v165h562v-165l-156 -23l175 -728l34 -142l6 -1l41 143l289 916h207l298 -936l39 -133h6l35 133l179 748l-164 23v165h551v-165l-134 -15l-338 -1276h-249l-284 884l-36 126h-6l-39 -129l-287 -881h-247z" />
    <glyph glyph-name="X" unicode="X" horiz-adv-x="1517" 
d="M45 0v164l127 24l420 537l-394 541l-120 25v165h548v-165l-138 -13l265 -372l262 372l-137 13v165h543v-165l-130 -25l-377 -521l422 -556l136 -25v-164h-560v164l128 13l-286 392l-290 -392l125 -13v-164h-544z" />
    <glyph glyph-name="Y" unicode="Y" horiz-adv-x="1498" 
d="M456 0v164l157 30v312l-435 765l-136 20v165h564v-165l-129 -18l256 -488l22 -45l5 1l22 43l280 489l-162 18v165h553v-165l-140 -20l-429 -744v-333l158 -30v-164h-586z" />
    <glyph glyph-name="Z" unicode="Z" horiz-adv-x="1220" 
d="M77 0v183l720 1063h-469l-22 -187h-209l9 397h1023v-177l-723 -1070h530l23 190h208l-14 -399h-1076z" />
    <glyph glyph-name="bracketleft" unicode="[" horiz-adv-x="592" 
d="M143 -331v2016h422v-203h-150v-1610h150v-203h-422z" />
    <glyph glyph-name="backslash" unicode="\" horiz-adv-x="851" 
d="M625 -125l-608 1581h266l608 -1581h-266z" />
    <glyph glyph-name="bracketright" unicode="]" horiz-adv-x="573" 
d="M22 -331v203h152v1610h-152v203h423v-2016h-423z" />
    <glyph glyph-name="asciicircum" unicode="^" horiz-adv-x="880" 
d="M51 729l299 727h195l299 -727h-221l-165 414l-10 42h-6l-8 -42l-163 -414h-220z" />
    <glyph glyph-name="underscore" unicode="_" horiz-adv-x="1110" 
d="M98 -179v179h912v-179h-912z" />
    <glyph glyph-name="grave" unicode="`" horiz-adv-x="570" 
d="M530 1288h-8h-208l-274 266l2 6h292z" />
    <glyph glyph-name="a" unicode="a" horiz-adv-x="1149" 
d="M425 -21c-108.667 0 -194.169 28.5 -256.502 85.5s-93.5 135.167 -93.5 234.5c0 68 18.5 127.833 55.5 179.5s91.667 92 164 121s160.5 43.5 264.5 43.5h154v85c0 54.667 -16.167 98.667 -48.5 132s-79.833 50 -142.5 50c-34 0 -64.5 -4.16699 -91.5 -12.5
s-51.167 -20.166 -72.5 -35.499l-23 -145h-198l-2 274c54.667 33.333 114.834 60.166 180.501 80.499s138.834 30.5 219.501 30.5c139.333 0 249.166 -32.5 329.499 -97.5s120.5 -158.167 120.5 -279.5v-461c0 -14.667 0.166992 -29 0.5 -43s1.5 -27.667 3.5 -41l111 -16
v-164h-345c-7.33301 20.667 -14.166 41.834 -20.499 63.501s-10.833 43.5 -13.5 65.5c-35.333 -44.667 -77.5 -80.834 -126.5 -108.501s-105.5 -41.5 -169.5 -41.5zM491.998 184c46 0 89.167 10.667 129.5 32s70.833 48.333 91.5 81v176h-155
c-70 0 -122.833 -16.167 -158.5 -48.5s-53.5 -70.5 -53.5 -114.5c0 -40 12.667 -71 38 -93s61.333 -33 108 -33z" />
    <glyph glyph-name="b" unicode="b" horiz-adv-x="1173" 
d="M686 -21c-67.333 0 -125.165 13.168 -173.498 39.501s-88.833 64.833 -121.5 115.5l-20 -134h-235v1365l-157 30v165h428v-596c32 44.667 71.333 78.834 118 102.501s101 35.5 163 35.5c88 0 162.667 -23.667 224 -71s108.166 -113.833 140.499 -199.5
s48.5 -186.167 48.5 -301.5v-21c0 -106.667 -16.167 -199.834 -48.5 -279.501s-79.333 -141.334 -141 -185.001s-136.834 -65.5 -225.501 -65.5zM606.001 192.001c78.667 0 135.668 27.834 171.001 83.501s53 133.5 53 233.5v21c0 73.333 -7.83301 136.666 -23.5 189.999
s-39.834 94.833 -72.501 124.5s-74.667 44.5 -126 44.5c-47.333 0 -87.666 -11.333 -120.999 -34s-60 -53 -80 -91v-457c21.333 -36.667 48.666 -65 81.999 -85s72.333 -30 117 -30z" />
    <glyph glyph-name="c" unicode="c" horiz-adv-x="1079" 
d="M570 -21c-102.667 0 -191.5 23.1689 -266.5 69.502s-132.833 110.5 -173.5 192.5s-61 176.333 -61 283v33c0 105.333 20.5 199 61.5 281s98.833 146.5 173.5 193.5s162.667 70.5 264 70.5c95.333 0 177.833 -15 247.5 -45s126.167 -66 169.5 -108v-300h-206l-38 193
c-17.333 17.333 -39.333 31.333 -66 42s-55 16 -85 16c-54 0 -99.5 -14.167 -136.5 -42.5s-65 -68 -84 -119s-28.5 -111.5 -28.5 -181.5v-33c0 -75.333 10 -137.833 30 -187.5s47.5 -86.834 82.5 -111.501s74.167 -37 117.5 -37c54.667 0 99 14.5 133 43.5
s56.667 69.833 68 122.5h233l3 -6c-9.33301 -73.333 -30.833 -137.833 -64.5 -193.5s-81 -98.834 -142 -129.501s-138.167 -46 -231.5 -46z" />
    <glyph glyph-name="d" unicode="d" horiz-adv-x="1213" 
d="M483 -21c-86 0 -159.999 22 -221.999 66s-109.5 105.833 -142.5 185.5s-49.5 172.5 -49.5 278.5v21c0 114 16.5 214 49.5 300s80.5 152.833 142.5 200.5s135.667 71.5 221 71.5c61.333 0 114.666 -11.833 159.999 -35.5s84.333 -57.5 117 -101.5v400l-157 30v165h157h272
v-1366l145 -30v-164h-380l-21 131c-34 -50 -75 -87.833 -123 -113.5s-104.333 -38.5 -169 -38.5zM562.001 192c44.667 0 83.334 9.66602 116.001 28.999s59.667 47 81 83v468c-20.667 36.667 -47.334 65.334 -80.001 86.001s-71 31 -115 31
c-51.333 0 -93.5 -15.167 -126.5 -45.5s-57.333 -72.333 -73 -126s-23.5 -116.167 -23.5 -187.5v-21c0 -98 17.333 -175.333 52 -232s91 -85 169 -85z" />
    <glyph glyph-name="e" unicode="e" horiz-adv-x="1074" 
d="M578 -21c-102.667 0 -192.167 22.832 -268.5 68.499s-135.5 108.667 -177.5 189s-63 172.166 -63 275.499v41c0 106 20.167 200.5 60.5 283.5s96.833 148 169.5 195s156.667 70.5 252 70.5c98 0 180.333 -19.5 247 -58.5s117 -94.833 151 -167.5s51 -160 51 -262v-151
h-649l-2 -6c2.66699 -52 14.334 -98.167 35.001 -138.5s49.667 -72.166 87 -95.499s82.666 -35 135.999 -35c56.667 0 108.5 7.33301 155.5 22s91.833 36.334 134.5 65.001l78 -169c-43.333 -36 -98.333 -66.167 -165 -90.5s-144 -36.5 -232 -36.5zM354 647.999
l390.001 -0.000976562v26c0 45.333 -6.66699 84.833 -20 118.5s-33.833 59.834 -61.5 78.501s-63.5 28 -107.5 28c-40 0 -74.333 -10.833 -103 -32.5s-51.334 -51 -68.001 -88s-27.667 -78.833 -33 -125.5z" />
    <glyph glyph-name="f" unicode="f" horiz-adv-x="783" 
d="M77 0l0.00195312 164.002l146 30v695h-163v193h163v123c0 120.667 33.833 213.5 101.5 278.5s162.5 97.5 284.5 97.5c28.667 0 59.5 -2.33301 92.5 -7s62.167 -10.334 87.5 -17.001l-25 -203c-14.667 4 -32.334 7.16699 -53.001 9.5s-41.334 3.5 -62.001 3.5
c-52 0 -90.667 -13.833 -116 -41.5s-38 -67.834 -38 -120.501v-123h243v-193h-243v-695l190 -30v-164h-608z" />
    <glyph glyph-name="g" unicode="g" horiz-adv-x="1190" 
d="M542 -437c-54 0 -114.33 7.16895 -180.997 21.502s-125.334 34.166 -176.001 59.499l54 196c44.667 -20 92.834 -35.833 144.501 -47.5s100.167 -17.5 145.5 -17.5c80.667 0 139.667 22.333 177 67s56 107 56 187v78c-32.667 -41.333 -71.334 -73 -116.001 -95
s-96 -33 -154 -33c-88 0 -163.667 22 -227 66s-111.833 105.833 -145.5 185.5s-50.5 172.5 -50.5 278.5v21c0 114 16.833 214 50.5 300s81.667 152.833 144 200.5s137.166 71.5 224.499 71.5c65.333 0 121.833 -13.5 169.5 -40.5s88.167 -65.5 121.5 -115.5l20 136h236
v-1054c0 -94.667 -19.667 -176.834 -59 -246.501s-95.833 -123.5 -169.5 -161.5s-161.834 -57 -264.501 -57zM568.003 192.002c44.667 0 83.001 9.33203 115.001 27.999s58.333 45.334 79 80.001v476c-20 35.333 -46.333 63 -79 83s-70.667 30 -114 30
c-52.667 0 -95.834 -15.167 -129.501 -45.5s-58.5 -72.333 -74.5 -126s-24 -116.167 -24 -187.5v-21c0 -98 17.833 -175.333 53.5 -232s93.5 -85 173.5 -85zM999.004 882.001l-116 200h280v-165z" />
    <glyph glyph-name="h" unicode="h" horiz-adv-x="1305" 
d="M48 0l0.000976562 163.999l145 30v1171l-158 30v165h429v-617c34.667 50 77.5 89 128.5 117s108.833 42 173.5 42c110.667 0 197.834 -35.833 261.501 -107.5s95.5 -182.5 95.5 -332.5v-468l145 -30v-164h-551v164l134 30v470c0 80.667 -15.667 138.334 -47 173.001
s-77.333 52 -138 52c-42.667 0 -81.334 -9.16699 -116.001 -27.5s-63.334 -44.5 -86.001 -78.5v-589l134 -30v-164h-550z" />
    <glyph glyph-name="i" unicode="i" horiz-adv-x="659" 
d="M57 0v164l145 30v693l-157 30v165h429v-888l145 -30v-164h-562zM192 1319v241h282v-241h-282z" />
    <glyph glyph-name="j" unicode="j" horiz-adv-x="584" 
d="M95 -437c-26 0 -49.6689 1.33301 -71.002 4s-43.333 7 -66 13l14 206c13.333 -3.33301 28.833 -6.33301 46.5 -9s34.834 -4 51.501 -4c38.667 0 68.834 15.5 90.501 46.5s32.5 74.167 32.5 129.5v938l-158 30v165h429v-1133c0 -123.333 -32.5 -218.5 -97.5 -285.5
s-155.5 -100.5 -271.5 -100.5zM179.998 1319v241h282v-241h-282z" />
    <glyph glyph-name="k" unicode="k" horiz-adv-x="1310" 
d="M50 0v164l146 30v1171l-157 30v165h428v-1366l134 -30v-164h-551zM740 0v158l89 18l-2 4l-236 314l169 184l372 -484l139 -30v-164h-531zM440 299l-126 162l470 438l3 4l-112 15v164h542v-165l-139 -34z" />
    <glyph glyph-name="l" unicode="l" horiz-adv-x="653" 
d="M50 0v164l146 30v1171l-157 30v165h429v-1366l146 -30v-164h-564z" />
    <glyph glyph-name="m" unicode="m" horiz-adv-x="1930" 
d="M56 0l-0.000976562 164l146 30v693l-157 30v165h408l12 -142c35.333 51.333 79.333 91.166 132 119.499s113.667 42.5 183 42.5c70 0 130 -15.667 180 -47s87.667 -78.333 113 -141c33.333 58.667 77 104.667 131 138s117 50 189 50c108 0 193 -36.667 255 -110
s93 -184.666 93 -333.999v-464l146 -30v-164h-552v164l134 30v465c0 86 -14.167 145.833 -42.5 179.5s-70.166 50.5 -125.499 50.5c-50 0 -91.667 -15.333 -125 -46s-56.333 -70 -69 -118v-531l127 -30v-164h-525v164l127 30v465c0 82.667 -14.333 141.667 -43 177
s-70.667 53 -126 53c-45.333 0 -84 -9.16699 -116 -27.5s-58 -44.5 -78 -78.5v-589l134 -30v-164h-551z" />
    <glyph glyph-name="n" unicode="n" horiz-adv-x="1315" 
d="M56 0v164.001l145 30v693l-156 30v165h408l13 -156c36 55.333 80.833 98.5 134.5 129.5s114.5 46.5 182.5 46.5c108.667 0 193.834 -34.167 255.501 -102.5s92.5 -175.5 92.5 -321.5v-484l145 -30v-164h-551v164l133 30v482c0 77.333 -15.333 132.166 -46 164.499
s-76.334 48.5 -137.001 48.5c-45.333 0 -84.833 -9.83301 -118.5 -29.5s-61.5 -47.5 -83.5 -83.5v-582l128 -30v-164h-545z" />
    <glyph glyph-name="o" unicode="o" horiz-adv-x="1148" 
d="M576 -21c-106 0 -196.666 23.333 -271.999 70s-133.333 111.5 -174 194.5s-61 178.5 -61 286.5v21c0 107.333 20.333 202.333 61 285s98.667 147.667 174 195s165.333 71 270 71c105.333 0 195.666 -23.5 270.999 -70.5s133.166 -111.833 173.499 -194.5
s60.5 -178 60.5 -286v-21c0 -108 -20.167 -203.5 -60.5 -286.5s-98.166 -147.833 -173.499 -194.5s-165 -70 -269 -70zM576.001 188c52.667 0 96.166 14.332 130.499 42.999s59.833 68.834 76.5 120.501s25 111.167 25 178.5v21c0 66.667 -8.33301 125.667 -25 177
s-42.334 91.5 -77.001 120.5s-78.667 43.5 -132 43.5s-97.166 -14.5 -131.499 -43.5s-59.833 -69.167 -76.5 -120.5s-25 -110.333 -25 -177v-21c0 -68 8.33301 -127.667 25 -179s42.334 -91.333 77.001 -120s79 -43 133 -43z" />
    <glyph glyph-name="p" unicode="p" horiz-adv-x="1231" 
d="M53 -416v165.002l144 30v1108l-158 30v165h405l15 -127c32.667 47.333 72.334 83.666 119.001 108.999s102 38 166 38c87.333 0 162.166 -23.833 224.499 -71.5s110.166 -114.5 143.499 -200.5s50 -186 50 -300v-21c0 -106 -16.667 -198.833 -50 -278.5
s-81.166 -141.5 -143.499 -185.5s-137.5 -66 -225.5 -66c-60 0 -112.667 10.667 -158 32s-84.333 52.666 -117 93.999v-326l148 -30v-165h-563zM661 188.002c78.667 0 136.332 29 172.999 87s55 136 55 234v21c0 71.333 -8.16699 133.833 -24.5 187.5
s-41.5 95.667 -75.5 126s-77.333 45.5 -130 45.5c-43.333 0 -81.166 -9.83301 -113.499 -29.5s-58.166 -47.167 -77.499 -82.5v-485c19.333 -33.333 45.166 -59 77.499 -77s70.833 -27 115.5 -27z" />
    <glyph glyph-name="q" unicode="q" horiz-adv-x="1153" 
d="M585 -416l0.00195312 163l170 32v322c-32.667 -40.667 -71.167 -71.167 -115.5 -91.5s-95.5 -30.5 -153.5 -30.5c-87.333 0 -162.166 22 -224.499 66s-110 105.833 -143 185.5s-49.5 172.5 -49.5 278.5v21c0 114 16.5 214 49.5 300s80.667 152.833 143 200.5
s137.166 71.5 224.499 71.5c63.333 0 118.166 -12.833 164.499 -38.5s86.166 -62.167 119.499 -109.5l21 128h236v-1303l135 -29v-166h-577zM564.002 188c42.667 0 80.001 8.83398 112.001 26.501s58.333 43.167 79 76.5v494c-20.667 34 -46.834 60.333 -78.501 79
s-68.5 28 -110.5 28c-52 0 -94.667 -15.167 -128 -45.5s-57.833 -72.833 -73.5 -127.5s-23.5 -117.667 -23.5 -189v-21c0 -98.667 17.5 -176.834 52.5 -234.501s91.833 -86.5 170.5 -86.5z" />
    <glyph glyph-name="r" unicode="r" horiz-adv-x="879" 
d="M82 0v164l145 30v693l-156 30v165h408l12 -135l2 -23c27.333 58 61.333 102.167 102 132.5s88.667 45.5 144 45.5c18 0 37.5 -1.5 58.5 -4.5s38.833 -6.83301 53.5 -11.5l-31 -251l-143 8c-43.333 2 -78.833 -6 -106.5 -24s-51.5 -43.667 -71.5 -77v-548l145 -30v-164
h-562z" />
    <glyph glyph-name="s" unicode="s" horiz-adv-x="1031" 
d="M524 -21c-79.333 0 -153.167 7.50098 -221.5 22.501s-135.166 37.167 -200.499 66.5l-3 296h192l38 -156c26 -12 53.333 -21.333 82 -28s61 -10 97 -10c68.667 0 117.167 11.5 145.5 34.5s42.5 51.833 42.5 86.5c0 33.333 -15 62.166 -45 86.499s-88 45.5 -174 63.5
c-128.667 27.333 -223.334 68.5 -284.001 123.5s-91 125.5 -91 211.5c0 60 15.5 114.333 46.5 163s77.5 87.834 139.5 117.501s139.667 44.5 233 44.5c82 0 155.833 -8.33301 221.5 -25s121.167 -38 166.5 -64l5 -286h-191l-31 142c-19.333 14 -42 24.833 -68 32.5
s-55.333 11.5 -88 11.5c-53.333 0 -94.833 -11.333 -124.5 -34s-44.5 -51.334 -44.5 -86.001c0 -20 5 -38.333 15 -55s29.5 -32.167 58.5 -46.5s71.5 -27.833 127.5 -40.5c137.333 -31.333 236.5 -73 297.5 -125s91.5 -122.667 91.5 -212
c0 -98.667 -35.833 -179 -107.5 -241s-180.167 -93 -325.5 -93z" />
    <glyph glyph-name="t" unicode="t" horiz-adv-x="734" 
d="M481 -20c-96 0 -170.5 26.8311 -223.5 80.498s-79.5 138.834 -79.5 255.501v573h-153v193h153v264h271v-264h207v-193h-207v-573c0 -44 9.33301 -75.667 28 -95s43.667 -29 75 -29c17.333 0 36.333 1.33301 57 4s38 5.33398 52 8.00098l26 -193
c-30 -8.66699 -63.167 -16 -99.5 -22s-71.833 -9 -106.5 -9z" />
    <glyph glyph-name="u" unicode="u" horiz-adv-x="1268" 
d="M528 -21c-115.333 0 -205.5 36.5 -270.5 109.5s-97.5 186.5 -97.5 340.5v458l-120 30v165h120h272v-655c0 -85.333 14.167 -145.833 42.5 -181.5s71.833 -53.5 130.5 -53.5c48.667 0 91 9.66699 127 29s65 47 87 83v583l-132 30v165h132h272v-888l129 -30v-164h-369
l-18 142c-34 -52.667 -76.833 -93 -128.5 -121s-110.5 -42 -176.5 -42z" />
    <glyph glyph-name="v" unicode="v" horiz-adv-x="1238" 
d="M478 0l-339 899l-116 18v165h510v-165l-119 -20l179 -517l25 -85h6l29 85l188 517l-135 20v165h509v-165l-119 -20l-347 -897h-271z" />
    <glyph glyph-name="w" unicode="w" horiz-adv-x="1822" 
d="M425 0l-258 894l-130 23v165h507v-165l-118 -22l110 -445l23 -93h6l31 93l224 632h190l217 -639l32 -101h6l31 101l124 452l-128 22v165h497v-165l-125 -23l-276 -894h-234l-202 560l-39 131l-6 -1l-38 -131l-204 -559h-240z" />
    <glyph glyph-name="x" unicode="x" horiz-adv-x="1295" 
d="M33 0v164l134 20l313 359l-298 355l-125 19v165h512v-159l-89 -13l171 -221l169 221l-98 13v159h496v-165l-118 -19l-281 -345l315 -369l128 -20v-164h-534v158l101 13l-181 224l-178 -225l98 -12v-158h-535z" />
    <glyph glyph-name="y" unicode="y" horiz-adv-x="1266" 
d="M351 -437c-22.667 0 -47.834 2.16895 -75.501 6.50195s-52.834 9.5 -75.501 15.5l31 202c12 -2 26.167 -3.66699 42.5 -5s29.5 -2 39.5 -2c42.667 0 78.667 12 108 36s52 58 68 102l29 77l-366 903l-130 19v165h550v-165l-133 -20l179 -491l27 -77h6l212 569l-132 19v165
h516v-165l-119 -17l-416 -1062c-20 -50.667 -45.167 -96.834 -75.5 -138.501s-68.666 -74.834 -114.999 -99.501s-103.166 -37 -170.499 -37z" />
    <glyph glyph-name="z" unicode="z" horiz-adv-x="1091" 
d="M88 0v165l569 724h-316l-31 -184h-200v377h874v-176l-545 -709h339l40 195h193v-392h-923z" />
    <glyph glyph-name="braceleft" unicode="{" horiz-adv-x="679" 
d="M588 -361c-130 36.667 -222.5 95 -277.5 175s-82.5 177 -82.5 291v203c0 68 -15 120.833 -45 158.5s-76.333 56.5 -139 56.5v190c62.667 0 109 18.667 139 56s45 90.333 45 159v204c0 114 27.5 210.833 82.5 290.5s147.5 137.834 277.5 174.501l53 -149
c-60.667 -20.667 -103.334 -58.334 -128.001 -113.001s-37 -122.334 -37 -203.001v-204c0 -69.333 -14.833 -130.833 -44.5 -184.5s-74.167 -95.5 -133.5 -125.5c59.333 -31.333 103.833 -73.833 133.5 -127.5s44.5 -114.5 44.5 -182.5v-203
c0 -80.667 12.333 -148.167 37 -202.5s67.334 -92.166 128.001 -113.499z" />
    <glyph glyph-name="bar" unicode="|" horiz-adv-x="433" 
d="M136 -270v1726h171v-1726h-171z" />
    <glyph glyph-name="braceright" unicode="}" horiz-adv-x="683" 
d="M89 -361l-53 150.001c59.333 21.333 101.5 59.166 126.5 113.499s37.5 121.833 37.5 202.5v203c0 70 15.333 131.667 46 185s77.334 94.666 140.001 123.999c-62.667 30 -109.334 71.667 -140.001 125s-46 115.333 -46 186v204c0 80.667 -12.5 148.334 -37.5 203.001
s-67.167 92.334 -126.5 113.001l53 149c129.333 -36.667 221.666 -94.834 276.999 -174.501s83 -176.5 83 -290.5v-204c0 -68.667 14.833 -121.667 44.5 -159s76.167 -56 139.5 -56v-190c-63.333 0 -109.833 -18.833 -139.5 -56.5s-44.5 -90.5 -44.5 -158.5v-203
c0 -114 -27.667 -211 -83 -291s-147.666 -138.333 -276.999 -175z" />
    <glyph glyph-name="asciitilde" unicode="~" horiz-adv-x="1336" 
d="M908 383c-54.667 0 -105.998 10.6699 -153.998 32.0029s-98.333 55.333 -151 102c-34.667 30 -65.334 52 -92.001 66s-54.334 21 -83.001 21c-38 0 -70 -17.167 -96 -51.5s-39 -75.5 -39 -123.5l-189 25c0 69.333 13.167 131.666 39.5 186.999
s62.833 99.166 109.5 131.499s100.667 48.5 162 48.5c54.667 0 107.167 -11.333 157.5 -34s101.166 -56.334 152.499 -101.001c34 -30.667 64.167 -52.834 90.5 -66.501s53.833 -20.5 82.5 -20.5c37.333 0 69.333 17.833 96 53.5s40 77.834 40 126.501l189 -25
c0 -69.333 -13.5 -132 -40.5 -188s-64.167 -100.5 -111.5 -133.5s-101.666 -49.5 -162.999 -49.5z" />
    <glyph glyph-name="uni00A0" unicode="&#xa0;" horiz-adv-x="504" 
 />
    <glyph glyph-name="exclamdown" unicode="&#xa1;" horiz-adv-x="502" 
d="M106 585v-959h272v959h-272zM106 1082v-245h272v245h-272z" />
    <glyph glyph-name="cent" unicode="&#xa2;" horiz-adv-x="1098" 
d="M467 -245v235.998c-82.667 16 -152.334 48.667 -209.001 98s-99.667 111.333 -129 186s-44 157.667 -44 249v33c0 89.333 14.667 171 44 245s72.5 135.833 129.5 185.5s126.5 83.5 208.5 101.5v229h199v-219c71.333 -7.33301 135.5 -23.666 192.5 -48.999
s105.167 -58.666 144.5 -99.999l5 -278h-219l-47 169c-16.667 14.667 -37.5 26.834 -62.5 36.501s-54.5 14.5 -88.5 14.5c-56 0 -101.167 -14.333 -135.5 -43s-59.333 -68.334 -75 -119.001s-23.5 -108.334 -23.5 -173.001v-33c0 -66.667 7.33301 -125.167 22 -175.5
s38.667 -89.666 72 -117.999s78 -42.5 134 -42.5c36.667 0 69.167 7.5 97.5 22.5s50.5 35.667 66.5 62s24 56.833 24 91.5h246l3 -6c2 -62 -12.333 -119.333 -43 -172s-73.167 -96.667 -127.5 -132s-116.166 -58 -185.499 -68v-231h-199z" />
    <glyph glyph-name="sterling" unicode="&#xa3;" horiz-adv-x="1178" 
d="M114 0v209.002h10c22.667 6 41.667 23.167 57 51.5s26.833 62.666 34.5 102.999s11.5 80.833 11.5 121.5l-5 109h-163v210h156l-9 226c0 139.333 39.5 248.666 118.5 327.999s185.167 119 318.5 119c141.333 0 250.833 -36.667 328.5 -110s115.167 -170.333 112.5 -291
l-2 -6h-265c0 67.333 -16.5 117 -49.5 149s-74.833 48 -125.5 48c-51.333 0 -91.5 -20.833 -120.5 -62.5s-43.5 -99.834 -43.5 -174.501l10 -226h369v-210h-360l4 -99c0 -53.333 -8 -104.666 -24 -153.999s-39 -93.333 -69 -132h483l12 149h212v-358h-1001z" />
    <glyph glyph-name="currency" unicode="&#xa4;" horiz-adv-x="1438" 
d="M1209 -27l-132.001 133.997c-51.333 -40.667 -107.833 -72 -169.5 -94s-125.834 -33 -192.501 -33c-67.333 0 -131.666 10.833 -192.999 32.5s-117.333 52.834 -168 93.501l-129 -132l-140 143l135 137c-32.667 50.667 -57.5 106 -74.5 166s-25.5 122.667 -25.5 188
c0 68 9.33301 132.833 28 194.5s45.667 118.834 81 171.501l-144 147l140 143l142 -145c49.333 36.667 103.5 65 162.5 85s120.833 30 185.5 30c64 0 125.667 -10.167 185 -30.5s114 -49.166 164 -86.499l145 148l142 -144l-149 -151c34 -52 60.5 -108.5 79.5 -169.5
s28.5 -125.167 28.5 -192.5c0 -65.333 -8.66699 -127.5 -26 -186.5s-41.666 -113.5 -72.999 -163.5l140 -141zM714.999 165.997c56.667 0 109.667 11.333 159 34s92.666 54.167 129.999 94.5s66.666 87.166 87.999 140.499s32 111 32 173
c0 61.333 -10.667 118.666 -32 171.999s-50.666 100 -87.999 140s-80.666 71.333 -129.999 94s-102.333 34 -159 34c-57.333 0 -110.833 -11.333 -160.5 -34s-93.334 -54 -131.001 -94s-67 -86.667 -88 -140s-31.5 -110.666 -31.5 -171.999c0 -62 10.5 -119.667 31.5 -173
s50.333 -100.166 88 -140.499s81.334 -71.833 131.001 -94.5s103.167 -34 160.5 -34z" />
    <glyph glyph-name="yen" unicode="&#xa5;" horiz-adv-x="1398" 
d="M407 0v164l156 30v109h-346v155h346v127h-346v156h276l-288 528l-160 22v165h516v-165l-72 -14l197 -408l15 -32l5 1l12 25l200 414l-72 14v165h516v-165l-161 -22l-287 -528h258v-156h-337v-127h337v-155h-337v-109l145 -30v-164h-573z" />
    <glyph glyph-name="brokenbar" unicode="&#xa6;" horiz-adv-x="510" 
d="M137 -270v794h248v-794h-248zM137 698v758h248v-758h-248z" />
    <glyph glyph-name="section" unicode="&#xa7;" horiz-adv-x="1241" 
d="M624 -468c-102 0 -193.669 14.6709 -275.002 44.0039s-145.166 74.833 -191.499 136.5s-68.5 140.834 -66.5 237.501l2 6l262 2c0 -50.667 11.833 -91.834 35.5 -123.501s55.834 -54.834 96.501 -69.501s86.334 -22 137.001 -22c75.333 0 134.333 15.167 177 45.5
s64 69.5 64 117.5c0 32 -9 59.167 -27 81.5s-48.833 43.5 -92.5 63.5s-104.834 41.667 -183.501 65c-108 28 -197.167 60.167 -267.5 96.5s-122.666 80.666 -156.999 132.999s-51.5 116.833 -51.5 193.5c0 59.333 14.333 112 43 158s70 83.667 124 113
c-46 33.333 -80.333 73.5 -103 120.5s-34 103.167 -34 168.5c0 76 21.167 142.333 63.5 199s102 100.667 179 132s167.5 47 271.5 47c161.333 0 287.166 -37 377.499 -111s133.833 -178 130.5 -312l-2 -6h-262c0 42 -9.66699 79.5 -29 112.5s-47.166 59 -83.499 78
s-80.166 28.5 -131.499 28.5c-80.667 0 -141 -15.667 -181 -47s-60 -71 -60 -119c0 -36 8 -65.333 24 -88s45.5 -43.334 88.5 -62.001s105.167 -39.334 186.5 -62.001c110 -28.667 200.167 -61.167 270.5 -97.5s122.5 -80.5 156.5 -132.5s51 -116.333 51 -193
c0 -61.333 -14.333 -114.833 -43 -160.5s-70.334 -82.5 -125.001 -110.5c46 -34 80.667 -74.333 104 -121s35 -102.334 35 -167.001c0 -117.333 -46.333 -209.166 -139 -275.499s-217.334 -99.5 -374.001 -99.5zM799.998 292.004c31.333 14.667 55.333 35.168 72 61.501
s25 57.166 25 92.499c0 33.333 -9 62.166 -27 86.499s-49.167 47 -93.5 68s-105.5 43.833 -183.5 68.5c-28 6.66699 -53.833 13.834 -77.5 21.501l-67.5 22.5c-30.667 -14 -53.334 -34.167 -68.001 -60.5s-22 -57.166 -22 -92.499c0 -37.333 7.83301 -68.333 23.5 -93
s45 -46.834 88 -66.501s105.5 -41.5 187.5 -65.5l73.5 -21c23.667 -6.66699 46.834 -14 69.501 -22z" />
    <glyph glyph-name="dieresis" unicode="&#xa8;" horiz-adv-x="791" 
d="M485 1319v241h266v-241h-266zM40 1319v241h265v-241h-265z" />
    <glyph glyph-name="copyright" unicode="&#xa9;" horiz-adv-x="1572" 
d="M788 -21c-98.667 0 -191.001 19.167 -277.001 57.5s-161.333 91.5 -226 159.5s-115.334 147.5 -152.001 238.5s-55 189.167 -55 294.5s18.333 203.166 55 293.499s87.334 169.5 152.001 237.5s140 121 226 159s178.333 57 277 57c98 0 190 -19 276 -57
s161.333 -91 226 -159s115.334 -147.167 152.001 -237.5s55 -188.166 55 -293.499s-18.333 -203.5 -55 -294.5s-87.5 -170.5 -152.5 -238.5s-140.333 -121.167 -226 -159.5s-177.5 -57.5 -275.5 -57.5zM787.999 103c81.333 0 157.333 15.833 228 47.5s133 76 187 133
s96.167 123.5 126.5 199.5s45.5 158 45.5 246s-15.167 169.667 -45.5 245s-72.5 141.333 -126.5 198s-116.333 100.834 -187 132.501s-146.667 47.5 -228 47.5c-82 0 -158.5 -15.833 -229.5 -47.5s-133.5 -75.834 -187.5 -132.501s-96.167 -122.667 -126.5 -198
s-45.5 -157 -45.5 -245s15.167 -170 45.5 -246s72.5 -142.5 126.5 -199.5s116.5 -101.333 187.5 -133s147.5 -47.5 229.5 -47.5zM773.999 282c-106.667 0 -191.498 35.334 -254.498 106.001s-94.5 164.334 -94.5 281.001v119c0 115.333 31.5 208.666 94.5 279.999
s147.833 107 254.5 107c104.667 0 186.5 -26.5 245.5 -79.5s87.167 -129.167 84.5 -228.5l-3 -6h-147c0 63.333 -15 109.166 -45 137.499s-75 42.5 -135 42.5c-63.333 0 -111.666 -23 -144.999 -69s-50 -107 -50 -183v-120c0 -77.333 16.667 -138.833 50 -184.5
s81.666 -68.5 144.999 -68.5c60 0 104.833 14 134.5 42s44.5 74 44.5 138h147l2 -6c3.33301 -100.667 -24.334 -177.167 -83.001 -229.5s-140.334 -78.5 -245.001 -78.5z" />
    <glyph glyph-name="ordfeminine" unicode="&#xaa;" horiz-adv-x="873" 
d="M346 692c-79.333 0 -140.668 20.3311 -184.001 60.998s-65 96.334 -65 167.001c0 74 28 131 84 171s138 60 246 60h138v51c0 42 -10 73.833 -30 95.5s-49 32.5 -87 32.5c-44 0 -78 -8.66699 -102 -26s-36 -42 -36 -74l-165 13l-1 6c-4 65.333 22.5 119.666 79.5 162.999
s131.833 65 224.5 65c89.333 0 160.166 -23.667 212.499 -71s78.5 -115.666 78.5 -204.999v-314c0 -34 2 -65.667 6 -95s10.667 -58 20 -86h-176c-5.33301 14 -9.66602 28.833 -12.999 44.5s-6 32.167 -8 49.5c-22 -31.333 -51.667 -57.166 -89 -77.499
s-81.666 -30.5 -132.999 -30.5zM387.998 834.998c22.667 0 46.1689 4.66895 70.502 14.002s46.166 21.166 65.499 35.499s33 29.5 41 45.5v105h-137c-49.333 0 -87.833 -10.833 -115.5 -32.5s-41.5 -47.834 -41.5 -78.501c0 -29.333 9.66699 -51.5 29 -66.5
s48.666 -22.5 87.999 -22.5z" />
    <glyph glyph-name="guillemotleft" unicode="&#xab;" horiz-adv-x="949" 
d="M298 116l-283 390v19l283 390h179l-243 -400l243 -399h-179zM680 116l-283 390v19l283 390h179l-243 -400l243 -399h-179z" />
    <glyph glyph-name="logicalnot" unicode="&#xac;" horiz-adv-x="1103" 
d="M751 374v261h-635v169h834v-430h-199z" />
    <glyph glyph-name="uni00AD" unicode="&#xad;" horiz-adv-x="811" 
d="M136 516v210h548v-210h-548z" />
    <glyph glyph-name="registered" unicode="&#xae;" horiz-adv-x="1572" 
d="M788 -21c-98.667 0 -191.001 19.167 -277.001 57.5s-161.333 91.5 -226 159.5s-115.334 147.5 -152.001 238.5s-55 189.167 -55 294.5s18.333 203.166 55 293.499s87.334 169.5 152.001 237.5s140 121 226 159s178.333 57 277 57c98 0 190 -19 276 -57
s161.333 -91 226 -159s115.334 -147.167 152.001 -237.5s55 -188.166 55 -293.499s-18.333 -203.5 -55 -294.5s-87.5 -170.5 -152.5 -238.5s-140.333 -121.167 -226 -159.5s-177.5 -57.5 -275.5 -57.5zM787.999 103c81.333 0 157.333 15.833 228 47.5s133 76 187 133
s96.167 123.5 126.5 199.5s45.5 158 45.5 246s-15.167 169.667 -45.5 245s-72.5 141.333 -126.5 198s-116.333 100.834 -187 132.501s-146.667 47.5 -228 47.5c-82 0 -158.5 -15.833 -229.5 -47.5s-133.5 -75.834 -187.5 -132.501s-96.167 -122.667 -126.5 -198
s-45.5 -157 -45.5 -245s15.167 -170 45.5 -246s72.5 -142.5 126.5 -199.5s116.5 -101.333 187.5 -133s147.5 -47.5 229.5 -47.5zM492.999 316l-0.000976562 850.002h281c100.667 0 179.834 -22.5 237.501 -67.5s86.5 -109.5 86.5 -193.5
c0 -38.667 -9.83301 -72.834 -29.5 -102.501s-48.5 -54.834 -86.5 -75.501c39.333 -20 68 -47.833 86 -83.5s27 -78.5 27 -128.5v-56c0 -27.333 1.16699 -51.833 3.5 -73.5s6.83301 -39.5 13.5 -53.5v-16h-154c-6 14 -9.66699 34.5 -11 61.5s-2 54.5 -2 82.5v54
c0 47.333 -11.167 82.333 -33.5 105s-58.833 34 -109.5 34h-159v-337h-150zM642.998 786.002l140 -0.000976562c46.667 0 86 10.333 118 31s48 49.334 48 86.001c0 48.667 -13 82.667 -39 102s-71.333 29 -136 29h-131v-248z" />
    <glyph glyph-name="macron" unicode="&#xaf;" horiz-adv-x="809" 
d="M40 1320v170h729v-170h-729z" />
    <glyph glyph-name="degree" unicode="&#xb0;" horiz-adv-x="748" 
d="M379 938c-50 0 -95.333 11.833 -136 35.5s-73 55.834 -97 96.501s-36 86 -36 136c0 49.333 12.167 94.5 36.5 135.5s56.833 73.833 97.5 98.5s85.667 37 135 37c48 0 92 -12.333 132 -37s72 -57.5 96 -98.5s36 -86.167 36 -135.5c0 -50 -11.833 -95.333 -35.5 -136
s-55.667 -72.834 -96 -96.501s-84.5 -35.5 -132.5 -35.5zM379 1081c34.667 0 63.667 11.833 87 35.5s35 53.5 35 89.5s-11.833 66.333 -35.5 91s-52.5 37 -86.5 37c-35.333 0 -65.166 -12.333 -89.499 -37s-36.5 -55 -36.5 -91s12.167 -65.833 36.5 -89.5
s54.166 -35.5 89.499 -35.5z" />
    <glyph glyph-name="plusminus" unicode="&#xb1;" horiz-adv-x="1043" 
d="M411 323v389h-343v216h343v373h240v-373h333v-216h-333v-389h-240zM120 2v213h834v-213h-834z" />
    <glyph glyph-name="uni00B2" unicode="&#xb2;" horiz-adv-x="824" 
d="M726 667l-0.00195312 150h-349l-2 6l118 101c54 46 97.5 85.167 130.5 117.5s57 63.166 72 92.499s22.5 62 22.5 98c0 78.667 -26 139.5 -78 182.5s-125 64.5 -219 64.5c-65.333 0 -122.166 -11.333 -170.499 -34s-85.333 -53.167 -111 -91.5
s-37.167 -80.833 -34.5 -127.5l2 -6h193c0 32 9.83301 58.167 29.5 78.5s48.834 30.5 87.501 30.5c34 0 59 -9.16699 75 -27.5s24 -41.166 24 -68.499s-6 -52.5 -18 -75.5s-38.667 -51.833 -80 -86.5l-309 -254v-150h617z" />
    <glyph glyph-name="uni00B3" unicode="&#xb3;" horiz-adv-x="836" 
d="M406 1138h-116.002v-131h116c45.333 0 79.666 -9 102.999 -27s35 -44.667 35 -80c0 -30 -11.833 -53.333 -35.5 -70s-55.5 -25 -95.5 -25c-40.667 0 -71.834 8.16699 -93.501 24.5s-32.5 38.833 -32.5 67.5h-193l-1 -6c-2.66699 -50 9.83301 -92.667 37.5 -128
s66.334 -62.166 116.001 -80.499s105.834 -27.5 168.501 -27.5c100.667 0 180.834 20.667 240.501 62s89.5 99.333 89.5 174c0 92 -48.667 154.333 -146 187c41.333 16.667 73.833 40.167 97.5 70.5s35.5 63.833 35.5 100.5c0 73.333 -29.167 129.833 -87.5 169.5
s-137.5 59.5 -237.5 59.5c-88.667 0 -162 -20.333 -220 -61s-85 -94.334 -81 -161.001l2 -6h192c0 22 9.83301 40.5 29.5 55.5s46.834 22.5 81.501 22.5c38.667 0 68 -8.66699 88 -26s30 -39 30 -65c0 -66 -41 -99 -123 -99z" />
    <glyph glyph-name="acute" unicode="&#xb4;" horiz-adv-x="570" 
d="M40 1288l196 272h292l2 -6l-274 -266h-208h-8z" />
    <glyph glyph-name="uni00B5" unicode="&#xb5;" horiz-adv-x="1340" 
d="M215 -416l0.000976562 1303l-158 30v165h158h271v-621c0 -104.667 15.5 -176 46.5 -214s77.5 -57 139.5 -57c54 0 98.5 9.83301 133.5 29.5s61.833 48.5 80.5 86.5v581l-158 30v165h429v-888l146 -30v-164h-397l-7 92c-28 -37.333 -61.333 -65.5 -100 -84.5
s-83.334 -28.5 -134.001 -28.5c-35.333 0 -68 4 -98 12s-57 20 -81 36v-443h-271z" />
    <glyph glyph-name="paragraph" unicode="&#xb6;" horiz-adv-x="1119" 
d="M476 0l0.000976562 164.001l158 30v326h-83c-104 0 -192.667 19.667 -266 59s-129.333 94.166 -168 164.499s-58 151.833 -58 244.5c0 92 19.5 173.167 58.5 243.5s95.167 125.333 168.5 165s161.666 59.5 264.999 59.5h512v-165l-157 -30v-1067l157 -30v-164h-587z" />
    <glyph glyph-name="periodcentered" unicode="&#xb7;" horiz-adv-x="545" 
d="M148 583v245h271v-245h-271z" />
    <glyph glyph-name="cedilla" unicode="&#xb8;" horiz-adv-x="494" 
d="M59 -454l-7.00098 149.001c42 0 75.333 6.83301 100 20.5s37 34.5 37 62.5c0 28.667 -11.833 48.667 -35.5 60s-61.5 18.666 -113.5 21.999l35 161h200l-15 -77c44.667 -7.33301 81.834 -24.333 111.501 -51s44.5 -66 44.5 -118c0 -69.333 -31 -124.833 -93 -166.5
s-150 -62.5 -264 -62.5z" />
    <glyph glyph-name="uni00B9" unicode="&#xb9;" horiz-adv-x="538" 
d="M430 665v812l-330 -23v-154h127v-635h203z" />
    <glyph glyph-name="ordmasculine" unicode="&#xba;" horiz-adv-x="920" 
d="M459 691c-106 0 -190.335 30.833 -253.002 92.5s-94 142.167 -94 241.5v117c0 98.667 31.333 179.167 94 241.5s146.334 93.5 251.001 93.5c105.333 0 189.5 -31.167 252.5 -93.5s94.5 -142.833 94.5 -241.5v-117c0 -99.333 -31.167 -179.833 -93.5 -241.5
s-146.166 -92.5 -251.499 -92.5zM458.998 836c55.333 0 97.667 17.167 127 51.5s44 80.166 44 137.499v117c0 56 -14.833 101.333 -44.5 136s-72.5 52 -128.5 52s-98.5 -17.333 -127.5 -52s-43.5 -80 -43.5 -136v-117c0 -57.333 14.667 -103.166 44 -137.499
s72.333 -51.5 129 -51.5z" />
    <glyph glyph-name="guillemotright" unicode="&#xbb;" horiz-adv-x="966" 
d="M73 151l242 399l-242 400h178l283 -390v-19l-283 -390h-178zM466 151l242 399l-242 400h178l283 -390v-19l-283 -390h-178z" />
    <glyph glyph-name="onequarter" unicode="&#xbc;" horiz-adv-x="1419" 
d="M257 664v635h-127v154l330 23v-812h-203zM392 117l-135 73l711 1138l135 -73zM1145 0v142h-412l-12 121l423 538h203v-508h106v-151h-106v-142h-202zM929 293h216v268l-6 2l-13 -20z" />
    <glyph glyph-name="onehalf" unicode="&#xbd;" horiz-adv-x="1462" 
d="M393 117l-135 73l711 1138l135 -73zM246 664v635h-127v154l330 23v-812h-203zM850 0v150.001l309 254c40.667 34.667 67.167 63.667 79.5 87s18.5 47 18.5 71c0 29.333 -8.16699 53.333 -24.5 72s-41.5 28 -75.5 28c-38 0 -67 -10.167 -87 -30.5s-30 -46.5 -30 -78.5
h-193l-2 6c-2.66699 46.667 9 89.167 35 127.5s63.167 68.833 111.5 91.5s104.833 34 169.5 34c94.667 0 168 -21.333 220 -64s78 -102 78 -178c0 -38 -7.33301 -71.833 -22 -101.5s-38.667 -60.834 -72 -93.501s-77 -72 -131 -118l-119 -101l2 -6h350v-150h-617z" />
    <glyph glyph-name="threequarters" unicode="&#xbe;" horiz-adv-x="1647" 
d="M601 117l-135 73l711 1138l135 -73zM1332 0v142h-412l-12 121l423 538h203v-508h106v-151h-106v-142h-202zM1116 293h216v268l-6 2l-13 -20zM411 656c-63.333 0 -119.666 9.16602 -168.999 27.499s-87.833 45.166 -115.5 80.499s-40.167 78 -37.5 128l1 6h192
c0 -28.667 11 -51.167 33 -67.5s52.333 -24.5 91 -24.5c42 0 74.667 8.33301 98 25s35 39.667 35 69c0 36 -11.667 63 -35 81s-57.333 27 -102 27h-117v131h117c82 0 123 32.333 123 97c0 26.667 -10 48.834 -30 66.501s-49.667 26.5 -89 26.5c-34 0 -61 -7.5 -81 -22.5
s-30 -33.5 -30 -55.5h-191l-2 6c-4 66.667 23.333 120.334 82 161.001s133.667 61 225 61c96.667 0 173.834 -19.667 231.501 -59s86.5 -94.333 86.5 -165c0 -39.333 -11.833 -74.333 -35.5 -105s-55.834 -54.334 -96.501 -71.001c97.333 -32.667 146 -95.667 146 -189
c0 -73.333 -29.833 -130.666 -89.5 -171.999s-139.834 -62 -240.501 -62z" />
    <glyph glyph-name="questiondown" unicode="&#xbf;" horiz-adv-x="933" 
d="M672 670c0 -48.667 -2.66797 -89.334 -8.00098 -122.001s-14.5 -61.334 -27.5 -86.001s-31.5 -49.167 -55.5 -73.5s-55.333 -52.166 -94 -83.499c-37.333 -31.333 -67.833 -62.666 -91.5 -93.999s-41.334 -63.333 -53.001 -96s-17.5 -66 -17.5 -100
c0 -60.667 16.5 -107.667 49.5 -141s79.5 -50 139.5 -50c50.667 0 94 14 130 42s54 70 54 126h264l2 -6c1.33301 -79.333 -17 -147.5 -55 -204.5s-91 -100.5 -159 -130.5s-146.333 -45 -235 -45c-145.333 0 -258.666 35.833 -339.999 107.5s-122 169.5 -122 293.5
c0 58 10.833 111.5 32.5 160.5s51.834 95.667 90.501 140s84.334 89.833 137.001 136.5c25.333 22 44.166 43 56.499 63s20.5 42.5 24.5 67.5s6 56.833 6 95.5h272zM672.999 1083v-246h-274v246h274z" />
    <glyph glyph-name="Agrave" unicode="&#xc0;" horiz-adv-x="1516" 
d="M47 0v164l105 15l473 1277h271l469 -1277l104 -15v-164h-479v164l103 19l-71 214h-527l-71 -214l102 -19v-164h-479zM562 602h393l-179 518l-14 42h-6l-15 -44zM924 1572h-8h-208l-274 266l2 6h292z" />
    <glyph glyph-name="Aacute" unicode="&#xc1;" horiz-adv-x="1516" 
d="M47 0v164l105 15l473 1277h271l469 -1277l104 -15v-164h-479v164l103 19l-71 214h-527l-71 -214l102 -19v-164h-479zM562 602h393l-179 518l-14 42h-6l-15 -44zM597 1572l196 272h292l2 -6l-274 -266h-208h-8z" />
    <glyph glyph-name="Acircumflex" unicode="&#xc2;" horiz-adv-x="1516" 
d="M47 0v164l105 15l473 1277h271l469 -1277l104 -15v-164h-479v164l103 19l-71 214h-527l-71 -214l102 -19v-164h-479zM562 602h393l-179 518l-14 42h-6l-15 -44zM410 1576v26l253 242h195l252 -244v-24h-214l-136 145l-139 -145h-211z" />
    <glyph glyph-name="Atilde" unicode="&#xc3;" horiz-adv-x="1516" 
d="M47 0v164l105 15l473 1277h271l469 -1277l104 -15v-164h-479v164l103 19l-71 214h-527l-71 -214l102 -19v-164h-479zM562 602h393l-179 518l-14 42h-6l-15 -44zM533 1572l-142 35.999c0 44.667 10.333 85.667 31 123s48 67.333 82 90s71 34 111 34
c32 0 65.167 -8 99.5 -24s67.166 -32.167 98.499 -48.5s58.333 -24.5 81 -24.5c27.333 0.666992 49.5 11.334 66.5 32.001s25.5 46.667 25.5 78l142 -39c0 -45.333 -10.167 -86.666 -30.5 -123.999s-47.5 -67 -81.5 -89s-71.333 -33 -112 -33
c-34.667 0 -69.167 8.16699 -103.5 24.5s-66.666 32.666 -96.999 48.999s-56.833 24.5 -79.5 24.5c-27.333 0 -49.333 -10.667 -66 -32s-25 -47 -25 -77z" />
    <glyph glyph-name="Adieresis" unicode="&#xc4;" horiz-adv-x="1516" 
d="M47 0v164l105 15l473 1277h271l469 -1277l104 -15v-164h-479v164l103 19l-71 214h-527l-71 -214l102 -19v-164h-479zM562 602h393l-179 518l-14 42h-6l-15 -44zM850 1603v241h266v-241h-266zM405 1603v241h265v-241h-265z" />
    <glyph glyph-name="Aring" unicode="&#xc5;" horiz-adv-x="1516" 
d="M47 0v164l105 15l473 1277h271l469 -1277l104 -15v-164h-479v164l103 19l-71 214h-527l-71 -214l102 -19v-164h-479zM562 602h393l-179 518l-14 42h-6l-15 -44zM762 1511c-64.667 0 -119 19.667 -163 59s-66 90 -66 152c0 60 22.167 110.667 66.5 152s98.5 62 162.5 62
c63.333 0 116.666 -20.667 159.999 -62s65 -92 65 -152c0 -62 -21.667 -112.667 -65 -152s-96.666 -59 -159.999 -59zM762 1623c27.333 0 50 9.00098 68 27.001s27 42 27 72c0 29.333 -9 53.333 -27 72s-40.667 28 -68 28c-28 0 -51.5 -9.33301 -70.5 -28
s-28.5 -42.667 -28.5 -72c0 -28.667 9.5 -52.334 28.5 -71.001s42.5 -28 70.5 -28z" />
    <glyph glyph-name="AE" unicode="&#xc6;" horiz-adv-x="2093" 
d="M63 0v164l139 20l720 1272h1021v-359h-212l-13 147h-406l17 -388h532v-212h-523l18 -433h425l13 147h211v-358h-1071v164l151 28l-6 161h-471l-94 -175l85 -14v-164h-536zM721 571h348l-25 587l-5 1l-10 -20z" />
    <glyph glyph-name="Ccedilla" unicode="&#xc7;" horiz-adv-x="1314" 
d="M747 -21c-142.667 0 -265.5 30.002 -368.5 90.002s-182.167 144.5 -237.5 253.5s-83 236.833 -83 383.5v43c0 141.333 27 266.666 81 375.999s131.333 195.333 232 258s220.667 94 360 94c98 0 189.333 -14.167 274 -42.5s159.334 -69.833 224.001 -124.5v-344h-205
l-28 223c-22 16 -46.167 29.667 -72.5 41s-55 20 -86 26s-64.5 9 -100.5 9c-85.333 0 -158.333 -21.167 -219 -63.5s-107.167 -101.833 -139.5 -178.5s-48.5 -167.334 -48.5 -272.001v-45c0 -106 17 -197.667 51 -275s82.5 -136.833 145.5 -178.5s138.167 -62.5 225.5 -62.5
c43.333 0 86.333 4.83301 129 14.5s80.667 22.5 114 38.5l29 205h203v-341c-56 -36.667 -125.333 -67.167 -208 -91.5s-173.334 -36.5 -272.001 -36.5zM603 -453.998l-7.00098 149.001c42 0 75.333 6.83301 100 20.5s37 34.5 37 62.5c0 28.667 -11.833 48.667 -35.5 60
s-61.5 18.666 -113.5 21.999l35 161h200l-15 -77c44.667 -7.33301 81.834 -24.333 111.501 -51s44.5 -66 44.5 -118c0 -69.333 -31 -124.833 -93 -166.5s-150 -62.5 -264 -62.5z" />
    <glyph glyph-name="Egrave" unicode="&#xc8;" horiz-adv-x="1307" 
d="M61 0v164l157 30v1067l-157 30v165h1119v-384h-210l-15 175h-465v-389h502v-211h-502v-439h491l15 179h208v-387h-1143zM817 1572h-8h-208l-274 266l2 6h292z" />
    <glyph glyph-name="Eacute" unicode="&#xc9;" horiz-adv-x="1307" 
d="M61 0v164l157 30v1067l-157 30v165h1119v-384h-210l-15 175h-465v-389h502v-211h-502v-439h491l15 179h208v-387h-1143zM491 1572l196 272h292l2 -6l-274 -266h-208h-8z" />
    <glyph glyph-name="Ecircumflex" unicode="&#xca;" horiz-adv-x="1307" 
d="M61 0v164l157 30v1067l-157 30v165h1119v-384h-210l-15 175h-465v-389h502v-211h-502v-439h491l15 179h208v-387h-1143zM304 1576v26l253 242h195l252 -244v-24h-214l-136 145l-139 -145h-211z" />
    <glyph glyph-name="Edieresis" unicode="&#xcb;" horiz-adv-x="1307" 
d="M61 0v164l157 30v1067l-157 30v165h1119v-384h-210l-15 175h-465v-389h502v-211h-502v-439h491l15 179h208v-387h-1143zM744 1603v241h266v-241h-266zM299 1603v241h265v-241h-265z" />
    <glyph glyph-name="Igrave" unicode="&#xcc;" horiz-adv-x="708" 
d="M61 0v164l157 30v1067l-157 30v165h586v-165l-157 -30v-1067l157 -30v-164h-586zM518 1572h-8h-208l-274 266l2 6h292z" />
    <glyph glyph-name="Iacute" unicode="&#xcd;" horiz-adv-x="708" 
d="M61 0v164l157 30v1067l-157 30v165h586v-165l-157 -30v-1067l157 -30v-164h-586zM191 1572l196 272h292l2 -6l-274 -266h-208h-8z" />
    <glyph glyph-name="Icircumflex" unicode="&#xce;" horiz-adv-x="708" 
d="M61 0v164l157 30v1067l-157 30v165h586v-165l-157 -30v-1067l157 -30v-164h-586zM4 1576v26l253 242h195l252 -244v-24h-214l-136 145l-139 -145h-211z" />
    <glyph glyph-name="Idieresis" unicode="&#xcf;" horiz-adv-x="708" 
d="M61 0v164l157 30v1067l-157 30v165h586v-165l-157 -30v-1067l157 -30v-164h-586zM444 1603v241h266v-241h-266zM-1 1603v241h265v-241h-265z" />
    <glyph glyph-name="Eth" unicode="&#xd0;" horiz-adv-x="1412" 
d="M61 0l0.000976562 163.999l158 33v1061l-158 33v165h158h467c130 0 244.167 -30.667 342.5 -92s175.166 -145.666 230.499 -252.999s83 -230.666 83 -369.999v-27c0 -137.333 -27.167 -259.833 -81.5 -367.5s-130.333 -192.334 -228 -254.001s-211.5 -92.5 -341.5 -92.5
h-630zM491.001 208.999h186c83.333 0 154 22 212 66s102.5 104 133.5 180s46.5 162.333 46.5 259v29c0 98 -15.5 184.833 -46.5 260.5s-75.5 135 -133.5 178s-128.667 64.5 -212 64.5h-186v-1037zM53.001 657.999v155h647v-155h-647z" />
    <glyph glyph-name="Ntilde" unicode="&#xd1;" horiz-adv-x="1601" 
d="M62 0v164l156 30v1067l-156 30v165h156h276l651 -1036l6 1v840l-185 30v165h429h157v-165l-157 -30v-1261h-261l-665 1029l-6 -1v-834l185 -30v-164h-586zM574 1572l-142 35.999c0 44.667 10.333 85.667 31 123s48 67.333 82 90s71 34 111 34c32 0 65.167 -8 99.5 -24
s67.166 -32.167 98.499 -48.5s58.333 -24.5 81 -24.5c27.333 0.666992 49.5 11.334 66.5 32.001s25.5 46.667 25.5 78l142 -39c0 -45.333 -10.167 -86.666 -30.5 -123.999s-47.5 -67 -81.5 -89s-71.333 -33 -112 -33c-34.667 0 -69.167 8.16699 -103.5 24.5
s-66.666 32.666 -96.999 48.999s-56.833 24.5 -79.5 24.5c-27.333 0 -49.333 -10.667 -66 -32s-25 -47 -25 -77z" />
    <glyph glyph-name="Ograve" unicode="&#xd2;" horiz-adv-x="1426" 
d="M713 -21c-97.333 0 -185.666 18.167 -264.999 54.5s-147.5 87.666 -204.5 153.999s-100.833 144.333 -131.5 234s-46 188.167 -46 295.5v22c0 106.667 15.333 204.834 46 294.501s74.5 167.667 131.5 234s125 117.833 204 154.5s167.167 55 264.5 55
c99.333 0 188.833 -18.333 268.5 -55s148.167 -88.167 205.5 -154.5s101.166 -144.333 131.499 -234s45.5 -187.834 45.5 -294.501v-22c0 -107.333 -15.167 -205.833 -45.5 -295.5s-74 -167.667 -131 -234s-125.5 -117.666 -205.5 -153.999s-169.333 -54.5 -268 -54.5z
M713 193c85.333 0 155.998 21.8311 211.998 65.498s97.833 104.834 125.5 183.501s41.5 170.334 41.5 275.001v24c0 103.333 -14 194 -42 272s-70.167 139 -126.5 183s-126.833 66 -211.5 66c-82.667 0 -151.667 -21.833 -207 -65.5s-96.833 -104.5 -124.5 -182.5
s-41.5 -169 -41.5 -273v-24c0 -104 13.833 -195.5 41.5 -274.5s69.334 -140.333 125.001 -184s124.834 -65.5 207.501 -65.5zM876.998 1572h-8h-208l-274 266l2 6h292z" />
    <glyph glyph-name="Oacute" unicode="&#xd3;" horiz-adv-x="1426" 
d="M713 -21c-97.333 0 -185.666 18.167 -264.999 54.5s-147.5 87.666 -204.5 153.999s-100.833 144.333 -131.5 234s-46 188.167 -46 295.5v22c0 106.667 15.333 204.834 46 294.501s74.5 167.667 131.5 234s125 117.833 204 154.5s167.167 55 264.5 55
c99.333 0 188.833 -18.333 268.5 -55s148.167 -88.167 205.5 -154.5s101.166 -144.333 131.499 -234s45.5 -187.834 45.5 -294.501v-22c0 -107.333 -15.167 -205.833 -45.5 -295.5s-74 -167.667 -131 -234s-125.5 -117.666 -205.5 -153.999s-169.333 -54.5 -268 -54.5z
M713 193c85.333 0 155.998 21.8311 211.998 65.498s97.833 104.834 125.5 183.501s41.5 170.334 41.5 275.001v24c0 103.333 -14 194 -42 272s-70.167 139 -126.5 183s-126.833 66 -211.5 66c-82.667 0 -151.667 -21.833 -207 -65.5s-96.833 -104.5 -124.5 -182.5
s-41.5 -169 -41.5 -273v-24c0 -104 13.833 -195.5 41.5 -274.5s69.334 -140.333 125.001 -184s124.834 -65.5 207.501 -65.5zM549.998 1572l196 272h292l2 -6l-274 -266h-208h-8z" />
    <glyph glyph-name="Ocircumflex" unicode="&#xd4;" horiz-adv-x="1426" 
d="M713 -21c-97.333 0 -185.666 18.167 -264.999 54.5s-147.5 87.666 -204.5 153.999s-100.833 144.333 -131.5 234s-46 188.167 -46 295.5v22c0 106.667 15.333 204.834 46 294.501s74.5 167.667 131.5 234s125 117.833 204 154.5s167.167 55 264.5 55
c99.333 0 188.833 -18.333 268.5 -55s148.167 -88.167 205.5 -154.5s101.166 -144.333 131.499 -234s45.5 -187.834 45.5 -294.501v-22c0 -107.333 -15.167 -205.833 -45.5 -295.5s-74 -167.667 -131 -234s-125.5 -117.666 -205.5 -153.999s-169.333 -54.5 -268 -54.5z
M713 193c85.333 0 155.998 21.8311 211.998 65.498s97.833 104.834 125.5 183.501s41.5 170.334 41.5 275.001v24c0 103.333 -14 194 -42 272s-70.167 139 -126.5 183s-126.833 66 -211.5 66c-82.667 0 -151.667 -21.833 -207 -65.5s-96.833 -104.5 -124.5 -182.5
s-41.5 -169 -41.5 -273v-24c0 -104 13.833 -195.5 41.5 -274.5s69.334 -140.333 125.001 -184s124.834 -65.5 207.501 -65.5zM362.998 1576v26l253 242h195l252 -244v-24h-214l-136 145l-139 -145h-211z" />
    <glyph glyph-name="Otilde" unicode="&#xd5;" horiz-adv-x="1426" 
d="M713 -21c-97.333 0 -185.666 18.167 -264.999 54.5s-147.5 87.666 -204.5 153.999s-100.833 144.333 -131.5 234s-46 188.167 -46 295.5v22c0 106.667 15.333 204.834 46 294.501s74.5 167.667 131.5 234s125 117.833 204 154.5s167.167 55 264.5 55
c99.333 0 188.833 -18.333 268.5 -55s148.167 -88.167 205.5 -154.5s101.166 -144.333 131.499 -234s45.5 -187.834 45.5 -294.501v-22c0 -107.333 -15.167 -205.833 -45.5 -295.5s-74 -167.667 -131 -234s-125.5 -117.666 -205.5 -153.999s-169.333 -54.5 -268 -54.5z
M713 193c85.333 0 155.998 21.8311 211.998 65.498s97.833 104.834 125.5 183.501s41.5 170.334 41.5 275.001v24c0 103.333 -14 194 -42 272s-70.167 139 -126.5 183s-126.833 66 -211.5 66c-82.667 0 -151.667 -21.833 -207 -65.5s-96.833 -104.5 -124.5 -182.5
s-41.5 -169 -41.5 -273v-24c0 -104 13.833 -195.5 41.5 -274.5s69.334 -140.333 125.001 -184s124.834 -65.5 207.501 -65.5zM486.998 1572l-142 35.999c0 44.667 10.333 85.667 31 123s48 67.333 82 90s71 34 111 34c32 0 65.167 -8 99.5 -24s67.166 -32.167 98.499 -48.5
s58.333 -24.5 81 -24.5c27.333 0.666992 49.5 11.334 66.5 32.001s25.5 46.667 25.5 78l142 -39c0 -45.333 -10.167 -86.666 -30.5 -123.999s-47.5 -67 -81.5 -89s-71.333 -33 -112 -33c-34.667 0 -69.167 8.16699 -103.5 24.5s-66.666 32.666 -96.999 48.999
s-56.833 24.5 -79.5 24.5c-27.333 0 -49.333 -10.667 -66 -32s-25 -47 -25 -77z" />
    <glyph glyph-name="Odieresis" unicode="&#xd6;" horiz-adv-x="1426" 
d="M713 -21c-97.333 0 -185.666 18.167 -264.999 54.5s-147.5 87.666 -204.5 153.999s-100.833 144.333 -131.5 234s-46 188.167 -46 295.5v22c0 106.667 15.333 204.834 46 294.501s74.5 167.667 131.5 234s125 117.833 204 154.5s167.167 55 264.5 55
c99.333 0 188.833 -18.333 268.5 -55s148.167 -88.167 205.5 -154.5s101.166 -144.333 131.499 -234s45.5 -187.834 45.5 -294.501v-22c0 -107.333 -15.167 -205.833 -45.5 -295.5s-74 -167.667 -131 -234s-125.5 -117.666 -205.5 -153.999s-169.333 -54.5 -268 -54.5z
M713 193c85.333 0 155.998 21.8311 211.998 65.498s97.833 104.834 125.5 183.501s41.5 170.334 41.5 275.001v24c0 103.333 -14 194 -42 272s-70.167 139 -126.5 183s-126.833 66 -211.5 66c-82.667 0 -151.667 -21.833 -207 -65.5s-96.833 -104.5 -124.5 -182.5
s-41.5 -169 -41.5 -273v-24c0 -104 13.833 -195.5 41.5 -274.5s69.334 -140.333 125.001 -184s124.834 -65.5 207.501 -65.5zM802.998 1603v241h266v-241h-266zM357.998 1603v241h265v-241h-265z" />
    <glyph glyph-name="multiply" unicode="&#xd7;" horiz-adv-x="1069" 
d="M226 211l-161 156l313 319l-313 319l161 156l309 -315l309 315l161 -156l-312 -319l312 -319l-161 -156l-309 314z" />
    <glyph glyph-name="Oslash" unicode="&#xd8;" horiz-adv-x="1426" 
d="M713 -21c-97.333 0 -185.666 18.167 -264.999 54.5s-147.5 87.666 -204.5 153.999s-100.833 144.333 -131.5 234s-46 188.167 -46 295.5v22c0 106.667 15.333 204.834 46 294.501s74.5 167.667 131.5 234s125 117.833 204 154.5s167.167 55 264.5 55
c99.333 0 188.833 -18.333 268.5 -55s148.167 -88.167 205.5 -154.5s101.166 -144.333 131.499 -234s45.5 -187.834 45.5 -294.501v-22c0 -107.333 -15.167 -205.833 -45.5 -295.5s-74 -167.667 -131 -234s-125.5 -117.666 -205.5 -153.999s-169.333 -54.5 -268 -54.5z
M713 193c85.333 0 155.998 21.8311 211.998 65.498s97.833 104.834 125.5 183.501s41.5 170.334 41.5 275.001v24c0 103.333 -14 194 -42 272s-70.167 139 -126.5 183s-126.833 66 -211.5 66c-82.667 0 -151.667 -21.833 -207 -65.5s-96.833 -104.5 -124.5 -182.5
s-41.5 -169 -41.5 -273v-24c0 -104 13.833 -195.5 41.5 -274.5s69.334 -140.333 125.001 -184s124.834 -65.5 207.501 -65.5zM154.998 -87.002l943 1613h173l-944 -1613h-172z" />
    <glyph glyph-name="Ugrave" unicode="&#xd9;" horiz-adv-x="1548" 
d="M772 -21c-112.667 0 -211.833 19.832 -297.5 59.499s-152.5 97.334 -200.5 173.001s-72 167.167 -72 274.5v775l-156 30v165h585v-165l-157 -30v-775c0 -66 12.167 -121 36.5 -165s58.833 -77 103.5 -99s97.334 -33 158.001 -33c62 0 115.667 10.833 161 32.5
s80.166 54.5 104.499 98.5s36.5 99.333 36.5 166v775l-157 30v165h586v-165l-157 -30v-775c0 -108 -24 -199.833 -72 -275.5s-115 -133.167 -201 -172.5s-186.333 -59 -301 -59zM937.001 1572h-8h-208l-274 266l2 6h292z" />
    <glyph glyph-name="Uacute" unicode="&#xda;" horiz-adv-x="1548" 
d="M772 -21c-112.667 0 -211.833 19.832 -297.5 59.499s-152.5 97.334 -200.5 173.001s-72 167.167 -72 274.5v775l-156 30v165h585v-165l-157 -30v-775c0 -66 12.167 -121 36.5 -165s58.833 -77 103.5 -99s97.334 -33 158.001 -33c62 0 115.667 10.833 161 32.5
s80.166 54.5 104.499 98.5s36.5 99.333 36.5 166v775l-157 30v165h586v-165l-157 -30v-775c0 -108 -24 -199.833 -72 -275.5s-115 -133.167 -201 -172.5s-186.333 -59 -301 -59zM611.001 1572l196 272h292l2 -6l-274 -266h-208h-8z" />
    <glyph glyph-name="Ucircumflex" unicode="&#xdb;" horiz-adv-x="1548" 
d="M772 -21c-112.667 0 -211.833 19.832 -297.5 59.499s-152.5 97.334 -200.5 173.001s-72 167.167 -72 274.5v775l-156 30v165h585v-165l-157 -30v-775c0 -66 12.167 -121 36.5 -165s58.833 -77 103.5 -99s97.334 -33 158.001 -33c62 0 115.667 10.833 161 32.5
s80.166 54.5 104.499 98.5s36.5 99.333 36.5 166v775l-157 30v165h586v-165l-157 -30v-775c0 -108 -24 -199.833 -72 -275.5s-115 -133.167 -201 -172.5s-186.333 -59 -301 -59zM424.001 1576v26l253 242h195l252 -244v-24h-214l-136 145l-139 -145h-211z" />
    <glyph glyph-name="Udieresis" unicode="&#xdc;" horiz-adv-x="1548" 
d="M772 -21c-112.667 0 -211.833 19.832 -297.5 59.499s-152.5 97.334 -200.5 173.001s-72 167.167 -72 274.5v775l-156 30v165h585v-165l-157 -30v-775c0 -66 12.167 -121 36.5 -165s58.833 -77 103.5 -99s97.334 -33 158.001 -33c62 0 115.667 10.833 161 32.5
s80.166 54.5 104.499 98.5s36.5 99.333 36.5 166v775l-157 30v165h586v-165l-157 -30v-775c0 -108 -24 -199.833 -72 -275.5s-115 -133.167 -201 -172.5s-186.333 -59 -301 -59zM864.001 1603v241h266v-241h-266zM419.001 1603v241h265v-241h-265z" />
    <glyph glyph-name="Yacute" unicode="&#xdd;" horiz-adv-x="1498" 
d="M456 0v164l157 30v312l-435 765l-136 20v165h564v-165l-129 -18l256 -488l22 -45l5 1l22 43l280 489l-162 18v165h553v-165l-140 -20l-429 -744v-333l158 -30v-164h-586zM586 1572l196 272h292l2 -6l-274 -266h-208h-8z" />
    <glyph glyph-name="Thorn" unicode="&#xde;" horiz-adv-x="1288" 
d="M68 0v164l157 30v1067l-157 30v165h429h157v-165l-157 -30v-100h221c164 0 291.833 -39 383.5 -117s137.5 -180 137.5 -306c0 -126.667 -45.833 -229.167 -137.5 -307.5s-219.5 -117.5 -383.5 -117.5h-221v-119l157 -30v-164h-586zM497 518l221 -0.000976562
c55.333 0 101.333 9.66699 138 29s64.334 45.333 83.001 78s28 69.667 28 111c0 40.667 -9.33301 77.834 -28 111.501s-46.334 60.167 -83.001 79.5s-82.667 29 -138 29h-221v-438z" />
    <glyph glyph-name="germandbls" unicode="&#xdf;" horiz-adv-x="1314" 
d="M837 -21c-34.667 0 -69.6709 2.5 -105.004 7.5s-67.5 11.833 -96.5 20.5s-51.833 19 -68.5 31l51 209c24.667 -15.333 55.834 -29 93.501 -41s76.5 -18 116.5 -18c55.333 0 97.833 13.333 127.5 40s44.5 62.667 44.5 108c0 32.667 -10.5 64.667 -31.5 96
s-46.667 62.333 -77 93l-92 94.5c-31 32.333 -56.833 66.333 -77.5 102s-31 74.167 -31 115.5c0 31.333 5.66699 62.666 17 93.999s24.833 62.833 40.5 94.5s29.334 63.834 41.001 96.501s17.5 65 17.5 97c0 44.667 -13.333 81.334 -40 110.001s-63 43 -109 43
c-57.333 0 -102.833 -22.5 -136.5 -67.5s-50.5 -106.833 -50.5 -185.5v-1119h-429v164l157 30v924c0 98.667 18.833 182.334 56.5 251.001s90.667 121.167 159 157.5s148.5 54.5 240.5 54.5c82 0 154.333 -14.167 217 -42.5s111.834 -69.166 147.501 -122.499
s53.5 -117.333 53.5 -192c0 -42.667 -5.66699 -81.834 -17 -117.501s-24.333 -68.334 -39 -98.001s-27.667 -57.5 -39 -83.5s-17 -50.667 -17 -74c0 -30 10.333 -58.333 31 -85s46.5 -53.834 77.5 -81.501s62 -58 93 -91s56.833 -70.333 77.5 -112s31 -90.167 31 -145.5
c0 -78 -16.833 -143.5 -50.5 -196.5s-82.667 -93 -147 -120s-143.166 -40.5 -236.499 -40.5z" />
    <glyph glyph-name="agrave" unicode="&#xe0;" horiz-adv-x="1149" 
d="M425 -21c-108.667 0 -194.169 28.5 -256.502 85.5s-93.5 135.167 -93.5 234.5c0 68 18.5 127.833 55.5 179.5s91.667 92 164 121s160.5 43.5 264.5 43.5h154v85c0 54.667 -16.167 98.667 -48.5 132s-79.833 50 -142.5 50c-34 0 -64.5 -4.16699 -91.5 -12.5
s-51.167 -20.166 -72.5 -35.499l-23 -145h-198l-2 274c54.667 33.333 114.834 60.166 180.501 80.499s138.834 30.5 219.501 30.5c139.333 0 249.166 -32.5 329.499 -97.5s120.5 -158.167 120.5 -279.5v-461c0 -14.667 0.166992 -29 0.5 -43s1.5 -27.667 3.5 -41l111 -16
v-164h-345c-7.33301 20.667 -14.166 41.834 -20.499 63.501s-10.833 43.5 -13.5 65.5c-35.333 -44.667 -77.5 -80.834 -126.5 -108.501s-105.5 -41.5 -169.5 -41.5zM491.998 184c46 0 89.167 10.667 129.5 32s70.833 48.333 91.5 81v176h-155
c-70 0 -122.833 -16.167 -158.5 -48.5s-53.5 -70.5 -53.5 -114.5c0 -40 12.667 -71 38 -93s61.333 -33 108 -33zM707.998 1288h-8h-208l-274 266l2 6h292z" />
    <glyph glyph-name="aacute" unicode="&#xe1;" horiz-adv-x="1149" 
d="M425 -21c-108.667 0 -194.169 28.5 -256.502 85.5s-93.5 135.167 -93.5 234.5c0 68 18.5 127.833 55.5 179.5s91.667 92 164 121s160.5 43.5 264.5 43.5h154v85c0 54.667 -16.167 98.667 -48.5 132s-79.833 50 -142.5 50c-34 0 -64.5 -4.16699 -91.5 -12.5
s-51.167 -20.166 -72.5 -35.499l-23 -145h-198l-2 274c54.667 33.333 114.834 60.166 180.501 80.499s138.834 30.5 219.501 30.5c139.333 0 249.166 -32.5 329.499 -97.5s120.5 -158.167 120.5 -279.5v-461c0 -14.667 0.166992 -29 0.5 -43s1.5 -27.667 3.5 -41l111 -16
v-164h-345c-7.33301 20.667 -14.166 41.834 -20.499 63.501s-10.833 43.5 -13.5 65.5c-35.333 -44.667 -77.5 -80.834 -126.5 -108.501s-105.5 -41.5 -169.5 -41.5zM491.998 184c46 0 89.167 10.667 129.5 32s70.833 48.333 91.5 81v176h-155
c-70 0 -122.833 -16.167 -158.5 -48.5s-53.5 -70.5 -53.5 -114.5c0 -40 12.667 -71 38 -93s61.333 -33 108 -33zM380.998 1288l196 272h292l2 -6l-274 -266h-208h-8z" />
    <glyph glyph-name="acircumflex" unicode="&#xe2;" horiz-adv-x="1149" 
d="M425 -21c-108.667 0 -194.169 28.5 -256.502 85.5s-93.5 135.167 -93.5 234.5c0 68 18.5 127.833 55.5 179.5s91.667 92 164 121s160.5 43.5 264.5 43.5h154v85c0 54.667 -16.167 98.667 -48.5 132s-79.833 50 -142.5 50c-34 0 -64.5 -4.16699 -91.5 -12.5
s-51.167 -20.166 -72.5 -35.499l-23 -145h-198l-2 274c54.667 33.333 114.834 60.166 180.501 80.499s138.834 30.5 219.501 30.5c139.333 0 249.166 -32.5 329.499 -97.5s120.5 -158.167 120.5 -279.5v-461c0 -14.667 0.166992 -29 0.5 -43s1.5 -27.667 3.5 -41l111 -16
v-164h-345c-7.33301 20.667 -14.166 41.834 -20.499 63.501s-10.833 43.5 -13.5 65.5c-35.333 -44.667 -77.5 -80.834 -126.5 -108.501s-105.5 -41.5 -169.5 -41.5zM491.998 184c46 0 89.167 10.667 129.5 32s70.833 48.333 91.5 81v176h-155
c-70 0 -122.833 -16.167 -158.5 -48.5s-53.5 -70.5 -53.5 -114.5c0 -40 12.667 -71 38 -93s61.333 -33 108 -33zM193.998 1292v26l253 242h195l252 -244v-24h-214l-136 145l-139 -145h-211z" />
    <glyph glyph-name="atilde" unicode="&#xe3;" horiz-adv-x="1149" 
d="M425 -21c-108.667 0 -194.169 28.5 -256.502 85.5s-93.5 135.167 -93.5 234.5c0 68 18.5 127.833 55.5 179.5s91.667 92 164 121s160.5 43.5 264.5 43.5h154v85c0 54.667 -16.167 98.667 -48.5 132s-79.833 50 -142.5 50c-34 0 -64.5 -4.16699 -91.5 -12.5
s-51.167 -20.166 -72.5 -35.499l-23 -145h-198l-2 274c54.667 33.333 114.834 60.166 180.501 80.499s138.834 30.5 219.501 30.5c139.333 0 249.166 -32.5 329.499 -97.5s120.5 -158.167 120.5 -279.5v-461c0 -14.667 0.166992 -29 0.5 -43s1.5 -27.667 3.5 -41l111 -16
v-164h-345c-7.33301 20.667 -14.166 41.834 -20.499 63.501s-10.833 43.5 -13.5 65.5c-35.333 -44.667 -77.5 -80.834 -126.5 -108.501s-105.5 -41.5 -169.5 -41.5zM491.998 184c46 0 89.167 10.667 129.5 32s70.833 48.333 91.5 81v176h-155
c-70 0 -122.833 -16.167 -158.5 -48.5s-53.5 -70.5 -53.5 -114.5c0 -40 12.667 -71 38 -93s61.333 -33 108 -33zM316.998 1288l-142 35.999c0 44.667 10.333 85.667 31 123s48 67.333 82 90s71 34 111 34c32 0 65.167 -8 99.5 -24s67.166 -32.167 98.499 -48.5
s58.333 -24.5 81 -24.5c27.333 0.666992 49.5 11.334 66.5 32.001s25.5 46.667 25.5 78l142 -39c0 -45.333 -10.167 -86.666 -30.5 -123.999s-47.5 -67 -81.5 -89s-71.333 -33 -112 -33c-34.667 0 -69.167 8.16699 -103.5 24.5s-66.666 32.666 -96.999 48.999
s-56.833 24.5 -79.5 24.5c-27.333 0 -49.333 -10.667 -66 -32s-25 -47 -25 -77z" />
    <glyph glyph-name="adieresis" unicode="&#xe4;" horiz-adv-x="1149" 
d="M425 -21c-108.667 0 -194.169 28.5 -256.502 85.5s-93.5 135.167 -93.5 234.5c0 68 18.5 127.833 55.5 179.5s91.667 92 164 121s160.5 43.5 264.5 43.5h154v85c0 54.667 -16.167 98.667 -48.5 132s-79.833 50 -142.5 50c-34 0 -64.5 -4.16699 -91.5 -12.5
s-51.167 -20.166 -72.5 -35.499l-23 -145h-198l-2 274c54.667 33.333 114.834 60.166 180.501 80.499s138.834 30.5 219.501 30.5c139.333 0 249.166 -32.5 329.499 -97.5s120.5 -158.167 120.5 -279.5v-461c0 -14.667 0.166992 -29 0.5 -43s1.5 -27.667 3.5 -41l111 -16
v-164h-345c-7.33301 20.667 -14.166 41.834 -20.499 63.501s-10.833 43.5 -13.5 65.5c-35.333 -44.667 -77.5 -80.834 -126.5 -108.501s-105.5 -41.5 -169.5 -41.5zM491.998 184c46 0 89.167 10.667 129.5 32s70.833 48.333 91.5 81v176h-155
c-70 0 -122.833 -16.167 -158.5 -48.5s-53.5 -70.5 -53.5 -114.5c0 -40 12.667 -71 38 -93s61.333 -33 108 -33zM633.998 1319v241h266v-241h-266zM188.998 1319v241h265v-241h-265z" />
    <glyph glyph-name="aring" unicode="&#xe5;" horiz-adv-x="1149" 
d="M425 -21c-108.667 0 -194.169 28.5 -256.502 85.5s-93.5 135.167 -93.5 234.5c0 68 18.5 127.833 55.5 179.5s91.667 92 164 121s160.5 43.5 264.5 43.5h154v85c0 54.667 -16.167 98.667 -48.5 132s-79.833 50 -142.5 50c-34 0 -64.5 -4.16699 -91.5 -12.5
s-51.167 -20.166 -72.5 -35.499l-23 -145h-198l-2 274c54.667 33.333 114.834 60.166 180.501 80.499s138.834 30.5 219.501 30.5c139.333 0 249.166 -32.5 329.499 -97.5s120.5 -158.167 120.5 -279.5v-461c0 -14.667 0.166992 -29 0.5 -43s1.5 -27.667 3.5 -41l111 -16
v-164h-345c-7.33301 20.667 -14.166 41.834 -20.499 63.501s-10.833 43.5 -13.5 65.5c-35.333 -44.667 -77.5 -80.834 -126.5 -108.501s-105.5 -41.5 -169.5 -41.5zM491.998 184c46 0 89.167 10.667 129.5 32s70.833 48.333 91.5 81v176h-155
c-70 0 -122.833 -16.167 -158.5 -48.5s-53.5 -70.5 -53.5 -114.5c0 -40 12.667 -71 38 -93s61.333 -33 108 -33zM545.998 1227c-64.667 0 -119 19.667 -163 59s-66 90 -66 152c0 60 22.167 110.667 66.5 152s98.5 62 162.5 62c63.333 0 116.666 -20.667 159.999 -62
s65 -92 65 -152c0 -62 -21.667 -112.667 -65 -152s-96.666 -59 -159.999 -59zM545.998 1339c27.333 0 50 9.00098 68 27.001s27 42 27 72c0 29.333 -9 53.333 -27 72s-40.667 28 -68 28c-28 0 -51.5 -9.33301 -70.5 -28s-28.5 -42.667 -28.5 -72
c0 -28.667 9.5 -52.334 28.5 -71.001s42.5 -28 70.5 -28z" />
    <glyph glyph-name="ae" unicode="&#xe6;" horiz-adv-x="1724" 
d="M445 -21c-118 0 -209.169 29 -273.502 87s-96.5 137 -96.5 237c0 68 18.667 127.667 56 179s92 91.333 164 120s160.333 43 265 43h154v83c0 54.667 -16.167 98.667 -48.5 132s-80.166 50 -143.499 50c-34 0 -64.333 -4.16699 -91 -12.5s-51 -20.166 -73 -35.499
l-22 -145h-198l-3 274c54.667 33.333 115 60.166 181 80.499s139.333 30.5 220 30.5c74.667 0 140.667 -11.833 198 -35.5s103.666 -59.834 138.999 -108.501c28 32 58.833 58.667 92.5 80s70 37.333 109 48s80.167 16 123.5 16c94.667 0 175.667 -19.833 243 -59.5
s119 -96 155 -169s54 -159.833 54 -260.5v-150h-663l-2 -6c2.66699 -81.333 26 -146.5 70 -195.5s110.333 -73.5 199 -73.5c61.333 0 112.833 7.33301 154.5 22s88.5 36.334 140.5 65.001l75 -175c-40.667 -31.333 -95.667 -59.333 -165 -84s-147 -37 -233 -37
c-170 0 -302.667 58 -398 174c-47.333 -56 -102.666 -99 -165.999 -129s-135.666 -45 -216.999 -45zM492.998 184c32.667 0 64.168 6 94.501 18s58 28.333 83 49s45.167 44 60.5 70c-6.66699 27.333 -11.167 53 -13.5 77s-3.5 48 -3.5 72v6h-156
c-69.333 0 -122 -16 -158 -48s-54 -69.667 -54 -113c0 -38.667 12.667 -70.167 38 -94.5s61.666 -36.5 108.999 -36.5zM987.999 643h395v29c0 66.667 -16.167 120 -48.5 160s-79.833 60 -142.5 60c-39.333 0 -73.833 -10 -103.5 -30s-53.167 -48.333 -70.5 -85
s-28 -79.667 -32 -129z" />
    <glyph glyph-name="ccedilla" unicode="&#xe7;" horiz-adv-x="1079" 
d="M570 -21c-102.667 0 -191.5 23.1689 -266.5 69.502s-132.833 110.5 -173.5 192.5s-61 176.333 -61 283v33c0 105.333 20.5 199 61.5 281s98.833 146.5 173.5 193.5s162.667 70.5 264 70.5c95.333 0 177.833 -15 247.5 -45s126.167 -66 169.5 -108v-300h-206l-38 193
c-17.333 17.333 -39.333 31.333 -66 42s-55 16 -85 16c-54 0 -99.5 -14.167 -136.5 -42.5s-65 -68 -84 -119s-28.5 -111.5 -28.5 -181.5v-33c0 -75.333 10 -137.833 30 -187.5s47.5 -86.834 82.5 -111.501s74.167 -37 117.5 -37c54.667 0 99 14.5 133 43.5
s56.667 69.833 68 122.5h233l3 -6c-9.33301 -73.333 -30.833 -137.833 -64.5 -193.5s-81 -98.834 -142 -129.501s-138.167 -46 -231.5 -46zM441 -453.998l-7.00098 149.001c42 0 75.333 6.83301 100 20.5s37 34.5 37 62.5c0 28.667 -11.833 48.667 -35.5 60
s-61.5 18.666 -113.5 21.999l35 161h200l-15 -77c44.667 -7.33301 81.834 -24.333 111.501 -51s44.5 -66 44.5 -118c0 -69.333 -31 -124.833 -93 -166.5s-150 -62.5 -264 -62.5z" />
    <glyph glyph-name="egrave" unicode="&#xe8;" horiz-adv-x="1074" 
d="M578 -21c-102.667 0 -192.167 22.832 -268.5 68.499s-135.5 108.667 -177.5 189s-63 172.166 -63 275.499v41c0 106 20.167 200.5 60.5 283.5s96.833 148 169.5 195s156.667 70.5 252 70.5c98 0 180.333 -19.5 247 -58.5s117 -94.833 151 -167.5s51 -160 51 -262v-151
h-649l-2 -6c2.66699 -52 14.334 -98.167 35.001 -138.5s49.667 -72.166 87 -95.499s82.666 -35 135.999 -35c56.667 0 108.5 7.33301 155.5 22s91.833 36.334 134.5 65.001l78 -169c-43.333 -36 -98.333 -66.167 -165 -90.5s-144 -36.5 -232 -36.5zM354 647.999
l390.001 -0.000976562v26c0 45.333 -6.66699 84.833 -20 118.5s-33.833 59.834 -61.5 78.501s-63.5 28 -107.5 28c-40 0 -74.333 -10.833 -103 -32.5s-51.334 -51 -68.001 -88s-27.667 -78.833 -33 -125.5zM710.001 1288h-8h-208l-274 266l2 6h292z" />
    <glyph glyph-name="eacute" unicode="&#xe9;" horiz-adv-x="1074" 
d="M578 -21c-102.667 0 -192.167 22.832 -268.5 68.499s-135.5 108.667 -177.5 189s-63 172.166 -63 275.499v41c0 106 20.167 200.5 60.5 283.5s96.833 148 169.5 195s156.667 70.5 252 70.5c98 0 180.333 -19.5 247 -58.5s117 -94.833 151 -167.5s51 -160 51 -262v-151
h-649l-2 -6c2.66699 -52 14.334 -98.167 35.001 -138.5s49.667 -72.166 87 -95.499s82.666 -35 135.999 -35c56.667 0 108.5 7.33301 155.5 22s91.833 36.334 134.5 65.001l78 -169c-43.333 -36 -98.333 -66.167 -165 -90.5s-144 -36.5 -232 -36.5zM354 647.999
l390.001 -0.000976562v26c0 45.333 -6.66699 84.833 -20 118.5s-33.833 59.834 -61.5 78.501s-63.5 28 -107.5 28c-40 0 -74.333 -10.833 -103 -32.5s-51.334 -51 -68.001 -88s-27.667 -78.833 -33 -125.5zM383.001 1288l196 272h292l2 -6l-274 -266h-208h-8z" />
    <glyph glyph-name="ecircumflex" unicode="&#xea;" horiz-adv-x="1074" 
d="M578 -21c-102.667 0 -192.167 22.832 -268.5 68.499s-135.5 108.667 -177.5 189s-63 172.166 -63 275.499v41c0 106 20.167 200.5 60.5 283.5s96.833 148 169.5 195s156.667 70.5 252 70.5c98 0 180.333 -19.5 247 -58.5s117 -94.833 151 -167.5s51 -160 51 -262v-151
h-649l-2 -6c2.66699 -52 14.334 -98.167 35.001 -138.5s49.667 -72.166 87 -95.499s82.666 -35 135.999 -35c56.667 0 108.5 7.33301 155.5 22s91.833 36.334 134.5 65.001l78 -169c-43.333 -36 -98.333 -66.167 -165 -90.5s-144 -36.5 -232 -36.5zM354 647.999
l390.001 -0.000976562v26c0 45.333 -6.66699 84.833 -20 118.5s-33.833 59.834 -61.5 78.501s-63.5 28 -107.5 28c-40 0 -74.333 -10.833 -103 -32.5s-51.334 -51 -68.001 -88s-27.667 -78.833 -33 -125.5zM196.001 1292v26l253 242h195l252 -244v-24h-214l-136 145
l-139 -145h-211z" />
    <glyph glyph-name="edieresis" unicode="&#xeb;" horiz-adv-x="1074" 
d="M578 -21c-102.667 0 -192.167 22.832 -268.5 68.499s-135.5 108.667 -177.5 189s-63 172.166 -63 275.499v41c0 106 20.167 200.5 60.5 283.5s96.833 148 169.5 195s156.667 70.5 252 70.5c98 0 180.333 -19.5 247 -58.5s117 -94.833 151 -167.5s51 -160 51 -262v-151
h-649l-2 -6c2.66699 -52 14.334 -98.167 35.001 -138.5s49.667 -72.166 87 -95.499s82.666 -35 135.999 -35c56.667 0 108.5 7.33301 155.5 22s91.833 36.334 134.5 65.001l78 -169c-43.333 -36 -98.333 -66.167 -165 -90.5s-144 -36.5 -232 -36.5zM354 647.999
l390.001 -0.000976562v26c0 45.333 -6.66699 84.833 -20 118.5s-33.833 59.834 -61.5 78.501s-63.5 28 -107.5 28c-40 0 -74.333 -10.833 -103 -32.5s-51.334 -51 -68.001 -88s-27.667 -78.833 -33 -125.5zM636.001 1319v241h266v-241h-266zM191.001 1319v241h265v-241h-265
z" />
    <glyph glyph-name="igrave" unicode="&#xec;" horiz-adv-x="659" 
d="M57 0v164l145 30v693l-157 30v165h429v-888l145 -30v-164h-562zM497 1288h-8h-208l-274 266l2 6h292z" />
    <glyph glyph-name="iacute" unicode="&#xed;" horiz-adv-x="659" 
d="M57 0v164l145 30v693l-157 30v165h429v-888l145 -30v-164h-562zM170 1288l196 272h292l2 -6l-274 -266h-208h-8z" />
    <glyph glyph-name="icircumflex" unicode="&#xee;" horiz-adv-x="659" 
d="M57 0v164l145 30v693l-157 30v165h429v-888l145 -30v-164h-562zM-17 1292v26l253 242h195l252 -244v-24h-214l-136 145l-139 -145h-211z" />
    <glyph glyph-name="idieresis" unicode="&#xef;" horiz-adv-x="659" 
d="M57 0v164l145 30v693l-157 30v165h429v-888l145 -30v-164h-562zM423 1319v241h266v-241h-266zM-22 1319v241h265v-241h-265z" />
    <glyph glyph-name="eth" unicode="&#xf0;" horiz-adv-x="1211" 
d="M593 -21c-104 0 -195.835 21.501 -275.502 64.501s-141.834 102 -186.501 177s-67 159.833 -67 254.5c0 98 20.167 184.167 60.5 258.5s97.5 132.166 171.5 173.499s161 62 261 62c52.667 0 102.334 -8 149.001 -24s87 -37.667 121 -65l4 4
c-13.333 53.333 -33.166 102.666 -59.499 147.999s-57.833 86.333 -94.5 123l-239 -134l-78 111l201 113c-23.333 13.333 -47.333 25.333 -72 36s-49.667 20.334 -75 29.001l85 207c56 -14 109.167 -32.833 159.5 -56.5s97.833 -51.5 142.5 -83.5l213 120l77 -111l-185 -103
c72 -78.667 127.833 -171.167 167.5 -277.5s59.5 -223.166 59.5 -350.499v-81c0 -116 -23.667 -218.833 -71 -308.5s-111.666 -159.834 -192.999 -210.501s-173.333 -76 -276 -76zM591.998 188.001c55.333 0 103.167 16.667 143.5 50s71.333 79 93 137
s32.5 124.333 32.5 199v59v34c-22.667 29.333 -56.667 53.666 -102 72.999s-98.333 29 -159 29c-55.333 0 -102.833 -12.667 -142.5 -38s-70 -60.333 -91 -105s-31.5 -95.667 -31.5 -153c0 -52.667 10.667 -100.667 32 -144s51.333 -77.666 90 -102.999s83.667 -38 135 -38z
" />
    <glyph glyph-name="ntilde" unicode="&#xf1;" horiz-adv-x="1315" 
d="M56 0v164.001l145 30v693l-156 30v165h408l13 -156c36 55.333 80.833 98.5 134.5 129.5s114.5 46.5 182.5 46.5c108.667 0 193.834 -34.167 255.501 -102.5s92.5 -175.5 92.5 -321.5v-484l145 -30v-164h-551v164l133 30v482c0 77.333 -15.333 132.166 -46 164.499
s-76.334 48.5 -137.001 48.5c-45.333 0 -84.833 -9.83301 -118.5 -29.5s-61.5 -47.5 -83.5 -83.5v-582l128 -30v-164h-545zM433 1288l-142 35.999c0 44.667 10.333 85.667 31 123s48 67.333 82 90s71 34 111 34c32 0 65.167 -8 99.5 -24s67.166 -32.167 98.499 -48.5
s58.333 -24.5 81 -24.5c27.333 0.666992 49.5 11.334 66.5 32.001s25.5 46.667 25.5 78l142 -39c0 -45.333 -10.167 -86.666 -30.5 -123.999s-47.5 -67 -81.5 -89s-71.333 -33 -112 -33c-34.667 0 -69.167 8.16699 -103.5 24.5s-66.666 32.666 -96.999 48.999
s-56.833 24.5 -79.5 24.5c-27.333 0 -49.333 -10.667 -66 -32s-25 -47 -25 -77z" />
    <glyph glyph-name="ograve" unicode="&#xf2;" horiz-adv-x="1148" 
d="M576 -21c-106 0 -196.666 23.333 -271.999 70s-133.333 111.5 -174 194.5s-61 178.5 -61 286.5v21c0 107.333 20.333 202.333 61 285s98.667 147.667 174 195s165.333 71 270 71c105.333 0 195.666 -23.5 270.999 -70.5s133.166 -111.833 173.499 -194.5
s60.5 -178 60.5 -286v-21c0 -108 -20.167 -203.5 -60.5 -286.5s-98.166 -147.833 -173.499 -194.5s-165 -70 -269 -70zM576.001 188c52.667 0 96.166 14.332 130.499 42.999s59.833 68.834 76.5 120.501s25 111.167 25 178.5v21c0 66.667 -8.33301 125.667 -25 177
s-42.334 91.5 -77.001 120.5s-78.667 43.5 -132 43.5s-97.166 -14.5 -131.499 -43.5s-59.833 -69.167 -76.5 -120.5s-25 -110.333 -25 -177v-21c0 -68 8.33301 -127.667 25 -179s42.334 -91.333 77.001 -120s79 -43 133 -43zM738 1288h-8h-208l-274 266l2 6h292z" />
    <glyph glyph-name="oacute" unicode="&#xf3;" horiz-adv-x="1148" 
d="M576 -21c-106 0 -196.666 23.333 -271.999 70s-133.333 111.5 -174 194.5s-61 178.5 -61 286.5v21c0 107.333 20.333 202.333 61 285s98.667 147.667 174 195s165.333 71 270 71c105.333 0 195.666 -23.5 270.999 -70.5s133.166 -111.833 173.499 -194.5
s60.5 -178 60.5 -286v-21c0 -108 -20.167 -203.5 -60.5 -286.5s-98.166 -147.833 -173.499 -194.5s-165 -70 -269 -70zM576.001 188c52.667 0 96.166 14.332 130.499 42.999s59.833 68.834 76.5 120.501s25 111.167 25 178.5v21c0 66.667 -8.33301 125.667 -25 177
s-42.334 91.5 -77.001 120.5s-78.667 43.5 -132 43.5s-97.166 -14.5 -131.499 -43.5s-59.833 -69.167 -76.5 -120.5s-25 -110.333 -25 -177v-21c0 -68 8.33301 -127.667 25 -179s42.334 -91.333 77.001 -120s79 -43 133 -43zM411 1288l196 272h292l2 -6l-274 -266h-208h-8z
" />
    <glyph glyph-name="ocircumflex" unicode="&#xf4;" horiz-adv-x="1148" 
d="M576 -21c-106 0 -196.666 23.333 -271.999 70s-133.333 111.5 -174 194.5s-61 178.5 -61 286.5v21c0 107.333 20.333 202.333 61 285s98.667 147.667 174 195s165.333 71 270 71c105.333 0 195.666 -23.5 270.999 -70.5s133.166 -111.833 173.499 -194.5
s60.5 -178 60.5 -286v-21c0 -108 -20.167 -203.5 -60.5 -286.5s-98.166 -147.833 -173.499 -194.5s-165 -70 -269 -70zM576.001 188c52.667 0 96.166 14.332 130.499 42.999s59.833 68.834 76.5 120.501s25 111.167 25 178.5v21c0 66.667 -8.33301 125.667 -25 177
s-42.334 91.5 -77.001 120.5s-78.667 43.5 -132 43.5s-97.166 -14.5 -131.499 -43.5s-59.833 -69.167 -76.5 -120.5s-25 -110.333 -25 -177v-21c0 -68 8.33301 -127.667 25 -179s42.334 -91.333 77.001 -120s79 -43 133 -43zM224 1292v26l253 242h195l252 -244v-24h-214
l-136 145l-139 -145h-211z" />
    <glyph glyph-name="otilde" unicode="&#xf5;" horiz-adv-x="1148" 
d="M576 -21c-106 0 -196.666 23.333 -271.999 70s-133.333 111.5 -174 194.5s-61 178.5 -61 286.5v21c0 107.333 20.333 202.333 61 285s98.667 147.667 174 195s165.333 71 270 71c105.333 0 195.666 -23.5 270.999 -70.5s133.166 -111.833 173.499 -194.5
s60.5 -178 60.5 -286v-21c0 -108 -20.167 -203.5 -60.5 -286.5s-98.166 -147.833 -173.499 -194.5s-165 -70 -269 -70zM576.001 188c52.667 0 96.166 14.332 130.499 42.999s59.833 68.834 76.5 120.501s25 111.167 25 178.5v21c0 66.667 -8.33301 125.667 -25 177
s-42.334 91.5 -77.001 120.5s-78.667 43.5 -132 43.5s-97.166 -14.5 -131.499 -43.5s-59.833 -69.167 -76.5 -120.5s-25 -110.333 -25 -177v-21c0 -68 8.33301 -127.667 25 -179s42.334 -91.333 77.001 -120s79 -43 133 -43zM348 1288l-142 35.999
c0 44.667 10.333 85.667 31 123s48 67.333 82 90s71 34 111 34c32 0 65.167 -8 99.5 -24s67.166 -32.167 98.499 -48.5s58.333 -24.5 81 -24.5c27.333 0.666992 49.5 11.334 66.5 32.001s25.5 46.667 25.5 78l142 -39c0 -45.333 -10.167 -86.666 -30.5 -123.999
s-47.5 -67 -81.5 -89s-71.333 -33 -112 -33c-34.667 0 -69.167 8.16699 -103.5 24.5s-66.666 32.666 -96.999 48.999s-56.833 24.5 -79.5 24.5c-27.333 0 -49.333 -10.667 -66 -32s-25 -47 -25 -77z" />
    <glyph glyph-name="odieresis" unicode="&#xf6;" horiz-adv-x="1148" 
d="M576 -21c-106 0 -196.666 23.333 -271.999 70s-133.333 111.5 -174 194.5s-61 178.5 -61 286.5v21c0 107.333 20.333 202.333 61 285s98.667 147.667 174 195s165.333 71 270 71c105.333 0 195.666 -23.5 270.999 -70.5s133.166 -111.833 173.499 -194.5
s60.5 -178 60.5 -286v-21c0 -108 -20.167 -203.5 -60.5 -286.5s-98.166 -147.833 -173.499 -194.5s-165 -70 -269 -70zM576.001 188c52.667 0 96.166 14.332 130.499 42.999s59.833 68.834 76.5 120.501s25 111.167 25 178.5v21c0 66.667 -8.33301 125.667 -25 177
s-42.334 91.5 -77.001 120.5s-78.667 43.5 -132 43.5s-97.166 -14.5 -131.499 -43.5s-59.833 -69.167 -76.5 -120.5s-25 -110.333 -25 -177v-21c0 -68 8.33301 -127.667 25 -179s42.334 -91.333 77.001 -120s79 -43 133 -43zM664 1319v241h266v-241h-266zM219 1319v241h265
v-241h-265z" />
    <glyph glyph-name="divide" unicode="&#xf7;" horiz-adv-x="1136" 
d="M60 578v219h1021v-219h-1021zM436 167v227h272v-227h-272zM436 979v226h272v-226h-272z" />
    <glyph glyph-name="oslash" unicode="&#xf8;" horiz-adv-x="1148" 
d="M576 -21c-106 0 -196.666 23.333 -271.999 70s-133.333 111.5 -174 194.5s-61 178.5 -61 286.5v21c0 107.333 20.333 202.333 61 285s98.667 147.667 174 195s165.333 71 270 71c105.333 0 195.666 -23.5 270.999 -70.5s133.166 -111.833 173.499 -194.5
s60.5 -178 60.5 -286v-21c0 -108 -20.167 -203.5 -60.5 -286.5s-98.166 -147.833 -173.499 -194.5s-165 -70 -269 -70zM576.001 188c52.667 0 96.166 14.332 130.499 42.999s59.833 68.834 76.5 120.501s25 111.167 25 178.5v21c0 66.667 -8.33301 125.667 -25 177
s-42.334 91.5 -77.001 120.5s-78.667 43.5 -132 43.5s-97.166 -14.5 -131.499 -43.5s-59.833 -69.167 -76.5 -120.5s-25 -110.333 -25 -177v-21c0 -68 8.33301 -127.667 25 -179s42.334 -91.333 77.001 -120s79 -43 133 -43zM165 -136.001l664 1354h154l-663 -1354h-155z
" />
    <glyph glyph-name="ugrave" unicode="&#xf9;" horiz-adv-x="1268" 
d="M528 -21c-115.333 0 -205.5 36.5 -270.5 109.5s-97.5 186.5 -97.5 340.5v458l-120 30v165h120h272v-655c0 -85.333 14.167 -145.833 42.5 -181.5s71.833 -53.5 130.5 -53.5c48.667 0 91 9.66699 127 29s65 47 87 83v583l-132 30v165h132h272v-888l129 -30v-164h-369
l-18 142c-34 -52.667 -76.833 -93 -128.5 -121s-110.5 -42 -176.5 -42zM788 1288h-8h-208l-274 266l2 6h292z" />
    <glyph glyph-name="uacute" unicode="&#xfa;" horiz-adv-x="1268" 
d="M528 -21c-115.333 0 -205.5 36.5 -270.5 109.5s-97.5 186.5 -97.5 340.5v458l-120 30v165h120h272v-655c0 -85.333 14.167 -145.833 42.5 -181.5s71.833 -53.5 130.5 -53.5c48.667 0 91 9.66699 127 29s65 47 87 83v583l-132 30v165h132h272v-888l129 -30v-164h-369
l-18 142c-34 -52.667 -76.833 -93 -128.5 -121s-110.5 -42 -176.5 -42zM461 1288l196 272h292l2 -6l-274 -266h-208h-8z" />
    <glyph glyph-name="ucircumflex" unicode="&#xfb;" horiz-adv-x="1268" 
d="M528 -21c-115.333 0 -205.5 36.5 -270.5 109.5s-97.5 186.5 -97.5 340.5v458l-120 30v165h120h272v-655c0 -85.333 14.167 -145.833 42.5 -181.5s71.833 -53.5 130.5 -53.5c48.667 0 91 9.66699 127 29s65 47 87 83v583l-132 30v165h132h272v-888l129 -30v-164h-369
l-18 142c-34 -52.667 -76.833 -93 -128.5 -121s-110.5 -42 -176.5 -42zM274 1292v26l253 242h195l252 -244v-24h-214l-136 145l-139 -145h-211z" />
    <glyph glyph-name="udieresis" unicode="&#xfc;" horiz-adv-x="1268" 
d="M528 -21c-115.333 0 -205.5 36.5 -270.5 109.5s-97.5 186.5 -97.5 340.5v458l-120 30v165h120h272v-655c0 -85.333 14.167 -145.833 42.5 -181.5s71.833 -53.5 130.5 -53.5c48.667 0 91 9.66699 127 29s65 47 87 83v583l-132 30v165h132h272v-888l129 -30v-164h-369
l-18 142c-34 -52.667 -76.833 -93 -128.5 -121s-110.5 -42 -176.5 -42zM714 1319v241h266v-241h-266zM269 1319v241h265v-241h-265z" />
    <glyph glyph-name="yacute" unicode="&#xfd;" horiz-adv-x="1266" 
d="M351 -437c-22.667 0 -47.834 2.16895 -75.501 6.50195s-52.834 9.5 -75.501 15.5l31 202c12 -2 26.167 -3.66699 42.5 -5s29.5 -2 39.5 -2c42.667 0 78.667 12 108 36s52 58 68 102l29 77l-366 903l-130 19v165h550v-165l-133 -20l179 -491l27 -77h6l212 569l-132 19v165
h516v-165l-119 -17l-416 -1062c-20 -50.667 -45.167 -96.834 -75.5 -138.501s-68.666 -74.834 -114.999 -99.501s-103.166 -37 -170.499 -37zM473 1288l196 272h292l2 -6l-274 -266h-208h-8z" />
    <glyph glyph-name="thorn" unicode="&#xfe;" horiz-adv-x="1224" 
d="M44 -416v165.002l145 30v1586l-157 30v165h429v-593c32 43.333 70.667 76.666 116 99.999s98.666 35 159.999 35c87.333 0 162.166 -23.833 224.499 -71.5s110 -114.5 143 -200.5s49.5 -186 49.5 -300v-21c0 -106 -16.667 -198.833 -50 -278.5
s-81.166 -141.5 -143.499 -185.5s-137.166 -66 -224.499 -66c-60 0 -112.833 10.667 -158.5 32s-84.5 52.666 -116.5 93.999v-326l145 -30v-165h-562zM653 188.002c79.333 0 137.333 29 174 87s55 136 55 234v21c0 70.667 -8.33301 133 -25 187s-42 96.167 -76 126.5
s-77.333 45.5 -130 45.5c-42.667 0 -80.167 -9.83301 -112.5 -29.5s-58.166 -47.167 -77.499 -82.5v-484c19.333 -34 45.166 -60 77.499 -78s70.5 -27 114.5 -27z" />
    <glyph glyph-name="ydieresis" unicode="&#xff;" horiz-adv-x="1266" 
d="M351 -437c-22.667 0 -47.834 2.16895 -75.501 6.50195s-52.834 9.5 -75.501 15.5l31 202c12 -2 26.167 -3.66699 42.5 -5s29.5 -2 39.5 -2c42.667 0 78.667 12 108 36s52 58 68 102l29 77l-366 903l-130 19v165h550v-165l-133 -20l179 -491l27 -77h6l212 569l-132 19v165
h516v-165l-119 -17l-416 -1062c-20 -50.667 -45.167 -96.834 -75.5 -138.501s-68.666 -74.834 -114.999 -99.501s-103.166 -37 -170.499 -37zM726 1319v241h266v-241h-266zM281 1319v241h265v-241h-265z" />
    <glyph glyph-name="Amacron" unicode="&#x100;" horiz-adv-x="1516" 
d="M47 0v164l105 15l473 1277h271l469 -1277l104 -15v-164h-479v164l103 19l-71 214h-527l-71 -214l102 -19v-164h-479zM562 602h393l-179 518l-14 42h-6l-15 -44zM395 1604v170h729v-170h-729z" />
    <glyph glyph-name="amacron" unicode="&#x101;" horiz-adv-x="1149" 
d="M425 -21c-108.667 0 -194.169 28.5 -256.502 85.5s-93.5 135.167 -93.5 234.5c0 68 18.5 127.833 55.5 179.5s91.667 92 164 121s160.5 43.5 264.5 43.5h154v85c0 54.667 -16.167 98.667 -48.5 132s-79.833 50 -142.5 50c-34 0 -64.5 -4.16699 -91.5 -12.5
s-51.167 -20.166 -72.5 -35.499l-23 -145h-198l-2 274c54.667 33.333 114.834 60.166 180.501 80.499s138.834 30.5 219.501 30.5c139.333 0 249.166 -32.5 329.499 -97.5s120.5 -158.167 120.5 -279.5v-461c0 -14.667 0.166992 -29 0.5 -43s1.5 -27.667 3.5 -41l111 -16
v-164h-345c-7.33301 20.667 -14.166 41.834 -20.499 63.501s-10.833 43.5 -13.5 65.5c-35.333 -44.667 -77.5 -80.834 -126.5 -108.501s-105.5 -41.5 -169.5 -41.5zM491.998 184c46 0 89.167 10.667 129.5 32s70.833 48.333 91.5 81v176h-155
c-70 0 -122.833 -16.167 -158.5 -48.5s-53.5 -70.5 -53.5 -114.5c0 -40 12.667 -71 38 -93s61.333 -33 108 -33zM178.998 1320v170h729v-170h-729z" />
    <glyph glyph-name="Abreve" unicode="&#x102;" horiz-adv-x="1516" 
d="M47 0v164l105 15l473 1277h271l469 -1277l104 -15v-164h-479v164l103 19l-71 214h-527l-71 -214l102 -19v-164h-479zM562 602h393l-179 518l-14 42h-6l-15 -44zM761 1549c-105.333 0 -188.833 27 -250.5 81s-91.5 123.333 -89.5 208l2 6h188
c0 -40.667 12 -74.167 36 -100.5s62 -39.5 114 -39.5c50 0 87.167 13 111.5 39s36.5 59.667 36.5 101h188l2 -6c1.33301 -84.667 -28.5 -154 -89.5 -208s-143.833 -81 -248.5 -81z" />
    <glyph glyph-name="abreve" unicode="&#x103;" horiz-adv-x="1149" 
d="M425 -21c-108.667 0 -194.169 28.5 -256.502 85.5s-93.5 135.167 -93.5 234.5c0 68 18.5 127.833 55.5 179.5s91.667 92 164 121s160.5 43.5 264.5 43.5h154v85c0 54.667 -16.167 98.667 -48.5 132s-79.833 50 -142.5 50c-34 0 -64.5 -4.16699 -91.5 -12.5
s-51.167 -20.166 -72.5 -35.499l-23 -145h-198l-2 274c54.667 33.333 114.834 60.166 180.501 80.499s138.834 30.5 219.501 30.5c139.333 0 249.166 -32.5 329.499 -97.5s120.5 -158.167 120.5 -279.5v-461c0 -14.667 0.166992 -29 0.5 -43s1.5 -27.667 3.5 -41l111 -16
v-164h-345c-7.33301 20.667 -14.166 41.834 -20.499 63.501s-10.833 43.5 -13.5 65.5c-35.333 -44.667 -77.5 -80.834 -126.5 -108.501s-105.5 -41.5 -169.5 -41.5zM491.998 184c46 0 89.167 10.667 129.5 32s70.833 48.333 91.5 81v176h-155
c-70 0 -122.833 -16.167 -158.5 -48.5s-53.5 -70.5 -53.5 -114.5c0 -40 12.667 -71 38 -93s61.333 -33 108 -33zM544.998 1265c-105.333 0 -188.833 27 -250.5 81s-91.5 123.333 -89.5 208l2 6h188c0 -40.667 12 -74.167 36 -100.5s62 -39.5 114 -39.5
c50 0 87.167 13 111.5 39s36.5 59.667 36.5 101h188l2 -6c1.33301 -84.667 -28.5 -154 -89.5 -208s-143.833 -81 -248.5 -81z" />
    <glyph glyph-name="Aogonek" unicode="&#x104;" horiz-adv-x="1516" 
d="M47 0v164l105 15l473 1277h271l469 -1277l104 -15v-164h-479v164l103 19l-71 214h-527l-71 -214l102 -19v-164h-479zM562 602h393l-179 518l-14 42h-6l-15 -44zM1368 -426c-74 0 -134.002 19 -180.002 57s-69 91.333 -69 160c0 50 18.333 98.833 55 146.5
s97 88.167 181 121.5l114 -59c-48 -31.333 -83.5 -60.833 -106.5 -88.5s-34.5 -57.167 -34.5 -88.5c0 -25.333 7 -44.666 21 -57.999s36.667 -20 68 -20c16 0 31 1.66699 45 5s27.667 7.66602 41 12.999l35 -148c-23.333 -11.333 -48.666 -21 -75.999 -29
s-58.666 -12 -93.999 -12z" />
    <glyph glyph-name="aogonek" unicode="&#x105;" horiz-adv-x="1149" 
d="M425 -21c-108.667 0 -194.169 28.5 -256.502 85.5s-93.5 135.167 -93.5 234.5c0 68 18.5 127.833 55.5 179.5s91.667 92 164 121s160.5 43.5 264.5 43.5h154v85c0 54.667 -16.167 98.667 -48.5 132s-79.833 50 -142.5 50c-34 0 -64.5 -4.16699 -91.5 -12.5
s-51.167 -20.166 -72.5 -35.499l-23 -145h-198l-2 274c54.667 33.333 114.834 60.166 180.501 80.499s138.834 30.5 219.501 30.5c139.333 0 249.166 -32.5 329.499 -97.5s120.5 -158.167 120.5 -279.5v-461c0 -14.667 0.166992 -29 0.5 -43s1.5 -27.667 3.5 -41l111 -16
v-164h-345c-7.33301 20.667 -14.166 41.834 -20.499 63.501s-10.833 43.5 -13.5 65.5c-35.333 -44.667 -77.5 -80.834 -126.5 -108.501s-105.5 -41.5 -169.5 -41.5zM491.998 184c46 0 89.167 10.667 129.5 32s70.833 48.333 91.5 81v176h-155
c-70 0 -122.833 -16.167 -158.5 -48.5s-53.5 -70.5 -53.5 -114.5c0 -40 12.667 -71 38 -93s61.333 -33 108 -33zM999.998 -426c-74 0 -134.002 19 -180.002 57s-69 91.333 -69 160c0 50 18.333 98.833 55 146.5s97 88.167 181 121.5l114 -59
c-48 -31.333 -83.5 -60.833 -106.5 -88.5s-34.5 -57.167 -34.5 -88.5c0 -25.333 7 -44.666 21 -57.999s36.667 -20 68 -20c16 0 31 1.66699 45 5s27.667 7.66602 41 12.999l35 -148c-23.333 -11.333 -48.666 -21 -75.999 -29s-58.666 -12 -93.999 -12z" />
    <glyph glyph-name="Cacute" unicode="&#x106;" horiz-adv-x="1314" 
d="M747 -21c-142.667 0 -265.5 30.002 -368.5 90.002s-182.167 144.5 -237.5 253.5s-83 236.833 -83 383.5v43c0 141.333 27 266.666 81 375.999s131.333 195.333 232 258s220.667 94 360 94c98 0 189.333 -14.167 274 -42.5s159.334 -69.833 224.001 -124.5v-344h-205
l-28 223c-22 16 -46.167 29.667 -72.5 41s-55 20 -86 26s-64.5 9 -100.5 9c-85.333 0 -158.333 -21.167 -219 -63.5s-107.167 -101.833 -139.5 -178.5s-48.5 -167.334 -48.5 -272.001v-45c0 -106 17 -197.667 51 -275s82.5 -136.833 145.5 -178.5s138.167 -62.5 225.5 -62.5
c43.333 0 86.333 4.83301 129 14.5s80.667 22.5 114 38.5l29 205h203v-341c-56 -36.667 -125.333 -67.167 -208 -91.5s-173.334 -36.5 -272.001 -36.5zM553 1572l196 272h292l2 -6l-274 -266h-208h-8z" />
    <glyph glyph-name="cacute" unicode="&#x107;" horiz-adv-x="1079" 
d="M570 -21c-102.667 0 -191.5 23.1689 -266.5 69.502s-132.833 110.5 -173.5 192.5s-61 176.333 -61 283v33c0 105.333 20.5 199 61.5 281s98.833 146.5 173.5 193.5s162.667 70.5 264 70.5c95.333 0 177.833 -15 247.5 -45s126.167 -66 169.5 -108v-300h-206l-38 193
c-17.333 17.333 -39.333 31.333 -66 42s-55 16 -85 16c-54 0 -99.5 -14.167 -136.5 -42.5s-65 -68 -84 -119s-28.5 -111.5 -28.5 -181.5v-33c0 -75.333 10 -137.833 30 -187.5s47.5 -86.834 82.5 -111.501s74.167 -37 117.5 -37c54.667 0 99 14.5 133 43.5
s56.667 69.833 68 122.5h233l3 -6c-9.33301 -73.333 -30.833 -137.833 -64.5 -193.5s-81 -98.834 -142 -129.501s-138.167 -46 -231.5 -46zM392 1288l196 272h292l2 -6l-274 -266h-208h-8z" />
    <glyph glyph-name="Ccircumflex" unicode="&#x108;" horiz-adv-x="1314" 
d="M747 -21c-142.667 0 -265.5 30.002 -368.5 90.002s-182.167 144.5 -237.5 253.5s-83 236.833 -83 383.5v43c0 141.333 27 266.666 81 375.999s131.333 195.333 232 258s220.667 94 360 94c98 0 189.333 -14.167 274 -42.5s159.334 -69.833 224.001 -124.5v-344h-205
l-28 223c-22 16 -46.167 29.667 -72.5 41s-55 20 -86 26s-64.5 9 -100.5 9c-85.333 0 -158.333 -21.167 -219 -63.5s-107.167 -101.833 -139.5 -178.5s-48.5 -167.334 -48.5 -272.001v-45c0 -106 17 -197.667 51 -275s82.5 -136.833 145.5 -178.5s138.167 -62.5 225.5 -62.5
c43.333 0 86.333 4.83301 129 14.5s80.667 22.5 114 38.5l29 205h203v-341c-56 -36.667 -125.333 -67.167 -208 -91.5s-173.334 -36.5 -272.001 -36.5zM366 1576v26l253 242h195l252 -244v-24h-214l-136 145l-139 -145h-211z" />
    <glyph glyph-name="ccircumflex" unicode="&#x109;" horiz-adv-x="1079" 
d="M570 -21c-102.667 0 -191.5 23.1689 -266.5 69.502s-132.833 110.5 -173.5 192.5s-61 176.333 -61 283v33c0 105.333 20.5 199 61.5 281s98.833 146.5 173.5 193.5s162.667 70.5 264 70.5c95.333 0 177.833 -15 247.5 -45s126.167 -66 169.5 -108v-300h-206l-38 193
c-17.333 17.333 -39.333 31.333 -66 42s-55 16 -85 16c-54 0 -99.5 -14.167 -136.5 -42.5s-65 -68 -84 -119s-28.5 -111.5 -28.5 -181.5v-33c0 -75.333 10 -137.833 30 -187.5s47.5 -86.834 82.5 -111.501s74.167 -37 117.5 -37c54.667 0 99 14.5 133 43.5
s56.667 69.833 68 122.5h233l3 -6c-9.33301 -73.333 -30.833 -137.833 -64.5 -193.5s-81 -98.834 -142 -129.501s-138.167 -46 -231.5 -46zM205 1292v26l253 242h195l252 -244v-24h-214l-136 145l-139 -145h-211z" />
    <glyph glyph-name="Cdotaccent" unicode="&#x10a;" horiz-adv-x="1314" 
d="M747 -21c-142.667 0 -265.5 30.002 -368.5 90.002s-182.167 144.5 -237.5 253.5s-83 236.833 -83 383.5v43c0 141.333 27 266.666 81 375.999s131.333 195.333 232 258s220.667 94 360 94c98 0 189.333 -14.167 274 -42.5s159.334 -69.833 224.001 -124.5v-344h-205
l-28 223c-22 16 -46.167 29.667 -72.5 41s-55 20 -86 26s-64.5 9 -100.5 9c-85.333 0 -158.333 -21.167 -219 -63.5s-107.167 -101.833 -139.5 -178.5s-48.5 -167.334 -48.5 -272.001v-45c0 -106 17 -197.667 51 -275s82.5 -136.833 145.5 -178.5s138.167 -62.5 225.5 -62.5
c43.333 0 86.333 4.83301 129 14.5s80.667 22.5 114 38.5l29 205h203v-341c-56 -36.667 -125.333 -67.167 -208 -91.5s-173.334 -36.5 -272.001 -36.5zM575 1603v241h282v-241h-282z" />
    <glyph glyph-name="cdotaccent" unicode="&#x10b;" horiz-adv-x="1079" 
d="M570 -21c-102.667 0 -191.5 23.1689 -266.5 69.502s-132.833 110.5 -173.5 192.5s-61 176.333 -61 283v33c0 105.333 20.5 199 61.5 281s98.833 146.5 173.5 193.5s162.667 70.5 264 70.5c95.333 0 177.833 -15 247.5 -45s126.167 -66 169.5 -108v-300h-206l-38 193
c-17.333 17.333 -39.333 31.333 -66 42s-55 16 -85 16c-54 0 -99.5 -14.167 -136.5 -42.5s-65 -68 -84 -119s-28.5 -111.5 -28.5 -181.5v-33c0 -75.333 10 -137.833 30 -187.5s47.5 -86.834 82.5 -111.501s74.167 -37 117.5 -37c54.667 0 99 14.5 133 43.5
s56.667 69.833 68 122.5h233l3 -6c-9.33301 -73.333 -30.833 -137.833 -64.5 -193.5s-81 -98.834 -142 -129.501s-138.167 -46 -231.5 -46zM414 1319v241h282v-241h-282z" />
    <glyph glyph-name="Ccaron" unicode="&#x10c;" horiz-adv-x="1314" 
d="M747 -21c-142.667 0 -265.5 30.002 -368.5 90.002s-182.167 144.5 -237.5 253.5s-83 236.833 -83 383.5v43c0 141.333 27 266.666 81 375.999s131.333 195.333 232 258s220.667 94 360 94c98 0 189.333 -14.167 274 -42.5s159.334 -69.833 224.001 -124.5v-344h-205
l-28 223c-22 16 -46.167 29.667 -72.5 41s-55 20 -86 26s-64.5 9 -100.5 9c-85.333 0 -158.333 -21.167 -219 -63.5s-107.167 -101.833 -139.5 -178.5s-48.5 -167.334 -48.5 -272.001v-45c0 -106 17 -197.667 51 -275s82.5 -136.833 145.5 -178.5s138.167 -62.5 225.5 -62.5
c43.333 0 86.333 4.83301 129 14.5s80.667 22.5 114 38.5l29 205h203v-341c-56 -36.667 -125.333 -67.167 -208 -91.5s-173.334 -36.5 -272.001 -36.5zM1066 1844v-26l-253 -242h-195l-252 244v24h214l136 -145l139 145h211z" />
    <glyph glyph-name="ccaron" unicode="&#x10d;" horiz-adv-x="1079" 
d="M570 -21c-102.667 0 -191.5 23.1689 -266.5 69.502s-132.833 110.5 -173.5 192.5s-61 176.333 -61 283v33c0 105.333 20.5 199 61.5 281s98.833 146.5 173.5 193.5s162.667 70.5 264 70.5c95.333 0 177.833 -15 247.5 -45s126.167 -66 169.5 -108v-300h-206l-38 193
c-17.333 17.333 -39.333 31.333 -66 42s-55 16 -85 16c-54 0 -99.5 -14.167 -136.5 -42.5s-65 -68 -84 -119s-28.5 -111.5 -28.5 -181.5v-33c0 -75.333 10 -137.833 30 -187.5s47.5 -86.834 82.5 -111.501s74.167 -37 117.5 -37c54.667 0 99 14.5 133 43.5
s56.667 69.833 68 122.5h233l3 -6c-9.33301 -73.333 -30.833 -137.833 -64.5 -193.5s-81 -98.834 -142 -129.501s-138.167 -46 -231.5 -46zM905 1560v-26l-253 -242h-195l-252 244v24h214l136 -145l139 145h211z" />
    <glyph glyph-name="Dcaron" unicode="&#x10e;" horiz-adv-x="1412" 
d="M61 0l0.000976562 163.999l158 33v1061l-158 33v165h158h467c130 0 244.167 -30.667 342.5 -92s175.166 -145.666 230.499 -252.999s83 -230.666 83 -369.999v-27c0 -137.333 -27.167 -259.833 -81.5 -367.5s-130.333 -192.334 -228 -254.001s-211.5 -92.5 -341.5 -92.5
h-630zM491.001 208.999h186c83.333 0 154 22 212 66s102.5 104 133.5 180s46.5 162.333 46.5 259v29c0 98 -15.5 184.833 -46.5 260.5s-75.5 135 -133.5 178s-128.667 64.5 -212 64.5h-186v-1037zM1034 1844v-26l-253 -242h-195l-252 244v24h214l136 -145l139 145h211z" />
    <glyph glyph-name="dcaron" unicode="&#x10f;" horiz-adv-x="1214" 
d="M483 -21c-86 0 -159.999 22 -221.999 66s-109.5 105.833 -142.5 185.5s-49.5 172.5 -49.5 278.5v21c0 114 16.5 214 49.5 300s80.5 152.833 142.5 200.5s135.667 71.5 221 71.5c61.333 0 114.666 -11.833 159.999 -35.5s84.333 -57.5 117 -101.5v400l-157 30v165h157h272
v-1366l145 -30v-164h-380l-21 131c-34 -50 -75 -87.833 -123 -113.5s-104.333 -38.5 -169 -38.5zM562.001 192c44.667 0 83.334 9.66602 116.001 28.999s59.667 47 81 83v468c-20.667 36.667 -47.334 65.334 -80.001 86.001s-71 31 -115 31
c-51.333 0 -93.5 -15.167 -126.5 -45.5s-57.333 -72.333 -73 -126s-23.5 -116.167 -23.5 -187.5v-21c0 -98 17.333 -175.333 52 -232s91 -85 169 -85zM1218 1161l-124.001 86c22 32.667 38.5 65.5 49.5 98.5s16.5 73.5 16.5 121.5v93h232v-82
c0 -62.667 -15.667 -121.5 -47 -176.5s-73.666 -101.833 -126.999 -140.5z" />
    <glyph glyph-name="Dcroat" unicode="&#x110;" horiz-adv-x="1412" 
d="M61 0l0.000976562 163.999l158 33v1061l-158 33v165h158h467c130 0 244.167 -30.667 342.5 -92s175.166 -145.666 230.499 -252.999s83 -230.666 83 -369.999v-27c0 -137.333 -27.167 -259.833 -81.5 -367.5s-130.333 -192.334 -228 -254.001s-211.5 -92.5 -341.5 -92.5
h-630zM491.001 208.999h186c83.333 0 154 22 212 66s102.5 104 133.5 180s46.5 162.333 46.5 259v29c0 98 -15.5 184.833 -46.5 260.5s-75.5 135 -133.5 178s-128.667 64.5 -212 64.5h-186v-1037zM53.001 657.999v155h647v-155h-647z" />
    <glyph glyph-name="dcroat" unicode="&#x111;" horiz-adv-x="1213" 
d="M483 -21c-86 0 -159.999 22 -221.999 66s-109.5 105.833 -142.5 185.5s-49.5 172.5 -49.5 278.5v21c0 114 16.5 214 49.5 300s80.5 152.833 142.5 200.5s135.667 71.5 221 71.5c61.333 0 114.666 -11.833 159.999 -35.5s84.333 -57.5 117 -101.5v400l-157 30v165h157h272
v-1366l145 -30v-164h-380l-21 131c-34 -50 -75 -87.833 -123 -113.5s-104.333 -38.5 -169 -38.5zM562.001 192c44.667 0 83.334 9.66602 116.001 28.999s59.667 47 81 83v468c-20.667 36.667 -47.334 65.334 -80.001 86.001s-71 31 -115 31
c-51.333 0 -93.5 -15.167 -126.5 -45.5s-57.333 -72.333 -73 -126s-23.5 -116.167 -23.5 -187.5v-21c0 -98 17.333 -175.333 52 -232s91 -85 169 -85zM542.001 1138v155h647v-155h-647z" />
    <glyph glyph-name="Emacron" unicode="&#x112;" horiz-adv-x="1307" 
d="M61 0v164l157 30v1067l-157 30v165h1119v-384h-210l-15 175h-465v-389h502v-211h-502v-439h491l15 179h208v-387h-1143zM289 1604v170h729v-170h-729z" />
    <glyph glyph-name="emacron" unicode="&#x113;" horiz-adv-x="1074" 
d="M578 -21c-102.667 0 -192.167 22.832 -268.5 68.499s-135.5 108.667 -177.5 189s-63 172.166 -63 275.499v41c0 106 20.167 200.5 60.5 283.5s96.833 148 169.5 195s156.667 70.5 252 70.5c98 0 180.333 -19.5 247 -58.5s117 -94.833 151 -167.5s51 -160 51 -262v-151
h-649l-2 -6c2.66699 -52 14.334 -98.167 35.001 -138.5s49.667 -72.166 87 -95.499s82.666 -35 135.999 -35c56.667 0 108.5 7.33301 155.5 22s91.833 36.334 134.5 65.001l78 -169c-43.333 -36 -98.333 -66.167 -165 -90.5s-144 -36.5 -232 -36.5zM354 647.999
l390.001 -0.000976562v26c0 45.333 -6.66699 84.833 -20 118.5s-33.833 59.834 -61.5 78.501s-63.5 28 -107.5 28c-40 0 -74.333 -10.833 -103 -32.5s-51.334 -51 -68.001 -88s-27.667 -78.833 -33 -125.5zM182.001 1320v170h729v-170h-729z" />
    <glyph glyph-name="Ebreve" unicode="&#x114;" horiz-adv-x="1307" 
d="M61 0v164l157 30v1067l-157 30v165h1119v-384h-210l-15 175h-465v-389h502v-211h-502v-439h491l15 179h208v-387h-1143zM655 1549c-105.333 0 -188.833 27 -250.5 81s-91.5 123.333 -89.5 208l2 6h188c0 -40.667 12 -74.167 36 -100.5s62 -39.5 114 -39.5
c50 0 87.167 13 111.5 39s36.5 59.667 36.5 101h188l2 -6c1.33301 -84.667 -28.5 -154 -89.5 -208s-143.833 -81 -248.5 -81z" />
    <glyph glyph-name="ebreve" unicode="&#x115;" horiz-adv-x="1074" 
d="M578 -21c-102.667 0 -192.167 22.832 -268.5 68.499s-135.5 108.667 -177.5 189s-63 172.166 -63 275.499v41c0 106 20.167 200.5 60.5 283.5s96.833 148 169.5 195s156.667 70.5 252 70.5c98 0 180.333 -19.5 247 -58.5s117 -94.833 151 -167.5s51 -160 51 -262v-151
h-649l-2 -6c2.66699 -52 14.334 -98.167 35.001 -138.5s49.667 -72.166 87 -95.499s82.666 -35 135.999 -35c56.667 0 108.5 7.33301 155.5 22s91.833 36.334 134.5 65.001l78 -169c-43.333 -36 -98.333 -66.167 -165 -90.5s-144 -36.5 -232 -36.5zM354 647.999
l390.001 -0.000976562v26c0 45.333 -6.66699 84.833 -20 118.5s-33.833 59.834 -61.5 78.501s-63.5 28 -107.5 28c-40 0 -74.333 -10.833 -103 -32.5s-51.334 -51 -68.001 -88s-27.667 -78.833 -33 -125.5zM547.001 1265c-105.333 0 -188.833 27 -250.5 81
s-91.5 123.333 -89.5 208l2 6h188c0 -40.667 12 -74.167 36 -100.5s62 -39.5 114 -39.5c50 0 87.167 13 111.5 39s36.5 59.667 36.5 101h188l2 -6c1.33301 -84.667 -28.5 -154 -89.5 -208s-143.833 -81 -248.5 -81z" />
    <glyph glyph-name="Edotaccent" unicode="&#x116;" horiz-adv-x="1307" 
d="M61 0v164l157 30v1067l-157 30v165h1119v-384h-210l-15 175h-465v-389h502v-211h-502v-439h491l15 179h208v-387h-1143zM512 1603v241h282v-241h-282z" />
    <glyph glyph-name="edotaccent" unicode="&#x117;" horiz-adv-x="1074" 
d="M578 -21c-102.667 0 -192.167 22.832 -268.5 68.499s-135.5 108.667 -177.5 189s-63 172.166 -63 275.499v41c0 106 20.167 200.5 60.5 283.5s96.833 148 169.5 195s156.667 70.5 252 70.5c98 0 180.333 -19.5 247 -58.5s117 -94.833 151 -167.5s51 -160 51 -262v-151
h-649l-2 -6c2.66699 -52 14.334 -98.167 35.001 -138.5s49.667 -72.166 87 -95.499s82.666 -35 135.999 -35c56.667 0 108.5 7.33301 155.5 22s91.833 36.334 134.5 65.001l78 -169c-43.333 -36 -98.333 -66.167 -165 -90.5s-144 -36.5 -232 -36.5zM354 647.999
l390.001 -0.000976562v26c0 45.333 -6.66699 84.833 -20 118.5s-33.833 59.834 -61.5 78.501s-63.5 28 -107.5 28c-40 0 -74.333 -10.833 -103 -32.5s-51.334 -51 -68.001 -88s-27.667 -78.833 -33 -125.5zM405.001 1319v241h282v-241h-282z" />
    <glyph glyph-name="Eogonek" unicode="&#x118;" horiz-adv-x="1307" 
d="M61 0v164l157 30v1067l-157 30v165h1119v-384h-210l-15 175h-465v-389h502v-211h-502v-439h491l15 179h208v-387h-1143zM1103 -426c-74 0 -134.002 19 -180.002 57s-69 91.333 -69 160c0 50 18.333 98.833 55 146.5s97 88.167 181 121.5l114 -59
c-48 -31.333 -83.5 -60.833 -106.5 -88.5s-34.5 -57.167 -34.5 -88.5c0 -25.333 7 -44.666 21 -57.999s36.667 -20 68 -20c16 0 31 1.66699 45 5s27.667 7.66602 41 12.999l35 -148c-23.333 -11.333 -48.666 -21 -75.999 -29s-58.666 -12 -93.999 -12z" />
    <glyph glyph-name="eogonek" unicode="&#x119;" horiz-adv-x="1074" 
d="M578 -21c-102.667 0 -192.167 22.832 -268.5 68.499s-135.5 108.667 -177.5 189s-63 172.166 -63 275.499v41c0 106 20.167 200.5 60.5 283.5s96.833 148 169.5 195s156.667 70.5 252 70.5c98 0 180.333 -19.5 247 -58.5s117 -94.833 151 -167.5s51 -160 51 -262v-151
h-649l-2 -6c2.66699 -52 14.334 -98.167 35.001 -138.5s49.667 -72.166 87 -95.499s82.666 -35 135.999 -35c56.667 0 108.5 7.33301 155.5 22s91.833 36.334 134.5 65.001l78 -169c-43.333 -36 -98.333 -66.167 -165 -90.5s-144 -36.5 -232 -36.5zM354 647.999
l390.001 -0.000976562v26c0 45.333 -6.66699 84.833 -20 118.5s-33.833 59.834 -61.5 78.501s-63.5 28 -107.5 28c-40 0 -74.333 -10.833 -103 -32.5s-51.334 -51 -68.001 -88s-27.667 -78.833 -33 -125.5zM773.001 -426.002c-72 0 -131.167 19.832 -177.5 59.499
s-69.5 94.834 -69.5 165.501c0 62.667 23.5 121.834 70.5 177.501s124.833 101.167 233.5 136.5l62 -61c-53.333 -32 -92.833 -65.167 -118.5 -99.5s-38.5 -72.833 -38.5 -115.5c0 -31.333 7.5 -54.5 22.5 -69.5s38.5 -22.5 70.5 -22.5c17.333 0 33 1.66699 47 5
s28 7.66602 42 12.999l34 -148c-23.333 -11.333 -49 -21 -77 -29s-61.667 -12 -101 -12z" />
    <glyph glyph-name="Ecaron" unicode="&#x11a;" horiz-adv-x="1307" 
d="M61 0v164l157 30v1067l-157 30v165h1119v-384h-210l-15 175h-465v-389h502v-211h-502v-439h491l15 179h208v-387h-1143zM1004 1844v-26l-253 -242h-195l-252 244v24h214l136 -145l139 145h211z" />
    <glyph glyph-name="ecaron" unicode="&#x11b;" horiz-adv-x="1074" 
d="M578 -21c-102.667 0 -192.167 22.832 -268.5 68.499s-135.5 108.667 -177.5 189s-63 172.166 -63 275.499v41c0 106 20.167 200.5 60.5 283.5s96.833 148 169.5 195s156.667 70.5 252 70.5c98 0 180.333 -19.5 247 -58.5s117 -94.833 151 -167.5s51 -160 51 -262v-151
h-649l-2 -6c2.66699 -52 14.334 -98.167 35.001 -138.5s49.667 -72.166 87 -95.499s82.666 -35 135.999 -35c56.667 0 108.5 7.33301 155.5 22s91.833 36.334 134.5 65.001l78 -169c-43.333 -36 -98.333 -66.167 -165 -90.5s-144 -36.5 -232 -36.5zM354 647.999
l390.001 -0.000976562v26c0 45.333 -6.66699 84.833 -20 118.5s-33.833 59.834 -61.5 78.501s-63.5 28 -107.5 28c-40 0 -74.333 -10.833 -103 -32.5s-51.334 -51 -68.001 -88s-27.667 -78.833 -33 -125.5zM896.001 1560v-26l-253 -242h-195l-252 244v24h214l136 -145
l139 145h211z" />
    <glyph glyph-name="Gcircumflex" unicode="&#x11c;" horiz-adv-x="1367" 
d="M734 -21c-142.667 0 -264.668 30.3369 -366.001 91.0039s-179 144.667 -233 252s-81 232 -81 374v44c0 146 27 274.167 81 384.5s129.833 196.666 227.5 258.999s212.5 93.5 344.5 93.5c106.667 0 204.5 -14 293.5 -42s166.5 -69.333 232.5 -124v-317h-205l-37 199
c-27.333 22 -63.333 39.5 -108 52.5s-96.334 19.5 -155.001 19.5c-81.333 0 -152.333 -21.833 -213 -65.5s-107.5 -104.834 -140.5 -183.501s-49.5 -170 -49.5 -274v-46c0 -102.667 16.167 -191.834 48.5 -267.501s79.333 -134.334 141 -176.001s137.167 -62.5 226.5 -62.5
c54.667 0 103.834 5 147.501 15s80.167 22.333 109.5 37v267l-223 15v193h496v-584c-60 -44.667 -134.167 -81.5 -222.5 -110.5s-193.166 -43.5 -314.499 -43.5zM332.999 1576v26l253 242h195l252 -244v-24h-214l-136 145l-139 -145h-211z" />
    <glyph glyph-name="gcircumflex" unicode="&#x11d;" horiz-adv-x="1190" 
d="M542 -437c-54 0 -114.33 7.16895 -180.997 21.502s-125.334 34.166 -176.001 59.499l54 196c44.667 -20 92.834 -35.833 144.501 -47.5s100.167 -17.5 145.5 -17.5c80.667 0 139.667 22.333 177 67s56 107 56 187v78c-32.667 -41.333 -71.334 -73 -116.001 -95
s-96 -33 -154 -33c-88 0 -163.667 22 -227 66s-111.833 105.833 -145.5 185.5s-50.5 172.5 -50.5 278.5v21c0 114 16.833 214 50.5 300s81.667 152.833 144 200.5s137.166 71.5 224.499 71.5c65.333 0 121.833 -13.5 169.5 -40.5s88.167 -65.5 121.5 -115.5l20 136h236
v-1054c0 -94.667 -19.667 -176.834 -59 -246.501s-95.833 -123.5 -169.5 -161.5s-161.834 -57 -264.501 -57zM568.003 192.002c44.667 0 83.001 9.33203 115.001 27.999s58.333 45.334 79 80.001v476c-20 35.333 -46.333 63 -79 83s-70.667 30 -114 30
c-52.667 0 -95.834 -15.167 -129.501 -45.5s-58.5 -72.333 -74.5 -126s-24 -116.167 -24 -187.5v-21c0 -98 17.833 -175.333 53.5 -232s93.5 -85 173.5 -85zM999.004 882.001l-116 200h280v-165zM240.004 1292v26l253 242h195l252 -244v-24h-214l-136 145l-139 -145h-211z
" />
    <glyph glyph-name="Gbreve" unicode="&#x11e;" horiz-adv-x="1367" 
d="M734 -21c-142.667 0 -264.668 30.3369 -366.001 91.0039s-179 144.667 -233 252s-81 232 -81 374v44c0 146 27 274.167 81 384.5s129.833 196.666 227.5 258.999s212.5 93.5 344.5 93.5c106.667 0 204.5 -14 293.5 -42s166.5 -69.333 232.5 -124v-317h-205l-37 199
c-27.333 22 -63.333 39.5 -108 52.5s-96.334 19.5 -155.001 19.5c-81.333 0 -152.333 -21.833 -213 -65.5s-107.5 -104.834 -140.5 -183.501s-49.5 -170 -49.5 -274v-46c0 -102.667 16.167 -191.834 48.5 -267.501s79.333 -134.334 141 -176.001s137.167 -62.5 226.5 -62.5
c54.667 0 103.834 5 147.501 15s80.167 22.333 109.5 37v267l-223 15v193h496v-584c-60 -44.667 -134.167 -81.5 -222.5 -110.5s-193.166 -43.5 -314.499 -43.5zM683.999 1549c-105.333 0 -188.833 27 -250.5 81s-91.5 123.333 -89.5 208l2 6h188
c0 -40.667 12 -74.167 36 -100.5s62 -39.5 114 -39.5c50 0 87.167 13 111.5 39s36.5 59.667 36.5 101h188l2 -6c1.33301 -84.667 -28.5 -154 -89.5 -208s-143.833 -81 -248.5 -81z" />
    <glyph glyph-name="gbreve" unicode="&#x11f;" horiz-adv-x="1190" 
d="M542 -437c-54 0 -114.33 7.16895 -180.997 21.502s-125.334 34.166 -176.001 59.499l54 196c44.667 -20 92.834 -35.833 144.501 -47.5s100.167 -17.5 145.5 -17.5c80.667 0 139.667 22.333 177 67s56 107 56 187v78c-32.667 -41.333 -71.334 -73 -116.001 -95
s-96 -33 -154 -33c-88 0 -163.667 22 -227 66s-111.833 105.833 -145.5 185.5s-50.5 172.5 -50.5 278.5v21c0 114 16.833 214 50.5 300s81.667 152.833 144 200.5s137.166 71.5 224.499 71.5c65.333 0 121.833 -13.5 169.5 -40.5s88.167 -65.5 121.5 -115.5l20 136h236
v-1054c0 -94.667 -19.667 -176.834 -59 -246.501s-95.833 -123.5 -169.5 -161.5s-161.834 -57 -264.501 -57zM568.003 192.002c44.667 0 83.001 9.33203 115.001 27.999s58.333 45.334 79 80.001v476c-20 35.333 -46.333 63 -79 83s-70.667 30 -114 30
c-52.667 0 -95.834 -15.167 -129.501 -45.5s-58.5 -72.333 -74.5 -126s-24 -116.167 -24 -187.5v-21c0 -98 17.833 -175.333 53.5 -232s93.5 -85 173.5 -85zM999.004 882.001l-116 200h280v-165zM591.004 1265c-105.333 0 -188.833 27 -250.5 81s-91.5 123.333 -89.5 208
l2 6h188c0 -40.667 12 -74.167 36 -100.5s62 -39.5 114 -39.5c50 0 87.167 13 111.5 39s36.5 59.667 36.5 101h188l2 -6c1.33301 -84.667 -28.5 -154 -89.5 -208s-143.833 -81 -248.5 -81z" />
    <glyph glyph-name="Gdotaccent" unicode="&#x120;" horiz-adv-x="1367" 
d="M734 -21c-142.667 0 -264.668 30.3369 -366.001 91.0039s-179 144.667 -233 252s-81 232 -81 374v44c0 146 27 274.167 81 384.5s129.833 196.666 227.5 258.999s212.5 93.5 344.5 93.5c106.667 0 204.5 -14 293.5 -42s166.5 -69.333 232.5 -124v-317h-205l-37 199
c-27.333 22 -63.333 39.5 -108 52.5s-96.334 19.5 -155.001 19.5c-81.333 0 -152.333 -21.833 -213 -65.5s-107.5 -104.834 -140.5 -183.501s-49.5 -170 -49.5 -274v-46c0 -102.667 16.167 -191.834 48.5 -267.501s79.333 -134.334 141 -176.001s137.167 -62.5 226.5 -62.5
c54.667 0 103.834 5 147.501 15s80.167 22.333 109.5 37v267l-223 15v193h496v-584c-60 -44.667 -134.167 -81.5 -222.5 -110.5s-193.166 -43.5 -314.499 -43.5zM541.999 1603v241h282v-241h-282z" />
    <glyph glyph-name="gdotaccent" unicode="&#x121;" horiz-adv-x="1190" 
d="M542 -437c-54 0 -114.33 7.16895 -180.997 21.502s-125.334 34.166 -176.001 59.499l54 196c44.667 -20 92.834 -35.833 144.501 -47.5s100.167 -17.5 145.5 -17.5c80.667 0 139.667 22.333 177 67s56 107 56 187v78c-32.667 -41.333 -71.334 -73 -116.001 -95
s-96 -33 -154 -33c-88 0 -163.667 22 -227 66s-111.833 105.833 -145.5 185.5s-50.5 172.5 -50.5 278.5v21c0 114 16.833 214 50.5 300s81.667 152.833 144 200.5s137.166 71.5 224.499 71.5c65.333 0 121.833 -13.5 169.5 -40.5s88.167 -65.5 121.5 -115.5l20 136h236
v-1054c0 -94.667 -19.667 -176.834 -59 -246.501s-95.833 -123.5 -169.5 -161.5s-161.834 -57 -264.501 -57zM568.003 192.002c44.667 0 83.001 9.33203 115.001 27.999s58.333 45.334 79 80.001v476c-20 35.333 -46.333 63 -79 83s-70.667 30 -114 30
c-52.667 0 -95.834 -15.167 -129.501 -45.5s-58.5 -72.333 -74.5 -126s-24 -116.167 -24 -187.5v-21c0 -98 17.833 -175.333 53.5 -232s93.5 -85 173.5 -85zM999.004 882.001l-116 200h280v-165zM449.004 1319v241h282v-241h-282z" />
    <glyph glyph-name="uni0122" unicode="&#x122;" horiz-adv-x="1367" 
d="M734 -21c-142.667 0 -264.668 30.3369 -366.001 91.0039s-179 144.667 -233 252s-81 232 -81 374v44c0 146 27 274.167 81 384.5s129.833 196.666 227.5 258.999s212.5 93.5 344.5 93.5c106.667 0 204.5 -14 293.5 -42s166.5 -69.333 232.5 -124v-317h-205l-37 199
c-27.333 22 -63.333 39.5 -108 52.5s-96.334 19.5 -155.001 19.5c-81.333 0 -152.333 -21.833 -213 -65.5s-107.5 -104.834 -140.5 -183.501s-49.5 -170 -49.5 -274v-46c0 -102.667 16.167 -191.834 48.5 -267.501s79.333 -134.334 141 -176.001s137.167 -62.5 226.5 -62.5
c54.667 0 103.834 5 147.501 15s80.167 22.333 109.5 37v267l-223 15v193h496v-584c-60 -44.667 -134.167 -81.5 -222.5 -110.5s-193.166 -43.5 -314.499 -43.5zM636.999 -532.996l-124.001 86c22 32.667 38.5 65.5 49.5 98.5s16.5 73.167 16.5 120.5v94h232v-82
c0 -62.667 -15.667 -121.5 -47 -176.5s-73.666 -101.833 -126.999 -140.5z" />
    <glyph glyph-name="uni0123" unicode="&#x123;" horiz-adv-x="1190" 
d="M542 -437c-54 0 -114.33 7.16895 -180.997 21.502s-125.334 34.166 -176.001 59.499l54 196c44.667 -20 92.834 -35.833 144.501 -47.5s100.167 -17.5 145.5 -17.5c80.667 0 139.667 22.333 177 67s56 107 56 187v78c-32.667 -41.333 -71.334 -73 -116.001 -95
s-96 -33 -154 -33c-88 0 -163.667 22 -227 66s-111.833 105.833 -145.5 185.5s-50.5 172.5 -50.5 278.5v21c0 114 16.833 214 50.5 300s81.667 152.833 144 200.5s137.166 71.5 224.499 71.5c65.333 0 121.833 -13.5 169.5 -40.5s88.167 -65.5 121.5 -115.5l20 136h236
v-1054c0 -94.667 -19.667 -176.834 -59 -246.501s-95.833 -123.5 -169.5 -161.5s-161.834 -57 -264.501 -57zM568.003 192.002c44.667 0 83.001 9.33203 115.001 27.999s58.333 45.334 79 80.001v476c-20 35.333 -46.333 63 -79 83s-70.667 30 -114 30
c-52.667 0 -95.834 -15.167 -129.501 -45.5s-58.5 -72.333 -74.5 -126s-24 -116.167 -24 -187.5v-21c0 -98 17.833 -175.333 53.5 -232s93.5 -85 173.5 -85zM999.004 882.001l-116 200h280v-165zM616.004 1682l123.999 -86.001c-22 -32.667 -38.5 -65.5 -49.5 -98.5
s-16.5 -73.5 -16.5 -121.5v-93h-232v82c0 63.333 15.833 122.333 47.5 177s73.834 101.334 126.501 140.001z" />
    <glyph glyph-name="Hcircumflex" unicode="&#x124;" horiz-adv-x="1595" 
d="M61 0v164l157 30v1067l-157 30v165h586v-165l-157 -30v-438h615v438l-157 30v165h157h272h157v-165l-157 -30v-1067l157 -30v-164h-586v164l157 30v419h-615v-419l157 -30v-164h-586zM447 1576v26l253 242h195l252 -244v-24h-214l-136 145l-139 -145h-211z" />
    <glyph glyph-name="hcircumflex" unicode="&#x125;" horiz-adv-x="1305" 
d="M48 0l0.000976562 163.999l145 30v1171l-158 30v165h429v-617c34.667 50 77.5 89 128.5 117s108.833 42 173.5 42c110.667 0 197.834 -35.833 261.501 -107.5s95.5 -182.5 95.5 -332.5v-468l145 -30v-164h-551v164l134 30v470c0 80.667 -15.667 138.334 -47 173.001
s-77.333 52 -138 52c-42.667 0 -81.334 -9.16699 -116.001 -27.5s-63.334 -44.5 -86.001 -78.5v-589l134 -30v-164h-550zM-15.999 1666v26l253 242h195l252 -244v-24h-214l-136 145l-139 -145h-211z" />
    <glyph glyph-name="Hbar" unicode="&#x126;" horiz-adv-x="1595" 
d="M61 0v164l157 30v1067l-157 30v165h586v-165l-157 -30v-438h615v438l-157 30v165h157h272h157v-165l-157 -30v-1067l157 -30v-164h-586v164l157 30v419h-615v-419l157 -30v-164h-586zM67 958v150h1461v-150h-1461z" />
    <glyph glyph-name="hbar" unicode="&#x127;" horiz-adv-x="1305" 
d="M48 0l0.000976562 163.999l145 30v1171l-158 30v165h429v-617c34.667 50 77.5 89 128.5 117s108.833 42 173.5 42c110.667 0 197.834 -35.833 261.501 -107.5s95.5 -182.5 95.5 -332.5v-468l145 -30v-164h-551v164l134 30v470c0 80.667 -15.667 138.334 -47 173.001
s-77.333 52 -138 52c-42.667 0 -81.334 -9.16699 -116.001 -27.5s-63.334 -44.5 -86.001 -78.5v-589l134 -30v-164h-550zM35.001 1138v155h647v-155h-647z" />
    <glyph glyph-name="Itilde" unicode="&#x128;" horiz-adv-x="708" 
d="M61 0v164l157 30v1067l-157 30v165h586v-165l-157 -30v-1067l157 -30v-164h-586zM127 1572l-142 35.999c0 44.667 10.333 85.667 31 123s48 67.333 82 90s71 34 111 34c32 0 65.167 -8 99.5 -24s67.166 -32.167 98.499 -48.5s58.333 -24.5 81 -24.5
c27.333 0.666992 49.5 11.334 66.5 32.001s25.5 46.667 25.5 78l142 -39c0 -45.333 -10.167 -86.666 -30.5 -123.999s-47.5 -67 -81.5 -89s-71.333 -33 -112 -33c-34.667 0 -69.167 8.16699 -103.5 24.5s-66.666 32.666 -96.999 48.999s-56.833 24.5 -79.5 24.5
c-27.333 0 -49.333 -10.667 -66 -32s-25 -47 -25 -77z" />
    <glyph glyph-name="itilde" unicode="&#x129;" horiz-adv-x="659" 
d="M57 0v164l145 30v693l-157 30v165h429v-888l145 -30v-164h-562zM107 1288l-142 35.999c0 44.667 10.333 85.667 31 123s48 67.333 82 90s71 34 111 34c32 0 65.167 -8 99.5 -24s67.166 -32.167 98.499 -48.5s58.333 -24.5 81 -24.5
c27.333 0.666992 49.5 11.334 66.5 32.001s25.5 46.667 25.5 78l142 -39c0 -45.333 -10.167 -86.666 -30.5 -123.999s-47.5 -67 -81.5 -89s-71.333 -33 -112 -33c-34.667 0 -69.167 8.16699 -103.5 24.5s-66.666 32.666 -96.999 48.999s-56.833 24.5 -79.5 24.5
c-27.333 0 -49.333 -10.667 -66 -32s-25 -47 -25 -77z" />
    <glyph glyph-name="Imacron" unicode="&#x12a;" horiz-adv-x="708" 
d="M61 0v164l157 30v1067l-157 30v165h586v-165l-157 -30v-1067l157 -30v-164h-586zM-11 1604v170h729v-170h-729z" />
    <glyph glyph-name="imacron" unicode="&#x12b;" horiz-adv-x="659" 
d="M57 0v164l145 30v693l-157 30v165h429v-888l145 -30v-164h-562zM-31 1320v170h729v-170h-729z" />
    <glyph glyph-name="Ibreve" unicode="&#x12c;" horiz-adv-x="708" 
d="M61 0v164l157 30v1067l-157 30v165h586v-165l-157 -30v-1067l157 -30v-164h-586zM355 1549c-105.333 0 -188.833 27 -250.5 81s-91.5 123.333 -89.5 208l2 6h188c0 -40.667 12 -74.167 36 -100.5s62 -39.5 114 -39.5c50 0 87.167 13 111.5 39s36.5 59.667 36.5 101h188
l2 -6c1.33301 -84.667 -28.5 -154 -89.5 -208s-143.833 -81 -248.5 -81z" />
    <glyph glyph-name="ibreve" unicode="&#x12d;" horiz-adv-x="659" 
d="M57 0v164l145 30v693l-157 30v165h429v-888l145 -30v-164h-562zM334 1265c-105.333 0 -188.833 27 -250.5 81s-91.5 123.333 -89.5 208l2 6h188c0 -40.667 12 -74.167 36 -100.5s62 -39.5 114 -39.5c50 0 87.167 13 111.5 39s36.5 59.667 36.5 101h188l2 -6
c1.33301 -84.667 -28.5 -154 -89.5 -208s-143.833 -81 -248.5 -81z" />
    <glyph glyph-name="Iogonek" unicode="&#x12e;" horiz-adv-x="708" 
d="M61 0v164l157 30v1067l-157 30v165h586v-165l-157 -30v-1067l157 -30v-164h-586zM546 -426c-74 0 -134.002 19 -180.002 57s-69 91.333 -69 160c0 50 18.333 98.833 55 146.5s97 88.167 181 121.5l114 -59c-48 -31.333 -83.5 -60.833 -106.5 -88.5
s-34.5 -57.167 -34.5 -88.5c0 -25.333 7 -44.666 21 -57.999s36.667 -20 68 -20c16 0 31 1.66699 45 5s27.667 7.66602 41 12.999l35 -148c-23.333 -11.333 -48.666 -21 -75.999 -29s-58.666 -12 -93.999 -12z" />
    <glyph glyph-name="iogonek" unicode="&#x12f;" horiz-adv-x="659" 
d="M57 0v164l145 30v693l-157 30v165h429v-888l145 -30v-164h-562zM192 1319v241h282v-241h-282zM518 -426c-74 0 -134.002 19 -180.002 57s-69 91.333 -69 160c0 50 18.333 98.833 55 146.5s97 88.167 181 121.5l114 -59c-48 -31.333 -83.5 -60.833 -106.5 -88.5
s-34.5 -57.167 -34.5 -88.5c0 -25.333 7 -44.666 21 -57.999s36.667 -20 68 -20c16 0 31 1.66699 45 5s27.667 7.66602 41 12.999l35 -148c-23.333 -11.333 -48.666 -21 -75.999 -29s-58.666 -12 -93.999 -12z" />
    <glyph glyph-name="Idotaccent" unicode="&#x130;" horiz-adv-x="708" 
d="M61 0v164l157 30v1067l-157 30v165h586v-165l-157 -30v-1067l157 -30v-164h-586zM213 1603v241h282v-241h-282z" />
    <glyph glyph-name="dotlessi" unicode="&#x131;" horiz-adv-x="659" 
d="M57 0v164l145 30v693l-157 30v165h429v-888l145 -30v-164h-562z" />
    <glyph glyph-name="IJ" unicode="&#x132;" horiz-adv-x="1892" 
d="M61 0v164l157 30v1067l-157 30v165h586v-165l-157 -30v-1067l157 -30v-164h-586zM1244 -21c-96.667 0 -182.002 16.999 -256.002 50.999s-132.5 85.667 -175.5 155s-66.5 157 -70.5 263l2 6h256c4.66699 -96 26.167 -163.667 64.5 -203s90.5 -59 156.5 -59
c42.667 0 79.834 9.33301 111.501 28s56.334 45.834 74.001 81.501s26.5 79.167 26.5 130.5v829l-196 29v166h624v-165l-157 -30v-829c0 -92 -17.833 -172 -53.5 -240s-87.5 -120.5 -155.5 -157.5s-151.667 -55.5 -251 -55.5z" />
    <glyph glyph-name="ij" unicode="&#x133;" horiz-adv-x="1256" 
d="M57 0v164l145 30v693l-157 30v165h429v-888l145 -30v-164h-562zM192 1319v241h282v-241h-282zM758 -437c-26 0 -49.6689 1.33301 -71.002 4s-43.333 7 -66 13l14 206c13.333 -3.33301 28.833 -6.33301 46.5 -9s34.834 -4 51.501 -4c38.667 0 68.834 15.5 90.501 46.5
s32.5 74.167 32.5 129.5v938l-158 30v165h429v-1133c0 -123.333 -32.5 -218.5 -97.5 -285.5s-155.5 -100.5 -271.5 -100.5zM842.998 1319v241h282v-241h-282z" />
    <glyph glyph-name="Jcircumflex" unicode="&#x134;" horiz-adv-x="1195" 
d="M542 -21c-96.667 0 -182.002 16.999 -256.002 50.999s-132.5 85.667 -175.5 155s-66.5 157 -70.5 263l2 6h256c4.66699 -96 26.167 -163.667 64.5 -203s90.5 -59 156.5 -59c42.667 0 79.834 9.33301 111.501 28s56.334 45.834 74.001 81.501s26.5 79.167 26.5 130.5v829
l-196 29v166h624v-165l-157 -30v-829c0 -92 -17.833 -172 -53.5 -240s-87.5 -120.5 -155.5 -157.5s-151.667 -55.5 -251 -55.5zM510.998 1576v26l253 242h195l252 -244v-24h-214l-136 145l-139 -145h-211z" />
    <glyph glyph-name="jcircumflex" unicode="&#x135;" horiz-adv-x="584" 
d="M95 -437c-26 0 -49.6689 1.33301 -71.002 4s-43.333 7 -66 13l14 206c13.333 -3.33301 28.833 -6.33301 46.5 -9s34.834 -4 51.501 -4c38.667 0 68.834 15.5 90.501 46.5s32.5 74.167 32.5 129.5v938l-158 30v165h429v-1133c0 -123.333 -32.5 -218.5 -97.5 -285.5
s-155.5 -100.5 -271.5 -100.5zM-29.002 1292v26l253 242h195l252 -244v-24h-214l-136 145l-139 -145h-211z" />
    <glyph glyph-name="uni0136" unicode="&#x136;" horiz-adv-x="1536" 
d="M439 370l-141 163l708 741l2 4l-136 13v165h571v-165l-137 -27zM61 0v164l157 30v1067l-157 30v165h580v-165l-151 -30v-1067l151 -30v-164h-580zM904 0v164l133 13v1l-377 520l176 185l518 -694l141 -25v-164h-591zM720 -533l-124.001 86c22 32.667 38.5 65.5 49.5 98.5
s16.5 73.167 16.5 120.5v94h232v-82c0 -62.667 -15.667 -121.5 -47 -176.5s-73.666 -101.833 -126.999 -140.5z" />
    <glyph glyph-name="uni0137" unicode="&#x137;" horiz-adv-x="1310" 
d="M50 0v164l146 30v1171l-157 30v165h428v-1366l134 -30v-164h-551zM740 0v158l89 18l-2 4l-236 314l169 184l372 -484l139 -30v-164h-531zM440 299l-126 162l470 438l3 4l-112 15v164h542v-165l-139 -34zM608 -533l-124.001 86c22 32.667 38.5 65.5 49.5 98.5
s16.5 73.167 16.5 120.5v94h232v-82c0 -62.667 -15.667 -121.5 -47 -176.5s-73.666 -101.833 -126.999 -140.5z" />
    <glyph glyph-name="kgreenlandic" unicode="&#x138;" horiz-adv-x="1294" 
d="M450 297l-120 172l444 428l4 4l-105 17v164h533v-165l-139 -32zM54 0v164l150 33v687l-159 33v165h430v-885l144 -33v-164h-565zM920 0l-344 491l173 199l358 -496l124 -30v-164h-311z" />
    <glyph glyph-name="Lacute" unicode="&#x139;" horiz-adv-x="1202" 
d="M61 0v164l157 30v1067l-157 30v165h157h272h173v-165l-173 -30v-1053h433l16 217h208v-425h-1086zM204 1572l196 272h292l2 -6l-274 -266h-208h-8z" />
    <glyph glyph-name="lacute" unicode="&#x13a;" horiz-adv-x="653" 
d="M50 0v164l146 30v1171l-157 30v165h429v-1366l146 -30v-164h-564zM171 1662l196 272h292l2 -6l-274 -266h-208h-8z" />
    <glyph glyph-name="uni013B" unicode="&#x13b;" horiz-adv-x="1202" 
d="M61 0v164l157 30v1067l-157 30v165h157h272h173v-165l-173 -30v-1053h433l16 217h208v-425h-1086zM554 -533l-124.001 86c22 32.667 38.5 65.5 49.5 98.5s16.5 73.167 16.5 120.5v94h232v-82c0 -62.667 -15.667 -121.5 -47 -176.5s-73.666 -101.833 -126.999 -140.5z" />
    <glyph glyph-name="uni013C" unicode="&#x13c;" horiz-adv-x="653" 
d="M50 0v164l146 30v1171l-157 30v165h429v-1366l146 -30v-164h-564zM287 -533l-124.001 86c22 32.667 38.5 65.5 49.5 98.5s16.5 73.167 16.5 120.5v94h232v-82c0 -62.667 -15.667 -121.5 -47 -176.5s-73.666 -101.833 -126.999 -140.5z" />
    <glyph glyph-name="Lcaron" unicode="&#x13d;" horiz-adv-x="1202" 
d="M61 0v164l157 30v1067l-157 30v165h157h272h173v-165l-173 -30v-1053h433l16 217h208v-425h-1086zM992 1057l-124.001 86c22 32.667 38.5 65.5 49.5 98.5s16.5 73.5 16.5 121.5v93h232v-82c0 -62.667 -15.667 -121.5 -47 -176.5s-73.666 -101.833 -126.999 -140.5z" />
    <glyph glyph-name="lcaron" unicode="&#x13e;" horiz-adv-x="653" 
d="M50 0v164l146 30v1171l-157 30v165h429v-1366l146 -30v-164h-564zM654 1161l-124.001 86c22 32.667 38.5 65.5 49.5 98.5s16.5 73.5 16.5 121.5v93h232v-82c0 -62.667 -15.667 -121.5 -47 -176.5s-73.666 -101.833 -126.999 -140.5z" />
    <glyph glyph-name="Ldot" unicode="&#x13f;" horiz-adv-x="1202" 
d="M61 0v164l157 30v1067l-157 30v165h157h272h173v-165l-173 -30v-1053h433l16 217h208v-425h-1086zM848 617v245h271v-245h-271z" />
    <glyph glyph-name="ldot" unicode="&#x140;" horiz-adv-x="653" 
d="M50 0v164l146 30v1171l-157 30v165h429v-1366l146 -30v-164h-564zM598 617v245h271v-245h-271z" />
    <glyph glyph-name="Lslash" unicode="&#x141;" horiz-adv-x="1202" 
d="M61 0v164l157 30v1067l-157 30v165h157h272h173v-165l-173 -30v-1053h433l16 217h208v-425h-1086zM79 573v188l637 187v-188z" />
    <glyph glyph-name="lslash" unicode="&#x142;" horiz-adv-x="653" 
d="M50 0v164l146 30v1171l-157 30v165h429v-1366l146 -30v-164h-564zM60 572v189l549 187v-189z" />
    <glyph glyph-name="Nacute" unicode="&#x143;" horiz-adv-x="1601" 
d="M62 0v164l156 30v1067l-156 30v165h156h276l651 -1036l6 1v840l-185 30v165h429h157v-165l-157 -30v-1261h-261l-665 1029l-6 -1v-834l185 -30v-164h-586zM638 1572l196 272h292l2 -6l-274 -266h-208h-8z" />
    <glyph glyph-name="nacute" unicode="&#x144;" horiz-adv-x="1315" 
d="M56 0v164.001l145 30v693l-156 30v165h408l13 -156c36 55.333 80.833 98.5 134.5 129.5s114.5 46.5 182.5 46.5c108.667 0 193.834 -34.167 255.501 -102.5s92.5 -175.5 92.5 -321.5v-484l145 -30v-164h-551v164l133 30v482c0 77.333 -15.333 132.166 -46 164.499
s-76.334 48.5 -137.001 48.5c-45.333 0 -84.833 -9.83301 -118.5 -29.5s-61.5 -47.5 -83.5 -83.5v-582l128 -30v-164h-545zM496 1288l196 272h292l2 -6l-274 -266h-208h-8z" />
    <glyph glyph-name="uni0145" unicode="&#x145;" horiz-adv-x="1601" 
d="M62 0v164l156 30v1067l-156 30v165h156h276l651 -1036l6 1v840l-185 30v165h429h157v-165l-157 -30v-1261h-261l-665 1029l-6 -1v-834l185 -30v-164h-586zM754 -533l-124.001 86c22 32.667 38.5 65.5 49.5 98.5s16.5 73.167 16.5 120.5v94h232v-82
c0 -62.667 -15.667 -121.5 -47 -176.5s-73.666 -101.833 -126.999 -140.5z" />
    <glyph glyph-name="uni0146" unicode="&#x146;" horiz-adv-x="1315" 
d="M56 0v164.001l145 30v693l-156 30v165h408l13 -156c36 55.333 80.833 98.5 134.5 129.5s114.5 46.5 182.5 46.5c108.667 0 193.834 -34.167 255.501 -102.5s92.5 -175.5 92.5 -321.5v-484l145 -30v-164h-551v164l133 30v482c0 77.333 -15.333 132.166 -46 164.499
s-76.334 48.5 -137.001 48.5c-45.333 0 -84.833 -9.83301 -118.5 -29.5s-61.5 -47.5 -83.5 -83.5v-582l128 -30v-164h-545zM613 -532.999l-124.001 86c22 32.667 38.5 65.5 49.5 98.5s16.5 73.167 16.5 120.5v94h232v-82c0 -62.667 -15.667 -121.5 -47 -176.5
s-73.666 -101.833 -126.999 -140.5z" />
    <glyph glyph-name="Ncaron" unicode="&#x147;" horiz-adv-x="1601" 
d="M62 0v164l156 30v1067l-156 30v165h156h276l651 -1036l6 1v840l-185 30v165h429h157v-165l-157 -30v-1261h-261l-665 1029l-6 -1v-834l185 -30v-164h-586zM1151 1844v-26l-253 -242h-195l-252 244v24h214l136 -145l139 145h211z" />
    <glyph glyph-name="ncaron" unicode="&#x148;" horiz-adv-x="1315" 
d="M56 0v164.001l145 30v693l-156 30v165h408l13 -156c36 55.333 80.833 98.5 134.5 129.5s114.5 46.5 182.5 46.5c108.667 0 193.834 -34.167 255.501 -102.5s92.5 -175.5 92.5 -321.5v-484l145 -30v-164h-551v164l133 30v482c0 77.333 -15.333 132.166 -46 164.499
s-76.334 48.5 -137.001 48.5c-45.333 0 -84.833 -9.83301 -118.5 -29.5s-61.5 -47.5 -83.5 -83.5v-582l128 -30v-164h-545zM1009 1560v-26l-253 -242h-195l-252 244v24h214l136 -145l139 145h211z" />
    <glyph glyph-name="napostrophe" unicode="&#x149;" horiz-adv-x="1315" 
d="M56 0v164.001l145 30v693l-156 30v165h408l13 -156c36 55.333 80.833 98.5 134.5 129.5s114.5 46.5 182.5 46.5c108.667 0 193.834 -34.167 255.501 -102.5s92.5 -175.5 92.5 -321.5v-484l145 -30v-164h-551v164l133 30v482c0 77.333 -15.333 132.166 -46 164.499
s-76.334 48.5 -137.001 48.5c-45.333 0 -84.833 -9.83301 -118.5 -29.5s-61.5 -47.5 -83.5 -83.5v-582l128 -30v-164h-545zM164 1161l-124.001 86c22 32.667 38.5 65.5 49.5 98.5s16.5 73.167 16.5 120.5v94h232v-82c0 -62.667 -15.667 -121.5 -47 -176.5
s-73.666 -101.833 -126.999 -140.5z" />
    <glyph glyph-name="Eng" unicode="&#x14a;" horiz-adv-x="1579" 
d="M1016 -437c-25.333 0 -48.5 1.33301 -69.5 4s-43.5 7 -67.5 13l14 206c14 -3.33301 29.667 -6.33301 47 -9s33.333 -4 48 -4c40.667 0 72 15.5 94 46.5s33 74.167 33 129.5v51l-611 1009l-6 -1v-814l156 -30v-164h-585v164l157 30v1067l-157 30v165h429l611 -1009l6 2
v812l-157 30v165h585v-165l-156 -30v-1312c0 -123.333 -32.667 -218.5 -98 -285.5s-156.333 -100.5 -273 -100.5z" />
    <glyph glyph-name="eng" unicode="&#x14b;" horiz-adv-x="1278" 
d="M793 -437c-26 0 -49.832 1.33203 -71.499 3.99902s-43.834 7 -66.501 13l14 211c13.333 -3.33301 28.833 -6.16602 46.5 -8.49902s34.5 -3.5 50.5 -3.5c40 0 70.667 14.5 92 43.5s32 71.167 32 126.5v716c0 81.333 -14.667 139 -44 173s-73.666 51 -132.999 51
c-45.333 0 -85 -9.33301 -119 -28s-62.333 -44.667 -85 -78v-589l145 -30v-164h-562v164l145 30v693l-156 30v165h407l14 -151c35.333 54 79.666 96 132.999 126s113.333 45 180 45c108.667 0 193.667 -35 255 -105s92 -180 92 -330v-718
c0 -123.333 -32.5 -218.5 -97.5 -285.5s-155.5 -100.5 -271.5 -100.5z" />
    <glyph glyph-name="Omacron" unicode="&#x14c;" horiz-adv-x="1426" 
d="M713 -21c-97.333 0 -185.666 18.167 -264.999 54.5s-147.5 87.666 -204.5 153.999s-100.833 144.333 -131.5 234s-46 188.167 -46 295.5v22c0 106.667 15.333 204.834 46 294.501s74.5 167.667 131.5 234s125 117.833 204 154.5s167.167 55 264.5 55
c99.333 0 188.833 -18.333 268.5 -55s148.167 -88.167 205.5 -154.5s101.166 -144.333 131.499 -234s45.5 -187.834 45.5 -294.501v-22c0 -107.333 -15.167 -205.833 -45.5 -295.5s-74 -167.667 -131 -234s-125.5 -117.666 -205.5 -153.999s-169.333 -54.5 -268 -54.5z
M713 193c85.333 0 155.998 21.8311 211.998 65.498s97.833 104.834 125.5 183.501s41.5 170.334 41.5 275.001v24c0 103.333 -14 194 -42 272s-70.167 139 -126.5 183s-126.833 66 -211.5 66c-82.667 0 -151.667 -21.833 -207 -65.5s-96.833 -104.5 -124.5 -182.5
s-41.5 -169 -41.5 -273v-24c0 -104 13.833 -195.5 41.5 -274.5s69.334 -140.333 125.001 -184s124.834 -65.5 207.501 -65.5zM348.998 1604v170h729v-170h-729z" />
    <glyph glyph-name="omacron" unicode="&#x14d;" horiz-adv-x="1148" 
d="M576 -21c-106 0 -196.666 23.333 -271.999 70s-133.333 111.5 -174 194.5s-61 178.5 -61 286.5v21c0 107.333 20.333 202.333 61 285s98.667 147.667 174 195s165.333 71 270 71c105.333 0 195.666 -23.5 270.999 -70.5s133.166 -111.833 173.499 -194.5
s60.5 -178 60.5 -286v-21c0 -108 -20.167 -203.5 -60.5 -286.5s-98.166 -147.833 -173.499 -194.5s-165 -70 -269 -70zM576.001 188c52.667 0 96.166 14.332 130.499 42.999s59.833 68.834 76.5 120.501s25 111.167 25 178.5v21c0 66.667 -8.33301 125.667 -25 177
s-42.334 91.5 -77.001 120.5s-78.667 43.5 -132 43.5s-97.166 -14.5 -131.499 -43.5s-59.833 -69.167 -76.5 -120.5s-25 -110.333 -25 -177v-21c0 -68 8.33301 -127.667 25 -179s42.334 -91.333 77.001 -120s79 -43 133 -43zM210 1320v170h729v-170h-729z" />
    <glyph glyph-name="Obreve" unicode="&#x14e;" horiz-adv-x="1426" 
d="M713 -21c-97.333 0 -185.666 18.167 -264.999 54.5s-147.5 87.666 -204.5 153.999s-100.833 144.333 -131.5 234s-46 188.167 -46 295.5v22c0 106.667 15.333 204.834 46 294.501s74.5 167.667 131.5 234s125 117.833 204 154.5s167.167 55 264.5 55
c99.333 0 188.833 -18.333 268.5 -55s148.167 -88.167 205.5 -154.5s101.166 -144.333 131.499 -234s45.5 -187.834 45.5 -294.501v-22c0 -107.333 -15.167 -205.833 -45.5 -295.5s-74 -167.667 -131 -234s-125.5 -117.666 -205.5 -153.999s-169.333 -54.5 -268 -54.5z
M713 193c85.333 0 155.998 21.8311 211.998 65.498s97.833 104.834 125.5 183.501s41.5 170.334 41.5 275.001v24c0 103.333 -14 194 -42 272s-70.167 139 -126.5 183s-126.833 66 -211.5 66c-82.667 0 -151.667 -21.833 -207 -65.5s-96.833 -104.5 -124.5 -182.5
s-41.5 -169 -41.5 -273v-24c0 -104 13.833 -195.5 41.5 -274.5s69.334 -140.333 125.001 -184s124.834 -65.5 207.501 -65.5zM713.998 1549c-105.333 0 -188.833 27 -250.5 81s-91.5 123.333 -89.5 208l2 6h188c0 -40.667 12 -74.167 36 -100.5s62 -39.5 114 -39.5
c50 0 87.167 13 111.5 39s36.5 59.667 36.5 101h188l2 -6c1.33301 -84.667 -28.5 -154 -89.5 -208s-143.833 -81 -248.5 -81z" />
    <glyph glyph-name="obreve" unicode="&#x14f;" horiz-adv-x="1148" 
d="M576 -21c-106 0 -196.666 23.333 -271.999 70s-133.333 111.5 -174 194.5s-61 178.5 -61 286.5v21c0 107.333 20.333 202.333 61 285s98.667 147.667 174 195s165.333 71 270 71c105.333 0 195.666 -23.5 270.999 -70.5s133.166 -111.833 173.499 -194.5
s60.5 -178 60.5 -286v-21c0 -108 -20.167 -203.5 -60.5 -286.5s-98.166 -147.833 -173.499 -194.5s-165 -70 -269 -70zM576.001 188c52.667 0 96.166 14.332 130.499 42.999s59.833 68.834 76.5 120.501s25 111.167 25 178.5v21c0 66.667 -8.33301 125.667 -25 177
s-42.334 91.5 -77.001 120.5s-78.667 43.5 -132 43.5s-97.166 -14.5 -131.499 -43.5s-59.833 -69.167 -76.5 -120.5s-25 -110.333 -25 -177v-21c0 -68 8.33301 -127.667 25 -179s42.334 -91.333 77.001 -120s79 -43 133 -43zM575 1265c-105.333 0 -188.833 27 -250.5 81
s-91.5 123.333 -89.5 208l2 6h188c0 -40.667 12 -74.167 36 -100.5s62 -39.5 114 -39.5c50 0 87.167 13 111.5 39s36.5 59.667 36.5 101h188l2 -6c1.33301 -84.667 -28.5 -154 -89.5 -208s-143.833 -81 -248.5 -81z" />
    <glyph glyph-name="Ohungarumlaut" unicode="&#x150;" horiz-adv-x="1426" 
d="M713 -21c-97.333 0 -185.666 18.167 -264.999 54.5s-147.5 87.666 -204.5 153.999s-100.833 144.333 -131.5 234s-46 188.167 -46 295.5v22c0 106.667 15.333 204.834 46 294.501s74.5 167.667 131.5 234s125 117.833 204 154.5s167.167 55 264.5 55
c99.333 0 188.833 -18.333 268.5 -55s148.167 -88.167 205.5 -154.5s101.166 -144.333 131.499 -234s45.5 -187.834 45.5 -294.501v-22c0 -107.333 -15.167 -205.833 -45.5 -295.5s-74 -167.667 -131 -234s-125.5 -117.666 -205.5 -153.999s-169.333 -54.5 -268 -54.5z
M713 193c85.333 0 155.998 21.8311 211.998 65.498s97.833 104.834 125.5 183.501s41.5 170.334 41.5 275.001v24c0 103.333 -14 194 -42 272s-70.167 139 -126.5 183s-126.833 66 -211.5 66c-82.667 0 -151.667 -21.833 -207 -65.5s-96.833 -104.5 -124.5 -182.5
s-41.5 -169 -41.5 -273v-24c0 -104 13.833 -195.5 41.5 -274.5s69.334 -140.333 125.001 -184s124.834 -65.5 207.501 -65.5zM702.998 1572l-2 5l240 267h267l2 -6l-294 -266h-213zM379.998 1572h-7l196 272h250l2 -5l-240 -267h-201z" />
    <glyph glyph-name="ohungarumlaut" unicode="&#x151;" horiz-adv-x="1148" 
d="M576 -21c-106 0 -196.666 23.333 -271.999 70s-133.333 111.5 -174 194.5s-61 178.5 -61 286.5v21c0 107.333 20.333 202.333 61 285s98.667 147.667 174 195s165.333 71 270 71c105.333 0 195.666 -23.5 270.999 -70.5s133.166 -111.833 173.499 -194.5
s60.5 -178 60.5 -286v-21c0 -108 -20.167 -203.5 -60.5 -286.5s-98.166 -147.833 -173.499 -194.5s-165 -70 -269 -70zM576.001 188c52.667 0 96.166 14.332 130.499 42.999s59.833 68.834 76.5 120.501s25 111.167 25 178.5v21c0 66.667 -8.33301 125.667 -25 177
s-42.334 91.5 -77.001 120.5s-78.667 43.5 -132 43.5s-97.166 -14.5 -131.499 -43.5s-59.833 -69.167 -76.5 -120.5s-25 -110.333 -25 -177v-21c0 -68 8.33301 -127.667 25 -179s42.334 -91.333 77.001 -120s79 -43 133 -43zM564 1288l-2 5l240 267h267l2 -6l-294 -266h-213
zM241 1288h-7l196 272h250l2 -5l-240 -267h-201z" />
    <glyph glyph-name="OE" unicode="&#x152;" horiz-adv-x="2020" 
d="M743 -21c-103.333 0 -196.67 18.165 -280.003 54.498s-154.666 87.666 -213.999 153.999s-104.666 144.333 -135.999 234s-47 188.167 -47 295.5v22c0 106.667 15.667 204.834 47 294.501s76.5 167.667 135.5 234s130 117.833 213 154.5s176.5 55 280.5 55
c55.333 0 111.666 -4.66699 168.999 -14s115.333 -22.666 174 -39.999v-267c-49.333 34 -103.666 60.167 -162.999 78.5s-119.333 27.5 -180 27.5c-91.333 0 -167 -21.833 -227 -65.5s-104.333 -104.5 -133 -182.5s-43 -169 -43 -273v-24c0 -104 14.5 -195.5 43.5 -274.5
s73.5 -140.333 133.5 -184s135.667 -65.5 227 -65.5c60 0 119.333 8.5 178 25.5s113.334 40.833 164.001 71.5v-257c-58.667 -17.333 -116.667 -30.666 -174 -39.999s-113.333 -14 -168 -14zM860.996 -0.00195312l63 183v1089l-63 184h1050v-388h-212l-14 178h-489v-388h507
v-211h-507v-438h495l13 178h211v-387h-1054z" />
    <glyph glyph-name="oe" unicode="&#x153;" horiz-adv-x="1831" 
d="M575 -21c-105.333 0 -195.834 23.332 -271.501 69.999s-133.667 111.5 -174 194.5s-60.5 178.5 -60.5 286.5v21c0 107.333 20.167 202.333 60.5 285s98.166 147.667 173.499 195s165.333 71 270 71c78.667 0 149.667 -15 213 -45s117.333 -72.333 162 -127
c42.667 55.333 94.167 97.833 154.5 127.5s126.5 44.5 198.5 44.5c97.333 0 180 -20 248 -60s119.833 -96.333 155.5 -169s53.5 -159 53.5 -259v-151h-659l-2 -6c3.33301 -52 15.333 -98.167 36 -138.5s49.5 -72.166 86.5 -95.499s81.167 -35 132.5 -35
c44 0 82.5 3.16699 115.5 9.5s64.333 16 94 29s60.167 29.167 91.5 48.5l80 -169c-43.333 -36 -99.833 -66.167 -169.5 -90.5s-148.167 -36.5 -235.5 -36.5c-54 0 -104.167 6.5 -150.5 19.5s-88.666 32.167 -126.999 57.5s-72.166 56.333 -101.499 93
c-44 -55.333 -97.5 -97.5 -160.5 -126.5s-134.167 -43.5 -213.5 -43.5zM574.999 187.999c53.333 0 97 14.332 131 42.999s59.5 68.834 76.5 120.501s25.5 111.167 25.5 178.5v21c0 66.667 -8.5 125.667 -25.5 177s-42.667 91.5 -77 120.5s-78.5 43.5 -132.5 43.5
c-53.333 0 -97 -14.5 -131 -43.5s-59.333 -69.167 -76 -120.5s-25 -110.333 -25 -177v-21c0 -68 8.33301 -127.667 25 -179s42.167 -91.333 76.5 -120s78.5 -43 132.5 -43zM1102 647.998h388.999v26c0 43.333 -7 81.5 -21 114.5s-35 58.5 -63 76.5s-63.333 27 -106 27
c-38 0 -71 -10.167 -99 -30.5s-50.667 -48.5 -68 -84.5s-28.666 -77.333 -33.999 -124z" />
    <glyph glyph-name="Racute" unicode="&#x154;" horiz-adv-x="1403" 
d="M61 0l-0.000976562 163.999l157 30v1067l-157 30v165h682c110 0 204.5 -17 283.5 -51s139.333 -83 181 -147s62.5 -140.667 62.5 -230c0 -85.333 -20.667 -160.666 -62 -225.999s-99.166 -116.5 -173.499 -153.5s-160.5 -55.833 -258.5 -56.5l-286 -1v-397l157 -30v-164
h-586zM1003 -0.000976562l-262 650l250 51l224 -509l119 -26v-166h-331zM489.999 800.999l244 0.000976562c90 0 156.667 18.5 200 55.5s65 90.833 65 161.5c0 69.333 -21.333 124.666 -64 165.999s-106.667 62 -192 62h-253v-445zM534.999 1572l196 272h292l2 -6l-274 -266
h-208h-8z" />
    <glyph glyph-name="racute" unicode="&#x155;" horiz-adv-x="879" 
d="M82 0v164l145 30v693l-156 30v165h408l12 -135l2 -23c27.333 58 61.333 102.167 102 132.5s88.667 45.5 144 45.5c18 0 37.5 -1.5 58.5 -4.5s38.833 -6.83301 53.5 -11.5l-31 -251l-143 8c-43.333 2 -78.833 -6 -106.5 -24s-51.5 -43.667 -71.5 -77v-548l145 -30v-164
h-562zM289 1288l196 272h292l2 -6l-274 -266h-208h-8z" />
    <glyph glyph-name="uni0156" unicode="&#x156;" horiz-adv-x="1403" 
d="M61 0l-0.000976562 163.999l157 30v1067l-157 30v165h682c110 0 204.5 -17 283.5 -51s139.333 -83 181 -147s62.5 -140.667 62.5 -230c0 -85.333 -20.667 -160.666 -62 -225.999s-99.166 -116.5 -173.499 -153.5s-160.5 -55.833 -258.5 -56.5l-286 -1v-397l157 -30v-164
h-586zM1003 -0.000976562l-262 650l250 51l224 -509l119 -26v-166h-331zM489.999 800.999l244 0.000976562c90 0 156.667 18.5 200 55.5s65 90.833 65 161.5c0 69.333 -21.333 124.666 -64 165.999s-106.667 62 -192 62h-253v-445zM654.999 -533l-124.001 86
c22 32.667 38.5 65.5 49.5 98.5s16.5 73.167 16.5 120.5v94h232v-82c0 -62.667 -15.667 -121.5 -47 -176.5s-73.666 -101.833 -126.999 -140.5z" />
    <glyph glyph-name="uni0157" unicode="&#x157;" horiz-adv-x="879" 
d="M82 0v164l145 30v693l-156 30v165h408l12 -135l2 -23c27.333 58 61.333 102.167 102 132.5s88.667 45.5 144 45.5c18 0 37.5 -1.5 58.5 -4.5s38.833 -6.83301 53.5 -11.5l-31 -251l-143 8c-43.333 2 -78.833 -6 -106.5 -24s-51.5 -43.667 -71.5 -77v-548l145 -30v-164
h-562zM349 -533l-124.001 86c22 32.667 38.5 65.5 49.5 98.5s16.5 73.167 16.5 120.5v94h232v-82c0 -62.667 -15.667 -121.5 -47 -176.5s-73.666 -101.833 -126.999 -140.5z" />
    <glyph glyph-name="Rcaron" unicode="&#x158;" horiz-adv-x="1403" 
d="M61 0l-0.000976562 163.999l157 30v1067l-157 30v165h682c110 0 204.5 -17 283.5 -51s139.333 -83 181 -147s62.5 -140.667 62.5 -230c0 -85.333 -20.667 -160.666 -62 -225.999s-99.166 -116.5 -173.499 -153.5s-160.5 -55.833 -258.5 -56.5l-286 -1v-397l157 -30v-164
h-586zM1003 -0.000976562l-262 650l250 51l224 -509l119 -26v-166h-331zM489.999 800.999l244 0.000976562c90 0 156.667 18.5 200 55.5s65 90.833 65 161.5c0 69.333 -21.333 124.666 -64 165.999s-106.667 62 -192 62h-253v-445zM1048 1844v-26l-253 -242h-195l-252 244
v24h214l136 -145l139 145h211z" />
    <glyph glyph-name="rcaron" unicode="&#x159;" horiz-adv-x="879" 
d="M82 0v164l145 30v693l-156 30v165h408l12 -135l2 -23c27.333 58 61.333 102.167 102 132.5s88.667 45.5 144 45.5c18 0 37.5 -1.5 58.5 -4.5s38.833 -6.83301 53.5 -11.5l-31 -251l-143 8c-43.333 2 -78.833 -6 -106.5 -24s-51.5 -43.667 -71.5 -77v-548l145 -30v-164
h-562zM802 1560v-26l-253 -242h-195l-252 244v24h214l136 -145l139 145h211z" />
    <glyph glyph-name="Sacute" unicode="&#x15a;" horiz-adv-x="1238" 
d="M641 -21c-103.333 0 -198.498 12.167 -285.498 36.5s-171.833 65.5 -254.5 123.5v344h210l32 -212c32.667 -25.333 75.167 -45.666 127.5 -60.999s109.166 -23 170.499 -23c56 0 103.167 7.83301 141.5 23.5s67.5 38 87.5 67s30 62.833 30 101.5
c0 37.333 -9 70.166 -27 98.499s-47.5 54 -88.5 77s-96.5 44.833 -166.5 65.5c-112 31.333 -205.333 67 -280 107s-130.5 88.167 -167.5 144.5s-55.5 123.5 -55.5 201.5s21.5 147.167 64.5 207.5s102.667 107.833 179 142.5s164.166 52.334 263.499 53.001
c110.667 1.33301 208.334 -12.334 293.001 -41.001s157 -67.334 217 -116.001v-320h-205l-37 201c-26.667 18 -61.667 33.333 -105 46s-93.333 19 -150 19c-48.667 0 -91.667 -7.5 -129 -22.5s-66.666 -36.833 -87.999 -65.5s-32 -63 -32 -103c0 -34.667 9.33301 -65 28 -91
s50 -50 94 -72s103.667 -44.667 179 -68c159.333 -43.333 280.166 -101.833 362.499 -175.5s123.5 -169.167 123.5 -286.5c0 -81.333 -22.167 -152.166 -66.5 -212.499s-106.333 -107 -186 -140s-172.834 -49.5 -279.501 -49.5zM456.002 1572l196 272h292l2 -6l-274 -266
h-208h-8z" />
    <glyph glyph-name="sacute" unicode="&#x15b;" horiz-adv-x="1031" 
d="M524 -21c-79.333 0 -153.167 7.50098 -221.5 22.501s-135.166 37.167 -200.499 66.5l-3 296h192l38 -156c26 -12 53.333 -21.333 82 -28s61 -10 97 -10c68.667 0 117.167 11.5 145.5 34.5s42.5 51.833 42.5 86.5c0 33.333 -15 62.166 -45 86.499s-88 45.5 -174 63.5
c-128.667 27.333 -223.334 68.5 -284.001 123.5s-91 125.5 -91 211.5c0 60 15.5 114.333 46.5 163s77.5 87.834 139.5 117.501s139.667 44.5 233 44.5c82 0 155.833 -8.33301 221.5 -25s121.167 -38 166.5 -64l5 -286h-191l-31 142c-19.333 14 -42 24.833 -68 32.5
s-55.333 11.5 -88 11.5c-53.333 0 -94.833 -11.333 -124.5 -34s-44.5 -51.334 -44.5 -86.001c0 -20 5 -38.333 15 -55s29.5 -32.167 58.5 -46.5s71.5 -27.833 127.5 -40.5c137.333 -31.333 236.5 -73 297.5 -125s91.5 -122.667 91.5 -212
c0 -98.667 -35.833 -179 -107.5 -241s-180.167 -93 -325.5 -93zM352.999 1288l196 272h292l2 -6l-274 -266h-208h-8z" />
    <glyph glyph-name="Scircumflex" unicode="&#x15c;" horiz-adv-x="1238" 
d="M641 -21c-103.333 0 -198.498 12.167 -285.498 36.5s-171.833 65.5 -254.5 123.5v344h210l32 -212c32.667 -25.333 75.167 -45.666 127.5 -60.999s109.166 -23 170.499 -23c56 0 103.167 7.83301 141.5 23.5s67.5 38 87.5 67s30 62.833 30 101.5
c0 37.333 -9 70.166 -27 98.499s-47.5 54 -88.5 77s-96.5 44.833 -166.5 65.5c-112 31.333 -205.333 67 -280 107s-130.5 88.167 -167.5 144.5s-55.5 123.5 -55.5 201.5s21.5 147.167 64.5 207.5s102.667 107.833 179 142.5s164.166 52.334 263.499 53.001
c110.667 1.33301 208.334 -12.334 293.001 -41.001s157 -67.334 217 -116.001v-320h-205l-37 201c-26.667 18 -61.667 33.333 -105 46s-93.333 19 -150 19c-48.667 0 -91.667 -7.5 -129 -22.5s-66.666 -36.833 -87.999 -65.5s-32 -63 -32 -103c0 -34.667 9.33301 -65 28 -91
s50 -50 94 -72s103.667 -44.667 179 -68c159.333 -43.333 280.166 -101.833 362.499 -175.5s123.5 -169.167 123.5 -286.5c0 -81.333 -22.167 -152.166 -66.5 -212.499s-106.333 -107 -186 -140s-172.834 -49.5 -279.501 -49.5zM269.002 1576v26l253 242h195l252 -244v-24
h-214l-136 145l-139 -145h-211z" />
    <glyph glyph-name="scircumflex" unicode="&#x15d;" horiz-adv-x="1031" 
d="M524 -21c-79.333 0 -153.167 7.50098 -221.5 22.501s-135.166 37.167 -200.499 66.5l-3 296h192l38 -156c26 -12 53.333 -21.333 82 -28s61 -10 97 -10c68.667 0 117.167 11.5 145.5 34.5s42.5 51.833 42.5 86.5c0 33.333 -15 62.166 -45 86.499s-88 45.5 -174 63.5
c-128.667 27.333 -223.334 68.5 -284.001 123.5s-91 125.5 -91 211.5c0 60 15.5 114.333 46.5 163s77.5 87.834 139.5 117.501s139.667 44.5 233 44.5c82 0 155.833 -8.33301 221.5 -25s121.167 -38 166.5 -64l5 -286h-191l-31 142c-19.333 14 -42 24.833 -68 32.5
s-55.333 11.5 -88 11.5c-53.333 0 -94.833 -11.333 -124.5 -34s-44.5 -51.334 -44.5 -86.001c0 -20 5 -38.333 15 -55s29.5 -32.167 58.5 -46.5s71.5 -27.833 127.5 -40.5c137.333 -31.333 236.5 -73 297.5 -125s91.5 -122.667 91.5 -212
c0 -98.667 -35.833 -179 -107.5 -241s-180.167 -93 -325.5 -93zM165.999 1292v26l253 242h195l252 -244v-24h-214l-136 145l-139 -145h-211z" />
    <glyph glyph-name="Scedilla" unicode="&#x15e;" horiz-adv-x="1238" 
d="M641 -21c-103.333 0 -198.498 12.167 -285.498 36.5s-171.833 65.5 -254.5 123.5v344h210l32 -212c32.667 -25.333 75.167 -45.666 127.5 -60.999s109.166 -23 170.499 -23c56 0 103.167 7.83301 141.5 23.5s67.5 38 87.5 67s30 62.833 30 101.5
c0 37.333 -9 70.166 -27 98.499s-47.5 54 -88.5 77s-96.5 44.833 -166.5 65.5c-112 31.333 -205.333 67 -280 107s-130.5 88.167 -167.5 144.5s-55.5 123.5 -55.5 201.5s21.5 147.167 64.5 207.5s102.667 107.833 179 142.5s164.166 52.334 263.499 53.001
c110.667 1.33301 208.334 -12.334 293.001 -41.001s157 -67.334 217 -116.001v-320h-205l-37 201c-26.667 18 -61.667 33.333 -105 46s-93.333 19 -150 19c-48.667 0 -91.667 -7.5 -129 -22.5s-66.666 -36.833 -87.999 -65.5s-32 -63 -32 -103c0 -34.667 9.33301 -65 28 -91
s50 -50 94 -72s103.667 -44.667 179 -68c159.333 -43.333 280.166 -101.833 362.499 -175.5s123.5 -169.167 123.5 -286.5c0 -81.333 -22.167 -152.166 -66.5 -212.499s-106.333 -107 -186 -140s-172.834 -49.5 -279.501 -49.5zM505.002 -454l-7.00098 149.001
c42 0 75.333 6.83301 100 20.5s37 34.5 37 62.5c0 28.667 -11.833 48.667 -35.5 60s-61.5 18.666 -113.5 21.999l35 161h200l-15 -77c44.667 -7.33301 81.834 -24.333 111.501 -51s44.5 -66 44.5 -118c0 -69.333 -31 -124.833 -93 -166.5s-150 -62.5 -264 -62.5z" />
    <glyph glyph-name="scedilla" unicode="&#x15f;" horiz-adv-x="1031" 
d="M524 -21c-79.333 0 -153.167 7.50098 -221.5 22.501s-135.166 37.167 -200.499 66.5l-3 296h192l38 -156c26 -12 53.333 -21.333 82 -28s61 -10 97 -10c68.667 0 117.167 11.5 145.5 34.5s42.5 51.833 42.5 86.5c0 33.333 -15 62.166 -45 86.499s-88 45.5 -174 63.5
c-128.667 27.333 -223.334 68.5 -284.001 123.5s-91 125.5 -91 211.5c0 60 15.5 114.333 46.5 163s77.5 87.834 139.5 117.501s139.667 44.5 233 44.5c82 0 155.833 -8.33301 221.5 -25s121.167 -38 166.5 -64l5 -286h-191l-31 142c-19.333 14 -42 24.833 -68 32.5
s-55.333 11.5 -88 11.5c-53.333 0 -94.833 -11.333 -124.5 -34s-44.5 -51.334 -44.5 -86.001c0 -20 5 -38.333 15 -55s29.5 -32.167 58.5 -46.5s71.5 -27.833 127.5 -40.5c137.333 -31.333 236.5 -73 297.5 -125s91.5 -122.667 91.5 -212
c0 -98.667 -35.833 -179 -107.5 -241s-180.167 -93 -325.5 -93zM401.999 -453.999l-7.00098 149.001c42 0 75.333 6.83301 100 20.5s37 34.5 37 62.5c0 28.667 -11.833 48.667 -35.5 60s-61.5 18.666 -113.5 21.999l35 161h200l-15 -77
c44.667 -7.33301 81.834 -24.333 111.501 -51s44.5 -66 44.5 -118c0 -69.333 -31 -124.833 -93 -166.5s-150 -62.5 -264 -62.5z" />
    <glyph glyph-name="Scaron" unicode="&#x160;" horiz-adv-x="1238" 
d="M641 -21c-103.333 0 -198.498 12.167 -285.498 36.5s-171.833 65.5 -254.5 123.5v344h210l32 -212c32.667 -25.333 75.167 -45.666 127.5 -60.999s109.166 -23 170.499 -23c56 0 103.167 7.83301 141.5 23.5s67.5 38 87.5 67s30 62.833 30 101.5
c0 37.333 -9 70.166 -27 98.499s-47.5 54 -88.5 77s-96.5 44.833 -166.5 65.5c-112 31.333 -205.333 67 -280 107s-130.5 88.167 -167.5 144.5s-55.5 123.5 -55.5 201.5s21.5 147.167 64.5 207.5s102.667 107.833 179 142.5s164.166 52.334 263.499 53.001
c110.667 1.33301 208.334 -12.334 293.001 -41.001s157 -67.334 217 -116.001v-320h-205l-37 201c-26.667 18 -61.667 33.333 -105 46s-93.333 19 -150 19c-48.667 0 -91.667 -7.5 -129 -22.5s-66.666 -36.833 -87.999 -65.5s-32 -63 -32 -103c0 -34.667 9.33301 -65 28 -91
s50 -50 94 -72s103.667 -44.667 179 -68c159.333 -43.333 280.166 -101.833 362.499 -175.5s123.5 -169.167 123.5 -286.5c0 -81.333 -22.167 -152.166 -66.5 -212.499s-106.333 -107 -186 -140s-172.834 -49.5 -279.501 -49.5zM969.002 1844v-26l-253 -242h-195l-252 244
v24h214l136 -145l139 145h211z" />
    <glyph glyph-name="scaron" unicode="&#x161;" horiz-adv-x="1031" 
d="M524 -21c-79.333 0 -153.167 7.50098 -221.5 22.501s-135.166 37.167 -200.499 66.5l-3 296h192l38 -156c26 -12 53.333 -21.333 82 -28s61 -10 97 -10c68.667 0 117.167 11.5 145.5 34.5s42.5 51.833 42.5 86.5c0 33.333 -15 62.166 -45 86.499s-88 45.5 -174 63.5
c-128.667 27.333 -223.334 68.5 -284.001 123.5s-91 125.5 -91 211.5c0 60 15.5 114.333 46.5 163s77.5 87.834 139.5 117.501s139.667 44.5 233 44.5c82 0 155.833 -8.33301 221.5 -25s121.167 -38 166.5 -64l5 -286h-191l-31 142c-19.333 14 -42 24.833 -68 32.5
s-55.333 11.5 -88 11.5c-53.333 0 -94.833 -11.333 -124.5 -34s-44.5 -51.334 -44.5 -86.001c0 -20 5 -38.333 15 -55s29.5 -32.167 58.5 -46.5s71.5 -27.833 127.5 -40.5c137.333 -31.333 236.5 -73 297.5 -125s91.5 -122.667 91.5 -212
c0 -98.667 -35.833 -179 -107.5 -241s-180.167 -93 -325.5 -93zM865.999 1560v-26l-253 -242h-195l-252 244v24h214l136 -145l139 145h211z" />
    <glyph glyph-name="uni0162" unicode="&#x162;" horiz-adv-x="1393" 
d="M402 0v164l157 30v1053h-279l-19 -180h-205v389h1280v-389h-206l-19 180h-280v-1053l158 -30v-164h-587zM583 -454l-7.00098 149.001c42 0 75.333 6.83301 100 20.5s37 34.5 37 62.5c0 28.667 -11.833 48.667 -35.5 60s-61.5 18.666 -113.5 21.999l35 161h200l-15 -77
c44.667 -7.33301 81.834 -24.333 111.501 -51s44.5 -66 44.5 -118c0 -69.333 -31 -124.833 -93 -166.5s-150 -62.5 -264 -62.5z" />
    <glyph glyph-name="uni0163" unicode="&#x163;" horiz-adv-x="734" 
d="M481 -20c-96 0 -170.5 26.8311 -223.5 80.498s-79.5 138.834 -79.5 255.501v573h-153v193h153v264h271v-264h207v-193h-207v-573c0 -44 9.33301 -75.667 28 -95s43.667 -29 75 -29c17.333 0 36.333 1.33301 57 4s38 5.33398 52 8.00098l26 -193
c-30 -8.66699 -63.167 -16 -99.5 -22s-71.833 -9 -106.5 -9zM268 -454.002l-7.00098 149.001c42 0 75.333 6.83301 100 20.5s37 34.5 37 62.5c0 28.667 -11.833 48.667 -35.5 60s-61.5 18.666 -113.5 21.999l35 161h200l-15 -77c44.667 -7.33301 81.834 -24.333 111.501 -51
s44.5 -66 44.5 -118c0 -69.333 -31 -124.833 -93 -166.5s-150 -62.5 -264 -62.5z" />
    <glyph glyph-name="Tcaron" unicode="&#x164;" horiz-adv-x="1393" 
d="M402 0v164l157 30v1053h-279l-19 -180h-205v389h1280v-389h-206l-19 180h-280v-1053l158 -30v-164h-587zM1046 1844v-26l-253 -242h-195l-252 244v24h214l136 -145l139 145h211z" />
    <glyph glyph-name="tcaron" unicode="&#x165;" horiz-adv-x="734" 
d="M481 -20c-96 0 -170.5 26.8311 -223.5 80.498s-79.5 138.834 -79.5 255.501v573h-153v193h153v264h271v-264h207v-193h-207v-573c0 -44 9.33301 -75.667 28 -95s43.667 -29 75 -29c17.333 0 36.333 1.33301 57 4s38 5.33398 52 8.00098l26 -193
c-30 -8.66699 -63.167 -16 -99.5 -22s-71.833 -9 -106.5 -9zM652 1161l-124.001 86c22 32.667 38.5 65.5 49.5 98.5s16.5 73.5 16.5 121.5v93h232v-82c0 -62.667 -15.667 -121.5 -47 -176.5s-73.666 -101.833 -126.999 -140.5z" />
    <glyph glyph-name="Tbar" unicode="&#x166;" horiz-adv-x="1393" 
d="M402 0v164l157 30v1053h-279l-19 -180h-205v389h1280v-389h-206l-19 180h-280v-1053l158 -30v-164h-587zM373 652v155h647v-155h-647z" />
    <glyph glyph-name="tbar" unicode="&#x167;" horiz-adv-x="734" 
d="M481 -20c-96 0 -170.5 26.8311 -223.5 80.498s-79.5 138.834 -79.5 255.501v573h-153v193h153v264h271v-264h207v-193h-207v-573c0 -44 9.33301 -75.667 28 -95s43.667 -29 75 -29c17.333 0 36.333 1.33301 57 4s38 5.33398 52 8.00098l26 -193
c-30 -8.66699 -63.167 -16 -99.5 -22s-71.833 -9 -106.5 -9zM16 594.998v155h647v-155h-647z" />
    <glyph glyph-name="Utilde" unicode="&#x168;" horiz-adv-x="1548" 
d="M772 -21c-112.667 0 -211.833 19.832 -297.5 59.499s-152.5 97.334 -200.5 173.001s-72 167.167 -72 274.5v775l-156 30v165h585v-165l-157 -30v-775c0 -66 12.167 -121 36.5 -165s58.833 -77 103.5 -99s97.334 -33 158.001 -33c62 0 115.667 10.833 161 32.5
s80.166 54.5 104.499 98.5s36.5 99.333 36.5 166v775l-157 30v165h586v-165l-157 -30v-775c0 -108 -24 -199.833 -72 -275.5s-115 -133.167 -201 -172.5s-186.333 -59 -301 -59zM547.001 1572l-142 35.999c0 44.667 10.333 85.667 31 123s48 67.333 82 90s71 34 111 34
c32 0 65.167 -8 99.5 -24s67.166 -32.167 98.499 -48.5s58.333 -24.5 81 -24.5c27.333 0.666992 49.5 11.334 66.5 32.001s25.5 46.667 25.5 78l142 -39c0 -45.333 -10.167 -86.666 -30.5 -123.999s-47.5 -67 -81.5 -89s-71.333 -33 -112 -33
c-34.667 0 -69.167 8.16699 -103.5 24.5s-66.666 32.666 -96.999 48.999s-56.833 24.5 -79.5 24.5c-27.333 0 -49.333 -10.667 -66 -32s-25 -47 -25 -77z" />
    <glyph glyph-name="utilde" unicode="&#x169;" horiz-adv-x="1268" 
d="M528 -21c-115.333 0 -205.5 36.5 -270.5 109.5s-97.5 186.5 -97.5 340.5v458l-120 30v165h120h272v-655c0 -85.333 14.167 -145.833 42.5 -181.5s71.833 -53.5 130.5 -53.5c48.667 0 91 9.66699 127 29s65 47 87 83v583l-132 30v165h132h272v-888l129 -30v-164h-369
l-18 142c-34 -52.667 -76.833 -93 -128.5 -121s-110.5 -42 -176.5 -42zM398 1288l-142 35.999c0 44.667 10.333 85.667 31 123s48 67.333 82 90s71 34 111 34c32 0 65.167 -8 99.5 -24s67.166 -32.167 98.499 -48.5s58.333 -24.5 81 -24.5
c27.333 0.666992 49.5 11.334 66.5 32.001s25.5 46.667 25.5 78l142 -39c0 -45.333 -10.167 -86.666 -30.5 -123.999s-47.5 -67 -81.5 -89s-71.333 -33 -112 -33c-34.667 0 -69.167 8.16699 -103.5 24.5s-66.666 32.666 -96.999 48.999s-56.833 24.5 -79.5 24.5
c-27.333 0 -49.333 -10.667 -66 -32s-25 -47 -25 -77z" />
    <glyph glyph-name="Umacron" unicode="&#x16a;" horiz-adv-x="1548" 
d="M772 -21c-112.667 0 -211.833 19.832 -297.5 59.499s-152.5 97.334 -200.5 173.001s-72 167.167 -72 274.5v775l-156 30v165h585v-165l-157 -30v-775c0 -66 12.167 -121 36.5 -165s58.833 -77 103.5 -99s97.334 -33 158.001 -33c62 0 115.667 10.833 161 32.5
s80.166 54.5 104.499 98.5s36.5 99.333 36.5 166v775l-157 30v165h586v-165l-157 -30v-775c0 -108 -24 -199.833 -72 -275.5s-115 -133.167 -201 -172.5s-186.333 -59 -301 -59zM409.001 1604v170h729v-170h-729z" />
    <glyph glyph-name="umacron" unicode="&#x16b;" horiz-adv-x="1268" 
d="M528 -21c-115.333 0 -205.5 36.5 -270.5 109.5s-97.5 186.5 -97.5 340.5v458l-120 30v165h120h272v-655c0 -85.333 14.167 -145.833 42.5 -181.5s71.833 -53.5 130.5 -53.5c48.667 0 91 9.66699 127 29s65 47 87 83v583l-132 30v165h132h272v-888l129 -30v-164h-369
l-18 142c-34 -52.667 -76.833 -93 -128.5 -121s-110.5 -42 -176.5 -42zM260 1320v170h729v-170h-729z" />
    <glyph glyph-name="Ubreve" unicode="&#x16c;" horiz-adv-x="1548" 
d="M772 -21c-112.667 0 -211.833 19.832 -297.5 59.499s-152.5 97.334 -200.5 173.001s-72 167.167 -72 274.5v775l-156 30v165h585v-165l-157 -30v-775c0 -66 12.167 -121 36.5 -165s58.833 -77 103.5 -99s97.334 -33 158.001 -33c62 0 115.667 10.833 161 32.5
s80.166 54.5 104.499 98.5s36.5 99.333 36.5 166v775l-157 30v165h586v-165l-157 -30v-775c0 -108 -24 -199.833 -72 -275.5s-115 -133.167 -201 -172.5s-186.333 -59 -301 -59zM775.001 1549c-105.333 0 -188.833 27 -250.5 81s-91.5 123.333 -89.5 208l2 6h188
c0 -40.667 12 -74.167 36 -100.5s62 -39.5 114 -39.5c50 0 87.167 13 111.5 39s36.5 59.667 36.5 101h188l2 -6c1.33301 -84.667 -28.5 -154 -89.5 -208s-143.833 -81 -248.5 -81z" />
    <glyph glyph-name="ubreve" unicode="&#x16d;" horiz-adv-x="1268" 
d="M528 -21c-115.333 0 -205.5 36.5 -270.5 109.5s-97.5 186.5 -97.5 340.5v458l-120 30v165h120h272v-655c0 -85.333 14.167 -145.833 42.5 -181.5s71.833 -53.5 130.5 -53.5c48.667 0 91 9.66699 127 29s65 47 87 83v583l-132 30v165h132h272v-888l129 -30v-164h-369
l-18 142c-34 -52.667 -76.833 -93 -128.5 -121s-110.5 -42 -176.5 -42zM625 1265c-105.333 0 -188.833 27 -250.5 81s-91.5 123.333 -89.5 208l2 6h188c0 -40.667 12 -74.167 36 -100.5s62 -39.5 114 -39.5c50 0 87.167 13 111.5 39s36.5 59.667 36.5 101h188l2 -6
c1.33301 -84.667 -28.5 -154 -89.5 -208s-143.833 -81 -248.5 -81z" />
    <glyph glyph-name="Uring" unicode="&#x16e;" horiz-adv-x="1548" 
d="M772 -21c-112.667 0 -211.833 19.832 -297.5 59.499s-152.5 97.334 -200.5 173.001s-72 167.167 -72 274.5v775l-156 30v165h585v-165l-157 -30v-775c0 -66 12.167 -121 36.5 -165s58.833 -77 103.5 -99s97.334 -33 158.001 -33c62 0 115.667 10.833 161 32.5
s80.166 54.5 104.499 98.5s36.5 99.333 36.5 166v775l-157 30v165h586v-165l-157 -30v-775c0 -108 -24 -199.833 -72 -275.5s-115 -133.167 -201 -172.5s-186.333 -59 -301 -59zM776.001 1511c-64.667 0 -119 19.667 -163 59s-66 90 -66 152c0 60 22.167 110.667 66.5 152
s98.5 62 162.5 62c63.333 0 116.666 -20.667 159.999 -62s65 -92 65 -152c0 -62 -21.667 -112.667 -65 -152s-96.666 -59 -159.999 -59zM776.001 1623c27.333 0 50 9.00098 68 27.001s27 42 27 72c0 29.333 -9 53.333 -27 72s-40.667 28 -68 28
c-28 0 -51.5 -9.33301 -70.5 -28s-28.5 -42.667 -28.5 -72c0 -28.667 9.5 -52.334 28.5 -71.001s42.5 -28 70.5 -28z" />
    <glyph glyph-name="uring" unicode="&#x16f;" horiz-adv-x="1268" 
d="M528 -21c-115.333 0 -205.5 36.5 -270.5 109.5s-97.5 186.5 -97.5 340.5v458l-120 30v165h120h272v-655c0 -85.333 14.167 -145.833 42.5 -181.5s71.833 -53.5 130.5 -53.5c48.667 0 91 9.66699 127 29s65 47 87 83v583l-132 30v165h132h272v-888l129 -30v-164h-369
l-18 142c-34 -52.667 -76.833 -93 -128.5 -121s-110.5 -42 -176.5 -42zM626 1227c-64.667 0 -119 19.667 -163 59s-66 90 -66 152c0 60 22.167 110.667 66.5 152s98.5 62 162.5 62c63.333 0 116.666 -20.667 159.999 -62s65 -92 65 -152c0 -62 -21.667 -112.667 -65 -152
s-96.666 -59 -159.999 -59zM626 1339c27.333 0 50 9.00098 68 27.001s27 42 27 72c0 29.333 -9 53.333 -27 72s-40.667 28 -68 28c-28 0 -51.5 -9.33301 -70.5 -28s-28.5 -42.667 -28.5 -72c0 -28.667 9.5 -52.334 28.5 -71.001s42.5 -28 70.5 -28z" />
    <glyph glyph-name="Uhungarumlaut" unicode="&#x170;" horiz-adv-x="1548" 
d="M772 -21c-112.667 0 -211.833 19.832 -297.5 59.499s-152.5 97.334 -200.5 173.001s-72 167.167 -72 274.5v775l-156 30v165h585v-165l-157 -30v-775c0 -66 12.167 -121 36.5 -165s58.833 -77 103.5 -99s97.334 -33 158.001 -33c62 0 115.667 10.833 161 32.5
s80.166 54.5 104.499 98.5s36.5 99.333 36.5 166v775l-157 30v165h586v-165l-157 -30v-775c0 -108 -24 -199.833 -72 -275.5s-115 -133.167 -201 -172.5s-186.333 -59 -301 -59zM763.001 1572l-2 5l240 267h267l2 -6l-294 -266h-213zM440.001 1572h-7l196 272h250l2 -5
l-240 -267h-201z" />
    <glyph glyph-name="uhungarumlaut" unicode="&#x171;" horiz-adv-x="1268" 
d="M528 -21c-115.333 0 -205.5 36.5 -270.5 109.5s-97.5 186.5 -97.5 340.5v458l-120 30v165h120h272v-655c0 -85.333 14.167 -145.833 42.5 -181.5s71.833 -53.5 130.5 -53.5c48.667 0 91 9.66699 127 29s65 47 87 83v583l-132 30v165h132h272v-888l129 -30v-164h-369
l-18 142c-34 -52.667 -76.833 -93 -128.5 -121s-110.5 -42 -176.5 -42zM614 1288l-2 5l240 267h267l2 -6l-294 -266h-213zM291 1288h-7l196 272h250l2 -5l-240 -267h-201z" />
    <glyph glyph-name="Uogonek" unicode="&#x172;" horiz-adv-x="1548" 
d="M772 -21c-112.667 0 -211.833 19.832 -297.5 59.499s-152.5 97.334 -200.5 173.001s-72 167.167 -72 274.5v775l-156 30v165h585v-165l-157 -30v-775c0 -66 12.167 -121 36.5 -165s58.833 -77 103.5 -99s97.334 -33 158.001 -33c62 0 115.667 10.833 161 32.5
s80.166 54.5 104.499 98.5s36.5 99.333 36.5 166v775l-157 30v165h586v-165l-157 -30v-775c0 -108 -24 -199.833 -72 -275.5s-115 -133.167 -201 -172.5s-186.333 -59 -301 -59zM835.001 -426.001c-74 0 -134.002 19 -180.002 57s-69 91.333 -69 160
c0 50 18.333 98.833 55 146.5s97 88.167 181 121.5l114 -59c-48 -31.333 -83.5 -60.833 -106.5 -88.5s-34.5 -57.167 -34.5 -88.5c0 -25.333 7 -44.666 21 -57.999s36.667 -20 68 -20c16 0 31 1.66699 45 5s27.667 7.66602 41 12.999l35 -148
c-23.333 -11.333 -48.666 -21 -75.999 -29s-58.666 -12 -93.999 -12z" />
    <glyph glyph-name="uogonek" unicode="&#x173;" horiz-adv-x="1268" 
d="M528 -21c-115.333 0 -205.5 36.5 -270.5 109.5s-97.5 186.5 -97.5 340.5v458l-120 30v165h120h272v-655c0 -85.333 14.167 -145.833 42.5 -181.5s71.833 -53.5 130.5 -53.5c48.667 0 91 9.66699 127 29s65 47 87 83v583l-132 30v165h132h272v-888l129 -30v-164h-369
l-18 142c-34 -52.667 -76.833 -93 -128.5 -121s-110.5 -42 -176.5 -42zM1119 -426c-74 0 -134.002 19 -180.002 57s-69 91.333 -69 160c0 50 18.333 98.833 55 146.5s97 88.167 181 121.5l114 -59c-48 -31.333 -83.5 -60.833 -106.5 -88.5s-34.5 -57.167 -34.5 -88.5
c0 -25.333 7 -44.666 21 -57.999s36.667 -20 68 -20c16 0 31 1.66699 45 5s27.667 7.66602 41 12.999l35 -148c-23.333 -11.333 -48.666 -21 -75.999 -29s-58.666 -12 -93.999 -12z" />
    <glyph glyph-name="Wcircumflex" unicode="&#x174;" horiz-adv-x="2186" 
d="M524 0l-338 1276l-144 15v165h562v-165l-156 -23l175 -728l34 -142l6 -1l41 143l289 916h207l298 -936l39 -133h6l35 133l179 748l-164 23v165h551v-165l-134 -15l-338 -1276h-249l-284 884l-36 126h-6l-39 -129l-287 -881h-247zM743 1576v26l253 242h195l252 -244v-24
h-214l-136 145l-139 -145h-211z" />
    <glyph glyph-name="wcircumflex" unicode="&#x175;" horiz-adv-x="1822" 
d="M425 0l-258 894l-130 23v165h507v-165l-118 -22l110 -445l23 -93h6l31 93l224 632h190l217 -639l32 -101h6l31 101l124 452l-128 22v165h497v-165l-125 -23l-276 -894h-234l-202 560l-39 131l-6 -1l-38 -131l-204 -559h-240zM561 1292v26l253 242h195l252 -244v-24h-214
l-136 145l-139 -145h-211z" />
    <glyph glyph-name="Ycircumflex" unicode="&#x176;" horiz-adv-x="1498" 
d="M456 0v164l157 30v312l-435 765l-136 20v165h564v-165l-129 -18l256 -488l22 -45l5 1l22 43l280 489l-162 18v165h553v-165l-140 -20l-429 -744v-333l158 -30v-164h-586zM399 1576v26l253 242h195l252 -244v-24h-214l-136 145l-139 -145h-211z" />
    <glyph glyph-name="ycircumflex" unicode="&#x177;" horiz-adv-x="1266" 
d="M351 -437c-22.667 0 -47.834 2.16895 -75.501 6.50195s-52.834 9.5 -75.501 15.5l31 202c12 -2 26.167 -3.66699 42.5 -5s29.5 -2 39.5 -2c42.667 0 78.667 12 108 36s52 58 68 102l29 77l-366 903l-130 19v165h550v-165l-133 -20l179 -491l27 -77h6l212 569l-132 19v165
h516v-165l-119 -17l-416 -1062c-20 -50.667 -45.167 -96.834 -75.5 -138.501s-68.666 -74.834 -114.999 -99.501s-103.166 -37 -170.499 -37zM286 1292v26l253 242h195l252 -244v-24h-214l-136 145l-139 -145h-211z" />
    <glyph glyph-name="Ydieresis" unicode="&#x178;" horiz-adv-x="1498" 
d="M456 0v164l157 30v312l-435 765l-136 20v165h564v-165l-129 -18l256 -488l22 -45l5 1l22 43l280 489l-162 18v165h553v-165l-140 -20l-429 -744v-333l158 -30v-164h-586zM839 1603v241h266v-241h-266zM394 1603v241h265v-241h-265z" />
    <glyph glyph-name="Zacute" unicode="&#x179;" horiz-adv-x="1220" 
d="M77 0v183l720 1063h-469l-22 -187h-209l9 397h1023v-177l-723 -1070h530l23 190h208l-14 -399h-1076zM440 1572l196 272h292l2 -6l-274 -266h-208h-8z" />
    <glyph glyph-name="zacute" unicode="&#x17a;" horiz-adv-x="1091" 
d="M88 0v165l569 724h-316l-31 -184h-200v377h874v-176l-545 -709h339l40 195h193v-392h-923zM382 1288l196 272h292l2 -6l-274 -266h-208h-8z" />
    <glyph glyph-name="Zdotaccent" unicode="&#x17b;" horiz-adv-x="1220" 
d="M77 0v183l720 1063h-469l-22 -187h-209l9 397h1023v-177l-723 -1070h530l23 190h208l-14 -399h-1076zM462 1603v241h282v-241h-282z" />
    <glyph glyph-name="zdotaccent" unicode="&#x17c;" horiz-adv-x="1091" 
d="M88 0v165l569 724h-316l-31 -184h-200v377h874v-176l-545 -709h339l40 195h193v-392h-923zM404 1319v241h282v-241h-282z" />
    <glyph glyph-name="Zcaron" unicode="&#x17d;" horiz-adv-x="1220" 
d="M77 0v183l720 1063h-469l-22 -187h-209l9 397h1023v-177l-723 -1070h530l23 190h208l-14 -399h-1076zM953 1844v-26l-253 -242h-195l-252 244v24h214l136 -145l139 145h211z" />
    <glyph glyph-name="zcaron" unicode="&#x17e;" horiz-adv-x="1091" 
d="M88 0v165l569 724h-316l-31 -184h-200v377h874v-176l-545 -709h339l40 195h193v-392h-923zM895 1560v-26l-253 -242h-195l-252 244v24h214l136 -145l139 145h211z" />
    <glyph glyph-name="longs" unicode="&#x17f;" horiz-adv-x="749" 
d="M47 0l0.000976562 164.001l145 30v1011c0 120.667 34 213.5 102 278.5s162 97.5 282 97.5c26.667 0 53.167 -1.83301 79.5 -5.5s53.166 -8.83398 80.499 -15.501l-24 -201c-16 4 -31.5 7 -46.5 9s-30.5 3 -46.5 3c-50 0 -88.333 -14.5 -115 -43.5s-40 -69.833 -40 -122.5
v-1011l156 -30v-164h-573z" />
    <glyph glyph-name="uni018F" unicode="&#x18f;" horiz-adv-x="1401" 
d="M699 -21c-134.667 0 -248.831 27.165 -342.498 81.498s-164.667 132.166 -213 233.499s-72.5 222.333 -72.5 363v141h960l2 30c1.33301 82.667 -12.834 155.834 -42.501 219.501s-75.5 113.834 -137.5 150.501s-141 55 -237 55c-78.667 0 -148.5 -6.66699 -209.5 -20
s-117.167 -30 -168.5 -50l-49 208c36 19.333 90.5 38.5 163.5 57.5s160.833 28.5 263.5 28.5c147.333 0 272.666 -27.833 375.999 -83.5s182 -133.667 236 -234s81 -217.833 81 -352.5v-162c0 -129.333 -27 -244.166 -81 -344.499s-127 -179 -219 -236
s-195.333 -85.5 -310 -85.5zM699.003 201.998c66.667 0 124.001 16.6689 172.001 50.002s85.667 79.166 113 137.499s43 125.833 47 202.5l-2 4h-686v-31c0 -73.333 12.333 -137.333 37 -192s63.167 -96.834 115.5 -126.501s120.166 -44.5 203.499 -44.5z" />
    <glyph glyph-name="florin" unicode="&#x192;" horiz-adv-x="791" 
d="M116 -437c-21.333 0 -42.333 1.33496 -63 4.00195s-43.667 7 -69 13l15 206c13.333 -3.33301 29.166 -6.33301 47.499 -9s34.166 -4 47.499 -4c40 0 70.833 15.5 92.5 46.5s32.5 74.167 32.5 129.5v940h-162v193h162v123c0 120.667 34.333 213.5 103 278.5
s163 97.5 283 97.5c26 0 51.5 -1.83301 76.5 -5.5s52.5 -8.83398 82.5 -15.501l-25 -203c-14 2.66699 -29.167 5 -45.5 7s-33.166 3 -50.499 3c-50 0 -87.833 -13.833 -113.5 -41.5s-38.5 -67.834 -38.5 -120.501v-123h205v-193h-205v-940
c0 -123.333 -32.667 -218.5 -98 -285.5s-157.666 -100.5 -276.999 -100.5z" />
    <glyph glyph-name="Ohorn" unicode="&#x1a0;" horiz-adv-x="1426" 
d="M713 -21c-97.333 0 -185.666 18.167 -264.999 54.5s-147.5 87.666 -204.5 153.999s-100.833 144.333 -131.5 234s-46 188.167 -46 295.5v22c0 106.667 15.333 204.834 46 294.501s74.5 167.667 131.5 234s125 117.833 204 154.5s167.167 55 264.5 55
c99.333 0 188.833 -18.333 268.5 -55s148.167 -88.167 205.5 -154.5s101.166 -144.333 131.499 -234s45.5 -187.834 45.5 -294.501v-22c0 -107.333 -15.167 -205.833 -45.5 -295.5s-74 -167.667 -131 -234s-125.5 -117.666 -205.5 -153.999s-169.333 -54.5 -268 -54.5z
M713 193c85.333 0 155.998 21.8311 211.998 65.498s97.833 104.834 125.5 183.501s41.5 170.334 41.5 275.001v24c0 103.333 -14 194 -42 272s-70.167 139 -126.5 183s-126.833 66 -211.5 66c-82.667 0 -151.667 -21.833 -207 -65.5s-96.833 -104.5 -124.5 -182.5
s-41.5 -169 -41.5 -273v-24c0 -104 13.833 -195.5 41.5 -274.5s69.334 -140.333 125.001 -184s124.834 -65.5 207.501 -65.5zM1050 1158l-1 153.999c67.333 0 112.833 22.667 136.5 68s35.167 110.333 34.5 195h221c0 -86.667 -14 -161.167 -42 -223.5
s-70.833 -110.166 -128.5 -143.499s-131.167 -50 -220.5 -50z" />
    <glyph glyph-name="ohorn" unicode="&#x1a1;" horiz-adv-x="1194" 
d="M576 -21c-106 0 -196.666 23.333 -271.999 70s-133.333 111.5 -174 194.5s-61 178.5 -61 286.5v21c0 107.333 20.333 202.333 61 285s98.667 147.667 174 195s165.333 71 270 71c105.333 0 195.666 -23.5 270.999 -70.5s133.166 -111.833 173.499 -194.5
s60.5 -178 60.5 -286v-21c0 -108 -20.167 -203.5 -60.5 -286.5s-98.166 -147.833 -173.499 -194.5s-165 -70 -269 -70zM576.001 188c52.667 0 96.166 14.332 130.499 42.999s59.833 68.834 76.5 120.501s25 111.167 25 178.5v21c0 66.667 -8.33301 125.667 -25 177
s-42.334 91.5 -77.001 120.5s-78.667 43.5 -132 43.5s-97.166 -14.5 -131.499 -43.5s-59.833 -69.167 -76.5 -120.5s-25 -110.333 -25 -177v-21c0 -68 8.33301 -127.667 25 -179s42.334 -91.333 77.001 -120s79 -43 133 -43zM843 814.999l-1 136
c44 0 77.5 9.83301 100.5 29.5s38.5 47.167 46.5 82.5s12 77 12 125h190c0 -72.667 -11.167 -137 -33.5 -193s-59 -100 -110 -132s-119.167 -48 -204.5 -48z" />
    <glyph glyph-name="Uhorn" unicode="&#x1af;" horiz-adv-x="1763" 
d="M776 -21c-114 0 -214.167 19.667 -300.5 59s-153.5 96.833 -201.5 172.5s-72 167.5 -72 275.5v775l-156 30v165h586v-165l-157 -30v-775c0 -66 12.333 -121.167 37 -165.5s59.5 -77.5 104.5 -99.5s98.167 -33 159.5 -33c63.333 0 117.833 11 163.5 33s81 55 106 99
s37.5 99.333 37.5 166v775l-157 30v165h430v-970c0 -108 -24.5 -199.833 -73.5 -275.5s-116.833 -133.167 -203.5 -172.5s-187.667 -59 -303 -59zM1320 1038l4 177c78.667 -2 131.5 20.167 158.5 66.5s40.5 120.5 40.5 222.5h221v-5c2 -150 -29.5 -263.667 -94.5 -341
s-174.833 -117.333 -329.5 -120z" />
    <glyph glyph-name="uhorn" unicode="&#x1b0;" horiz-adv-x="1379" 
d="M528 -21c-115.333 0 -205.5 36.5 -270.5 109.5s-97.5 186.5 -97.5 340.5v458l-120 30v165h120h272v-655c0 -85.333 14.167 -145.833 42.5 -181.5s71.833 -53.5 130.5 -53.5c48.667 0 91 9.66699 127 29s65 47 87 83v583l-132 30v165h132h272v-888l129 -30v-164h-369
l-18 142c-34 -52.667 -76.833 -93 -128.5 -121s-110.5 -42 -176.5 -42zM1042 815l-1 136c44 0 77.5 9.83301 100.5 29.5s38.5 47.167 46.5 82.5s12 77 12 125h190c0 -72.667 -11.167 -137 -33.5 -193s-59 -100 -110 -132s-119.167 -48 -204.5 -48z" />
    <glyph glyph-name="uni01F0" unicode="&#x1f0;" horiz-adv-x="584" 
d="M95 -437c-26 0 -49.6689 1.33301 -71.002 4s-43.333 7 -66 13l14 206c13.333 -3.33301 28.833 -6.33301 46.5 -9s34.834 -4 51.501 -4c38.667 0 68.834 15.5 90.501 46.5s32.5 74.167 32.5 129.5v938l-158 30v165h429v-1133c0 -123.333 -32.5 -218.5 -97.5 -285.5
s-155.5 -100.5 -271.5 -100.5zM670.998 1560v-26l-253 -242h-195l-252 244v24h214l136 -145l139 145h211z" />
    <glyph glyph-name="Aringacute" unicode="&#x1fa;" horiz-adv-x="1516" 
d="M47 0v164l105 15l473 1277h271l469 -1277l104 -15v-164h-479v164l103 19l-71 214h-527l-71 -214l102 -19v-164h-479zM562 602h393l-179 518l-14 42h-6l-15 -44zM762 1346c-64 0 -117.667 19.167 -161 57.5s-65 87.5 -65 147.5c0 59.333 21.833 109 65.5 149
s97.167 60 160.5 60c62.667 0 115.334 -20 158.001 -60s64 -89.667 64 -149c0 -60 -21.333 -109.167 -64 -147.5s-95.334 -57.5 -158.001 -57.5zM762 1458c26.667 0 48.667 8.66895 66 26.002s26 39.666 26 66.999c0 28 -8.5 51 -25.5 69s-39.167 27 -66.5 27
s-50.166 -9 -68.499 -27s-27.5 -41 -27.5 -69c0 -26.667 9.16699 -48.834 27.5 -66.501s41.166 -26.5 68.499 -26.5zM666 1815l125 216h240l2 -6l-199 -210h-160h-8z" />
    <glyph glyph-name="aringacute" unicode="&#x1fb;" horiz-adv-x="1149" 
d="M425 -21c-108.667 0 -194.169 28.5 -256.502 85.5s-93.5 135.167 -93.5 234.5c0 68 18.5 127.833 55.5 179.5s91.667 92 164 121s160.5 43.5 264.5 43.5h154v85c0 54.667 -16.167 98.667 -48.5 132s-79.833 50 -142.5 50c-34 0 -64.5 -4.16699 -91.5 -12.5
s-51.167 -20.166 -72.5 -35.499l-23 -145h-198l-2 274c54.667 33.333 114.834 60.166 180.501 80.499s138.834 30.5 219.501 30.5c139.333 0 249.166 -32.5 329.499 -97.5s120.5 -158.167 120.5 -279.5v-461c0 -14.667 0.166992 -29 0.5 -43s1.5 -27.667 3.5 -41l111 -16
v-164h-345c-7.33301 20.667 -14.166 41.834 -20.499 63.501s-10.833 43.5 -13.5 65.5c-35.333 -44.667 -77.5 -80.834 -126.5 -108.501s-105.5 -41.5 -169.5 -41.5zM491.998 184c46 0 89.167 10.667 129.5 32s70.833 48.333 91.5 81v176h-155
c-70 0 -122.833 -16.167 -158.5 -48.5s-53.5 -70.5 -53.5 -114.5c0 -40 12.667 -71 38 -93s61.333 -33 108 -33zM544.998 1053c-64 0 -117.667 19.167 -161 57.5s-65 87.5 -65 147.5c0 58.667 21.833 108.167 65.5 148.5s97.167 60.5 160.5 60.5
c62.667 0 115.334 -20 158.001 -60s64 -89.667 64 -149c0 -60 -21.333 -109.167 -64 -147.5s-95.334 -57.5 -158.001 -57.5zM544.998 1164c26.667 0 48.667 8.83301 66 26.5s26 40.167 26 67.5c0 28 -8.5 51 -25.5 69s-39.167 27 -66.5 27s-50.166 -9 -68.499 -27
s-27.5 -41 -27.5 -69c0 -26.667 9.16699 -49 27.5 -67s41.166 -27 68.499 -27zM448.998 1522l125 216h240l2 -6l-199 -210h-160h-8z" />
    <glyph glyph-name="AEacute" unicode="&#x1fc;" horiz-adv-x="2093" 
d="M63 0v164l139 20l720 1272h1021v-359h-212l-13 147h-406l17 -388h532v-212h-523l18 -433h425l13 147h211v-358h-1071v164l151 28l-6 161h-471l-94 -175l85 -14v-164h-536zM721 571h348l-25 587l-5 1l-10 -20zM990 1572l196 272h292l2 -6l-274 -266h-208h-8z" />
    <glyph glyph-name="aeacute" unicode="&#x1fd;" horiz-adv-x="1724" 
d="M445 -21c-118 0 -209.169 29 -273.502 87s-96.5 137 -96.5 237c0 68 18.667 127.667 56 179s92 91.333 164 120s160.333 43 265 43h154v83c0 54.667 -16.167 98.667 -48.5 132s-80.166 50 -143.499 50c-34 0 -64.333 -4.16699 -91 -12.5s-51 -20.166 -73 -35.499
l-22 -145h-198l-3 274c54.667 33.333 115 60.166 181 80.499s139.333 30.5 220 30.5c74.667 0 140.667 -11.833 198 -35.5s103.666 -59.834 138.999 -108.501c28 32 58.833 58.667 92.5 80s70 37.333 109 48s80.167 16 123.5 16c94.667 0 175.667 -19.833 243 -59.5
s119 -96 155 -169s54 -159.833 54 -260.5v-150h-663l-2 -6c2.66699 -81.333 26 -146.5 70 -195.5s110.333 -73.5 199 -73.5c61.333 0 112.833 7.33301 154.5 22s88.5 36.334 140.5 65.001l75 -175c-40.667 -31.333 -95.667 -59.333 -165 -84s-147 -37 -233 -37
c-170 0 -302.667 58 -398 174c-47.333 -56 -102.666 -99 -165.999 -129s-135.666 -45 -216.999 -45zM492.998 184c32.667 0 64.168 6 94.501 18s58 28.333 83 49s45.167 44 60.5 70c-6.66699 27.333 -11.167 53 -13.5 77s-3.5 48 -3.5 72v6h-156
c-69.333 0 -122 -16 -158 -48s-54 -69.667 -54 -113c0 -38.667 12.667 -70.167 38 -94.5s61.666 -36.5 108.999 -36.5zM987.999 643h395v29c0 66.667 -16.167 120 -48.5 160s-79.833 60 -142.5 60c-39.333 0 -73.833 -10 -103.5 -30s-53.167 -48.333 -70.5 -85
s-28 -79.667 -32 -129zM714.999 1288l196 272h292l2 -6l-274 -266h-208h-8z" />
    <glyph glyph-name="Oslashacute" unicode="&#x1fe;" horiz-adv-x="1426" 
d="M713 -21c-97.333 0 -185.666 18.167 -264.999 54.5s-147.5 87.666 -204.5 153.999s-100.833 144.333 -131.5 234s-46 188.167 -46 295.5v22c0 106.667 15.333 204.834 46 294.501s74.5 167.667 131.5 234s125 117.833 204 154.5s167.167 55 264.5 55
c99.333 0 188.833 -18.333 268.5 -55s148.167 -88.167 205.5 -154.5s101.166 -144.333 131.499 -234s45.5 -187.834 45.5 -294.501v-22c0 -107.333 -15.167 -205.833 -45.5 -295.5s-74 -167.667 -131 -234s-125.5 -117.666 -205.5 -153.999s-169.333 -54.5 -268 -54.5z
M713 193c85.333 0 155.998 21.8311 211.998 65.498s97.833 104.834 125.5 183.501s41.5 170.334 41.5 275.001v24c0 103.333 -14 194 -42 272s-70.167 139 -126.5 183s-126.833 66 -211.5 66c-82.667 0 -151.667 -21.833 -207 -65.5s-96.833 -104.5 -124.5 -182.5
s-41.5 -169 -41.5 -273v-24c0 -104 13.833 -195.5 41.5 -274.5s69.334 -140.333 125.001 -184s124.834 -65.5 207.501 -65.5zM154.998 -87.002l943 1613h173l-944 -1613h-172zM549.998 1572l196 272h292l2 -6l-274 -266h-208h-8z" />
    <glyph glyph-name="oslashacute" unicode="&#x1ff;" horiz-adv-x="1148" 
d="M576 -21c-106 0 -196.666 23.333 -271.999 70s-133.333 111.5 -174 194.5s-61 178.5 -61 286.5v21c0 107.333 20.333 202.333 61 285s98.667 147.667 174 195s165.333 71 270 71c105.333 0 195.666 -23.5 270.999 -70.5s133.166 -111.833 173.499 -194.5
s60.5 -178 60.5 -286v-21c0 -108 -20.167 -203.5 -60.5 -286.5s-98.166 -147.833 -173.499 -194.5s-165 -70 -269 -70zM576.001 188c52.667 0 96.166 14.332 130.499 42.999s59.833 68.834 76.5 120.501s25 111.167 25 178.5v21c0 66.667 -8.33301 125.667 -25 177
s-42.334 91.5 -77.001 120.5s-78.667 43.5 -132 43.5s-97.166 -14.5 -131.499 -43.5s-59.833 -69.167 -76.5 -120.5s-25 -110.333 -25 -177v-21c0 -68 8.33301 -127.667 25 -179s42.334 -91.333 77.001 -120s79 -43 133 -43zM165 -136.001l664 1354h154l-663 -1354h-155z
M411 1288l196 272h292l2 -6l-274 -266h-208h-8z" />
    <glyph glyph-name="uni0218" unicode="&#x218;" horiz-adv-x="1238" 
d="M641 -21c-103.333 0 -198.498 12.167 -285.498 36.5s-171.833 65.5 -254.5 123.5v344h210l32 -212c32.667 -25.333 75.167 -45.666 127.5 -60.999s109.166 -23 170.499 -23c56 0 103.167 7.83301 141.5 23.5s67.5 38 87.5 67s30 62.833 30 101.5
c0 37.333 -9 70.166 -27 98.499s-47.5 54 -88.5 77s-96.5 44.833 -166.5 65.5c-112 31.333 -205.333 67 -280 107s-130.5 88.167 -167.5 144.5s-55.5 123.5 -55.5 201.5s21.5 147.167 64.5 207.5s102.667 107.833 179 142.5s164.166 52.334 263.499 53.001
c110.667 1.33301 208.334 -12.334 293.001 -41.001s157 -67.334 217 -116.001v-320h-205l-37 201c-26.667 18 -61.667 33.333 -105 46s-93.333 19 -150 19c-48.667 0 -91.667 -7.5 -129 -22.5s-66.666 -36.833 -87.999 -65.5s-32 -63 -32 -103c0 -34.667 9.33301 -65 28 -91
s50 -50 94 -72s103.667 -44.667 179 -68c159.333 -43.333 280.166 -101.833 362.499 -175.5s123.5 -169.167 123.5 -286.5c0 -81.333 -22.167 -152.166 -66.5 -212.499s-106.333 -107 -186 -140s-172.834 -49.5 -279.501 -49.5zM572.002 -533l-124.001 86
c22 32.667 38.5 65.5 49.5 98.5s16.5 73.167 16.5 120.5v94h232v-82c0 -62.667 -15.667 -121.5 -47 -176.5s-73.666 -101.833 -126.999 -140.5z" />
    <glyph glyph-name="uni0219" unicode="&#x219;" horiz-adv-x="1031" 
d="M524 -21c-79.333 0 -153.167 7.50098 -221.5 22.501s-135.166 37.167 -200.499 66.5l-3 296h192l38 -156c26 -12 53.333 -21.333 82 -28s61 -10 97 -10c68.667 0 117.167 11.5 145.5 34.5s42.5 51.833 42.5 86.5c0 33.333 -15 62.166 -45 86.499s-88 45.5 -174 63.5
c-128.667 27.333 -223.334 68.5 -284.001 123.5s-91 125.5 -91 211.5c0 60 15.5 114.333 46.5 163s77.5 87.834 139.5 117.501s139.667 44.5 233 44.5c82 0 155.833 -8.33301 221.5 -25s121.167 -38 166.5 -64l5 -286h-191l-31 142c-19.333 14 -42 24.833 -68 32.5
s-55.333 11.5 -88 11.5c-53.333 0 -94.833 -11.333 -124.5 -34s-44.5 -51.334 -44.5 -86.001c0 -20 5 -38.333 15 -55s29.5 -32.167 58.5 -46.5s71.5 -27.833 127.5 -40.5c137.333 -31.333 236.5 -73 297.5 -125s91.5 -122.667 91.5 -212
c0 -98.667 -35.833 -179 -107.5 -241s-180.167 -93 -325.5 -93zM468.999 -532.999l-124.001 86c22 32.667 38.5 65.5 49.5 98.5s16.5 73.167 16.5 120.5v94h232v-82c0 -62.667 -15.667 -121.5 -47 -176.5s-73.666 -101.833 -126.999 -140.5z" />
    <glyph glyph-name="uni021A" unicode="&#x21a;" horiz-adv-x="1393" 
d="M402 0v164l157 30v1053h-279l-19 -180h-205v389h1280v-389h-206l-19 180h-280v-1053l158 -30v-164h-587zM650 -533l-124.001 86c22 32.667 38.5 65.5 49.5 98.5s16.5 73.167 16.5 120.5v94h232v-82c0 -62.667 -15.667 -121.5 -47 -176.5
s-73.666 -101.833 -126.999 -140.5z" />
    <glyph glyph-name="uni021B" unicode="&#x21b;" horiz-adv-x="734" 
d="M481 -20c-96 0 -170.5 26.8311 -223.5 80.498s-79.5 138.834 -79.5 255.501v573h-153v193h153v264h271v-264h207v-193h-207v-573c0 -44 9.33301 -75.667 28 -95s43.667 -29 75 -29c17.333 0 36.333 1.33301 57 4s38 5.33398 52 8.00098l26 -193
c-30 -8.66699 -63.167 -16 -99.5 -22s-71.833 -9 -106.5 -9zM335 -533.002l-124.001 86c22 32.667 38.5 65.5 49.5 98.5s16.5 73.167 16.5 120.5v94h232v-82c0 -62.667 -15.667 -121.5 -47 -176.5s-73.666 -101.833 -126.999 -140.5z" />
    <glyph glyph-name="uni0237" unicode="&#x237;" horiz-adv-x="584" 
d="M95 -437c-26 0 -49.6689 1.33301 -71.002 4s-43.333 7 -66 13l14 206c13.333 -3.33301 28.833 -6.33301 46.5 -9s34.834 -4 51.501 -4c38.667 0 68.834 15.5 90.501 46.5s32.5 74.167 32.5 129.5v938l-158 30v165h429v-1133c0 -123.333 -32.5 -218.5 -97.5 -285.5
s-155.5 -100.5 -271.5 -100.5z" />
    <glyph glyph-name="uni0259" unicode="&#x259;" horiz-adv-x="1118" 
d="M552 -19c-98 0 -180.999 19.835 -248.999 59.502s-119.833 96 -155.5 169s-53.5 159.167 -53.5 258.5v151h660v3.5v2.5c-3.33301 52 -15.333 98.167 -36 138.5s-49.834 72.166 -87.501 95.499s-82.834 35 -135.501 35c-58 0 -110.167 -7.33301 -156.5 -22
s-92.833 -36.334 -139.5 -65.001l-80 169c43.333 36 99.833 66.333 169.5 91s148.5 37 236.5 37c103.333 0 193 -23 269 -69s135 -109.167 177 -189.5s63 -172.166 63 -275.499v-41c0 -106.667 -20.167 -201.334 -60.5 -284.001s-96.666 -147.5 -168.999 -194.5
s-156.5 -70.167 -252.5 -69.5zM551.001 190.002c38 0 71 10 99 30s50.5 48 67.5 84s28.5 77.667 34.5 125l-3 5h-387v-26c0 -43.333 7 -81.5 21 -114.5s35 -58.5 63 -76.5s63 -27 105 -27z" />
    <glyph glyph-name="uni02BC" unicode="&#x2bc;" horiz-adv-x="460" 
d="M194 981l-137.999 77.999c27.333 46.667 48.166 94.834 62.499 144.501s21.5 105.167 21.5 166.5v190h235v-189c0 -44.667 -8 -91.167 -24 -139.5s-37.667 -94.333 -65 -138s-58 -81.167 -92 -112.5z" />
    <glyph glyph-name="circumflex" unicode="&#x2c6;" horiz-adv-x="780" 
d="M40 1292v26l253 242h195l252 -244v-24h-214l-136 145l-139 -145h-211z" />
    <glyph glyph-name="caron" unicode="&#x2c7;" horiz-adv-x="780" 
d="M740 1560v-26l-253 -242h-195l-252 244v24h214l136 -145l139 145h211z" />
    <glyph glyph-name="uni02C9" unicode="&#x2c9;" horiz-adv-x="809" 
d="M40 1320v170h729v-170h-729z" />
    <glyph glyph-name="breve" unicode="&#x2d8;" horiz-adv-x="758" 
d="M380 1265c-105.333 0 -188.833 27 -250.5 81s-91.5 123.333 -89.5 208l2 6h188c0 -40.667 12 -74.167 36 -100.5s62 -39.5 114 -39.5c50 0 87.167 13 111.5 39s36.5 59.667 36.5 101h188l2 -6c1.33301 -84.667 -28.5 -154 -89.5 -208s-143.833 -81 -248.5 -81z" />
    <glyph glyph-name="dotaccent" unicode="&#x2d9;" horiz-adv-x="362" 
d="M40 1319v241h282v-241h-282z" />
    <glyph glyph-name="ring" unicode="&#x2da;" horiz-adv-x="534" 
d="M269 1227c-64.667 0 -119 19.667 -163 59s-66 90 -66 152c0 60 22.167 110.667 66.5 152s98.5 62 162.5 62c63.333 0 116.666 -20.667 159.999 -62s65 -92 65 -152c0 -62 -21.667 -112.667 -65 -152s-96.666 -59 -159.999 -59zM269 1339c27.333 0 50 9.00098 68 27.001
s27 42 27 72c0 29.333 -9 53.333 -27 72s-40.667 28 -68 28c-28 0 -51.5 -9.33301 -70.5 -28s-28.5 -42.667 -28.5 -72c0 -28.667 9.5 -52.334 28.5 -71.001s42.5 -28 70.5 -28z" />
    <glyph glyph-name="ogonek" unicode="&#x2db;" horiz-adv-x="471" 
d="M289 -426c-74 0 -134.002 19 -180.002 57s-69 91.333 -69 160c0 50 18.333 98.833 55 146.5s97 88.167 181 121.5l114 -59c-48 -31.333 -83.5 -60.833 -106.5 -88.5s-34.5 -57.167 -34.5 -88.5c0 -25.333 7 -44.666 21 -57.999s36.667 -20 68 -20c16 0 31 1.66699 45 5
s27.667 7.66602 41 12.999l35 -148c-23.333 -11.333 -48.666 -21 -75.999 -29s-58.666 -12 -93.999 -12z" />
    <glyph glyph-name="tilde" unicode="&#x2dc;" horiz-adv-x="817" 
d="M182 1288l-142 35.999c0 44.667 10.333 85.667 31 123s48 67.333 82 90s71 34 111 34c32 0 65.167 -8 99.5 -24s67.166 -32.167 98.499 -48.5s58.333 -24.5 81 -24.5c27.333 0.666992 49.5 11.334 66.5 32.001s25.5 46.667 25.5 78l142 -39
c0 -45.333 -10.167 -86.666 -30.5 -123.999s-47.5 -67 -81.5 -89s-71.333 -33 -112 -33c-34.667 0 -69.167 8.16699 -103.5 24.5s-66.666 32.666 -96.999 48.999s-56.833 24.5 -79.5 24.5c-27.333 0 -49.333 -10.667 -66 -32s-25 -47 -25 -77z" />
    <glyph glyph-name="hungarumlaut" unicode="&#x2dd;" horiz-adv-x="908" 
d="M370 1288l-2 5l240 267h267l2 -6l-294 -266h-213zM47 1288h-7l196 272h250l2 -5l-240 -267h-201z" />
    <glyph glyph-name="uni02F3" unicode="&#x2f3;" horiz-adv-x="524" 
d="M264 -520c-64.667 0 -119 19.667 -163 59s-66 89.666 -66 150.999c0 60.667 22.167 111.5 66.5 152.5s98.5 61.5 162.5 61.5c63.333 0 116.666 -20.5 159.999 -61.5s65 -91.833 65 -152.5c0 -61.333 -21.667 -111.666 -65 -150.999s-96.666 -59 -159.999 -59zM264 -408
c27.333 0 50 9 68 27s27 41.667 27 71s-9 53.5 -27 72.5s-40.667 28.5 -68 28.5c-28 0 -51.5 -9.5 -70.5 -28.5s-28.5 -43.167 -28.5 -72.5c0 -28.667 9.5 -52.167 28.5 -70.5s42.5 -27.5 70.5 -27.5z" />
    <glyph glyph-name="gravecomb" unicode="&#x300;" 
d="M530 1288h-8h-208l-274 266l2 6h292z" />
    <glyph glyph-name="acutecomb" unicode="&#x301;" 
d="M40 1288l196 272h292l2 -6l-274 -266h-208h-8z" />
    <glyph glyph-name="uni0302" unicode="&#x302;" 
d="M40 1292v26l253 242h195l252 -244v-24h-214l-136 145l-139 -145h-211z" />
    <glyph glyph-name="tildecomb" unicode="&#x303;" 
d="M182 1288l-142 35.999c0 44.667 10.333 85.667 31 123s48 67.333 82 90s71 34 111 34c32 0 65.167 -8 99.5 -24s67.166 -32.167 98.499 -48.5s58.333 -24.5 81 -24.5c27.333 0.666992 49.5 11.334 66.5 32.001s25.5 46.667 25.5 78l142 -39
c0 -45.333 -10.167 -86.666 -30.5 -123.999s-47.5 -67 -81.5 -89s-71.333 -33 -112 -33c-34.667 0 -69.167 8.16699 -103.5 24.5s-66.666 32.666 -96.999 48.999s-56.833 24.5 -79.5 24.5c-27.333 0 -49.333 -10.667 -66 -32s-25 -47 -25 -77z" />
    <glyph glyph-name="uni0304" unicode="&#x304;" 
d="M40 1320v170h729v-170h-729z" />
    <glyph glyph-name="uni0306" unicode="&#x306;" 
d="M380 1265c-105.333 0 -188.833 27 -250.5 81s-91.5 123.333 -89.5 208l2 6h188c0 -40.667 12 -74.167 36 -100.5s62 -39.5 114 -39.5c50 0 87.167 13 111.5 39s36.5 59.667 36.5 101h188l2 -6c1.33301 -84.667 -28.5 -154 -89.5 -208s-143.833 -81 -248.5 -81z" />
    <glyph glyph-name="uni0307" unicode="&#x307;" 
d="M40 1319v241h282v-241h-282z" />
    <glyph glyph-name="uni0308" unicode="&#x308;" 
d="M485 1319v241h266v-241h-266zM40 1319v241h265v-241h-265z" />
    <glyph glyph-name="hookabovecomb" unicode="&#x309;" 
d="M61 1254l-11.999 139c49.333 2 84.666 8 105.999 18s32 26.333 32 49c0 23.333 -13 40.5 -39 51.5s-61.667 16.5 -107 16.5l7 127c118 0 208.5 -17 271.5 -51s94.5 -80.333 94.5 -139c0 -43.333 -14.5 -77 -43.5 -101s-64.5 -39 -106.5 -45l-1 -65h-202z" />
    <glyph glyph-name="uni030A" unicode="&#x30a;" 
d="M269 1227c-64.667 0 -119 19.667 -163 59s-66 90 -66 152c0 60 22.167 110.667 66.5 152s98.5 62 162.5 62c63.333 0 116.666 -20.667 159.999 -62s65 -92 65 -152c0 -62 -21.667 -112.667 -65 -152s-96.666 -59 -159.999 -59zM269 1339c27.333 0 50 9.00098 68 27.001
s27 42 27 72c0 29.333 -9 53.333 -27 72s-40.667 28 -68 28c-28 0 -51.5 -9.33301 -70.5 -28s-28.5 -42.667 -28.5 -72c0 -28.667 9.5 -52.334 28.5 -71.001s42.5 -28 70.5 -28z" />
    <glyph glyph-name="uni030B" unicode="&#x30b;" 
d="M370 1288l-2 5l240 267h267l2 -6l-294 -266h-213zM47 1288h-7l196 272h250l2 -5l-240 -267h-201z" />
    <glyph glyph-name="uni030C" unicode="&#x30c;" 
d="M740 1560v-26l-253 -242h-195l-252 244v24h214l136 -145l139 145h211z" />
    <glyph glyph-name="uni030F" unicode="&#x30f;" 
d="M547 1288h-213l-294 266l2 6h266l241 -267zM870 1288h-201l-240 267l2 5h250l196 -272h-7z" />
    <glyph glyph-name="uni0312" unicode="&#x312;" 
d="M214 1682l123.999 -86.001c-22 -32.667 -38.5 -65.5 -49.5 -98.5s-16.5 -73.5 -16.5 -121.5v-93h-232v82c0 63.333 15.833 122.333 47.5 177s73.834 101.334 126.501 140.001z" />
    <glyph glyph-name="uni031B" unicode="&#x31b;" 
d="M41 815l-1 136c44 0 77.5 9.83301 100.5 29.5s38.5 47.167 46.5 82.5s12 77 12 125h190c0 -72.667 -11.167 -137 -33.5 -193s-59 -100 -110 -132s-119.167 -48 -204.5 -48z" />
    <glyph glyph-name="dotbelowcomb" unicode="&#x323;" 
d="M40 -407v241h282v-241h-282z" />
    <glyph glyph-name="uni0325" unicode="&#x325;" 
d="M269 -520c-64.667 0 -119 19.667 -163 59s-66 89.666 -66 150.999c0 60.667 22.167 111.5 66.5 152.5s98.5 61.5 162.5 61.5c63.333 0 116.666 -20.5 159.999 -61.5s65 -91.833 65 -152.5c0 -61.333 -21.667 -111.666 -65 -150.999s-96.666 -59 -159.999 -59zM269 -408
c27.333 0 50 9 68 27s27 41.667 27 71s-9 53.5 -27 72.5s-40.667 28.5 -68 28.5c-28 0 -51.5 -9.5 -70.5 -28.5s-28.5 -43.167 -28.5 -72.5c0 -28.667 9.5 -52.167 28.5 -70.5s42.5 -27.5 70.5 -27.5z" />
    <glyph glyph-name="uni0326.1" unicode="&#x326;" 
d="M164 -533l-124.001 86c22 32.667 38.5 65.5 49.5 98.5s16.5 73.167 16.5 120.5v94h232v-82c0 -62.667 -15.667 -121.5 -47 -176.5s-73.666 -101.833 -126.999 -140.5z" />
    <glyph glyph-name="uni0327" unicode="&#x327;" 
d="M59 -454l-7.00098 149.001c42 0 75.333 6.83301 100 20.5s37 34.5 37 62.5c0 28.667 -11.833 48.667 -35.5 60s-61.5 18.666 -113.5 21.999l35 161h200l-15 -77c44.667 -7.33301 81.834 -24.333 111.501 -51s44.5 -66 44.5 -118c0 -69.333 -31 -124.833 -93 -166.5
s-150 -62.5 -264 -62.5z" />
    <glyph glyph-name="uni0328" unicode="&#x328;" 
d="M289 -426c-74 0 -134.002 19 -180.002 57s-69 91.333 -69 160c0 50 18.333 98.833 55 146.5s97 88.167 181 121.5l114 -59c-48 -31.333 -83.5 -60.833 -106.5 -88.5s-34.5 -57.167 -34.5 -88.5c0 -25.333 7 -44.666 21 -57.999s36.667 -20 68 -20c16 0 31 1.66699 45 5
s27.667 7.66602 41 12.999l35 -148c-23.333 -11.333 -48.666 -21 -75.999 -29s-58.666 -12 -93.999 -12z" />
    <glyph glyph-name="uni0335" unicode="&#x335;" 
d="M40 666v155h647v-155h-647z" />
    <glyph glyph-name="uni0336" unicode="&#x336;" 
d="M40 816v150h1461v-150h-1461z" />
    <glyph glyph-name="uni0337" unicode="&#x337;" 
d="M40 573v189l549 187v-189z" />
    <glyph glyph-name="uni0338" unicode="&#x338;" 
d="M40 -140l664 1354h154l-663 -1354h-155z" />
    <glyph glyph-name="tonos" unicode="&#x384;" horiz-adv-x="510" 
d="M133 1259l68 361h263l-196 -361h-135z" />
    </font>
</defs>
</svg>
